{
.appVersion = "983";
date = "2014-02-27 21:10:03 +0000";
designer = "Julian Furchert";
designerURL = "work@julianfurchert.de";
familyName = Repro;
fontMaster = (
{
alignmentZones = (
"{700, 16}",
"{0, -16}",
"{-203, -16}"
);
ascender = 700;
capHeight = 700;
custom = "100";
customValue = 100;
descender = -203;
horizontalStems = (
112,
104
);
id = "9540212F-C873-4039-900D-544C1C7D2862";
userData = {
GSOffsetHorizontal = 11;
GSOffsetMakeStroke = 1;
GSOffsetProportional = 1;
GSOffsetVertical = 0;
};
verticalStems = (
120,
112
);
xHeight = 497;
}
);
glyphs = (
{
color = 5;
glyphname = A;
lastChange = "2018-03-01 09:51:33 +0000";
layers = (
{
anchors = (
{
name = ogonek;
position = "{547, 0}";
},
{
name = top;
position = "{307, 680}";
}
);
guideLines = (
{
position = "{96, 680}";
}
);
layerId = "9540212F-C873-4039-900D-544C1C7D2862";
paths = (
{
closed = 1;
nodes = (
"380 700 LINE",
"235 700 LINE",
"2 0 LINE",
"138 0 LINE",
"182 129 LINE",
"434 129 LINE",
"476 0 LINE",
"613 0 LINE"
);
},
{
closed = 1;
nodes = (
"491 21 LINE",
"450 150 LINE",
"167 150 LINE",
"123 21 LINE",
"32 21 LINE",
"251 679 LINE",
"364 679 LINE",
"583 21 LINE"
);
},
{
closed = 1;
nodes = (
"318 545 LINE",
"298 545 LINE",
"390 260 LINE",
"225 260 LINE"
);
},
{
closed = 1;
nodes = (
"420 239 LINE",
"318 552 LINE",
"298 552 LINE",
"195 239 LINE"
);
}
);
width = 615;
},
{
anchors = (
{
name = ogonek;
position = "{547, 0}";
},
{
name = top;
position = "{307, 680}";
}
);
associatedMasterId = "9540212F-C873-4039-900D-544C1C7D2862";
guideLines = (
{
position = "{-2, 680}";
}
);
layerId = "44F9F7C3-3A0D-4A59-AA93-B67E7E4E1374";
name = Orginal;
paths = (
{
closed = 1;
nodes = (
"492 0 LINE",
"607 0 LINE",
"374 700 LINE",
"241 700 LINE",
"8 0 LINE",
"123 0 LINE",
"167 131 LINE",
"449 131 LINE"
);
},
{
closed = 1;
nodes = (
"203 243 LINE",
"308 562 LINE",
"412 243 LINE"
);
}
);
width = 615;
},
{
anchors = (
{
name = ogonek;
position = "{547, 0}";
},
{
name = top;
position = "{307, 680}";
}
);
associatedMasterId = "9540212F-C873-4039-900D-544C1C7D2862";
guideLines = (
{
position = "{-2, 680}";
}
);
layerId = "7883150F-AFC3-4232-BBDF-C40AE2132BA2";
name = " orginal";
paths = (
{
closed = 1;
nodes = (
"487 0 LINE",
"607 0 LINE",
"374 700 LINE",
"241 700 LINE",
"8 0 LINE",
"128 0 LINE",
"172 131 LINE",
"444 131 LINE"
);
},
{
closed = 1;
nodes = (
"208 243 LINE",
"308 547 LINE",
"407 243 LINE"
);
}
);
width = 615;
},
{
anchors = (
{
name = ogonek;
position = "{547, 0}";
},
{
name = top;
position = "{307, 680}";
}
);
associatedMasterId = "9540212F-C873-4039-900D-544C1C7D2862";
guideLines = (
{
position = "{96, 680}";
}
);
layerId = "8A6EA3AA-E1C3-4792-8F80-7787C2446294";
paths = (
{
closed = 1;
nodes = (
"380 700 LINE",
"235 700 LINE",
"2 0 LINE",
"138 0 LINE",
"182 129 LINE",
"434 129 LINE",
"476 0 LINE",
"613 0 LINE"
);
},
{
closed = 1;
nodes = (
"491 21 LINE",
"450 150 LINE",
"167 150 LINE",
"123 21 LINE",
"32 21 LINE",
"251 679 LINE",
"364 679 LINE",
"583 21 LINE"
);
},
{
closed = 1;
nodes = (
"318 545 LINE",
"298 545 LINE",
"390 260 LINE",
"225 260 LINE"
);
},
{
closed = 1;
nodes = (
"420 239 LINE",
"318 552 LINE",
"298 552 LINE",
"195 239 LINE"
);
}
);
width = 615;
},
{
anchors = (
{
name = ogonek;
position = "{547, 0}";
},
{
name = top;
position = "{307, 680}";
}
);
associatedMasterId = "9540212F-C873-4039-900D-544C1C7D2862";
guideLines = (
{
position = "{-2, 680}";
}
);
layerId = "EA9DD84D-AF80-4B87-B30E-5B2F650E01DC";
name = Orginal;
paths = (
{
closed = 1;
nodes = (
"492 0 LINE",
"607 0 LINE",
"374 700 LINE",
"241 700 LINE",
"8 0 LINE",
"123 0 LINE",
"167 131 LINE",
"449 131 LINE"
);
},
{
closed = 1;
nodes = (
"203 243 LINE",
"308 562 LINE",
"412 243 LINE"
);
}
);
width = 615;
},
{
anchors = (
{
name = ogonek;
position = "{547, 0}";
},
{
name = top;
position = "{307, 680}";
}
);
associatedMasterId = "9540212F-C873-4039-900D-544C1C7D2862";
guideLines = (
{
position = "{-2, 680}";
}
);
layerId = "19B29093-0328-4227-9B29-6245FAA969B0";
name = " orginal";
paths = (
{
closed = 1;
nodes = (
"487 0 LINE",
"607 0 LINE",
"374 700 LINE",
"241 700 LINE",
"8 0 LINE",
"128 0 LINE",
"172 131 LINE",
"444 131 LINE"
);
},
{
closed = 1;
nodes = (
"208 243 LINE",
"308 547 LINE",
"407 243 LINE"
);
}
);
width = 615;
}
);
leftKerningGroup = A;
rightKerningGroup = A;
unicode = 0041;
},
{
glyphname = Aacute;
lastChange = "2018-03-01 09:51:33 +0000";
layers = (
{
anchors = (
{
name = ogonek;
position = "{529, 21}";
},
{
name = top;
position = "{301, 667}";
}
);
layerId = "9540212F-C873-4039-900D-544C1C7D2862";
rightMetricsKey = "=A";
paths = (
{
closed = 1;
nodes = (
"472 860 LINE",
"464 878 LINE",
"332 878 LINE",
"250 747 LINE",
"258 730 LINE",
"359 730 LINE"
);
},
{
closed = 1;
nodes = (
"258 752 LINE",
"267 735 LINE",
"344 857 LINE",
"464 857 LINE",
"456 874 LINE",
"349 752 LINE"
);
},
{
closed = 1;
nodes = (
"380 700 LINE",
"235 700 LINE",
"2 0 LINE",
"138 0 LINE",
"182 129 LINE",
"434 129 LINE",
"476 0 LINE",
"612 0 LINE"
);
},
{
closed = 1;
nodes = (
"491 21 LINE",
"449 150 LINE",
"166 150 LINE",
"122 21 LINE",
"31 21 LINE",
"251 679 LINE",
"364 679 LINE",
"583 21 LINE"
);
},
{
closed = 1;
nodes = (
"317 546 LINE",
"298 546 LINE",
"390 260 LINE",
"224 260 LINE"
);
},
{
closed = 1;
nodes = (
"419 239 LINE",
"317 552 LINE",
"298 552 LINE",
"195 239 LINE"
);
}
);
width = 614;
},
{
anchors = (
{
name = ogonek;
position = "{529, 21}";
},
{
name = top;
position = "{301, 667}";
}
);
associatedMasterId = "9540212F-C873-4039-900D-544C1C7D2862";
layerId = "8A6EA3AA-E1C3-4792-8F80-7787C2446294";
rightMetricsKey = "=A";
paths = (
{
closed = 1;
nodes = (
"472 860 LINE",
"464 878 LINE",
"332 878 LINE",
"250 747 LINE",
"258 730 LINE",
"359 730 LINE"
);
},
{
closed = 1;
nodes = (
"258 752 LINE",
"267 735 LINE",
"344 857 LINE",
"464 857 LINE",
"456 874 LINE",
"349 752 LINE"
);
},
{
closed = 1;
nodes = (
"380 700 LINE",
"235 700 LINE",
"2 0 LINE",
"138 0 LINE",
"182 129 LINE",
"434 129 LINE",
"476 0 LINE",
"612 0 LINE"
);
},
{
closed = 1;
nodes = (
"491 21 LINE",
"449 150 LINE",
"166 150 LINE",
"122 21 LINE",
"31 21 LINE",
"251 679 LINE",
"364 679 LINE",
"583 21 LINE"
);
},
{
closed = 1;
nodes = (
"317 546 LINE",
"298 546 LINE",
"390 260 LINE",
"224 260 LINE"
);
},
{
closed = 1;
nodes = (
"419 239 LINE",
"317 552 LINE",
"298 552 LINE",
"195 239 LINE"
);
}
);
width = 614;
}
);
leftKerningGroup = A;
leftMetricsKey = A;
rightKerningGroup = A;
rightMetricsKey = A;
unicode = 00C1;
},
{
glyphname = Abreve;
lastChange = "2018-03-01 09:51:33 +0000";
layers = (
{
anchors = (
{
name = ogonek;
position = "{529, 21}";
},
{
name = top;
position = "{301, 667}";
}
);
layerId = "9540212F-C873-4039-900D-544C1C7D2862";
leftMetricsKey = "=A";
rightMetricsKey = "=A";
paths = (
{
closed = 1;
nodes = (
"353 878 LINE",
"359 858 OFFCURVE",
"345 818 OFFCURVE",
"318 818 CURVE",
"294 818 LINE",
"265 818 OFFCURVE",
"255 853 OFFCURVE",
"259 878 CURVE",
"165 878 LINE",
"162 843 OFFCURVE",
"171 792 OFFCURVE",
"196 766 CURVE",
"196 766 LINE",
"216 742 OFFCURVE",
"251 730 OFFCURVE",
"282 730 CURVE",
"331 730 LINE",
"362 730 OFFCURVE",
"396 742 OFFCURVE",
"418 766 CURVE",
"440 792 OFFCURVE",
"451 842 OFFCURVE",
"448 878 CURVE"
);
},
{
closed = 1;
nodes = (
"425 828 OFFCURVE",
"416 797 OFFCURVE",
"402 780 CURVE",
"384 760 OFFCURVE",
"358 752 OFFCURVE",
"331 752 CURVE",
"282 752 LINE",
"254 752 OFFCURVE",
"229 760 OFFCURVE",
"212 780 CURVE",
"212 780 LINE",
"195 798 OFFCURVE",
"187 828 OFFCURVE",
"186 857 CURVE",
"238 857 LINE",
"241 829 OFFCURVE",
"257 796 OFFCURVE",
"294 796 CURVE",
"318 796 LINE",
"355 796 OFFCURVE",
"372 829 OFFCURVE",
"375 857 CURVE",
"427 857 LINE"
);
},
{
closed = 1;
nodes = (
"379 700 LINE",
"235 700 LINE",
"2 0 LINE",
"138 0 LINE",
"182 129 LINE",
"434 129 LINE",
"476 0 LINE",
"613 0 LINE"
);
},
{
closed = 1;
nodes = (
"491 21 LINE",
"449 150 LINE",
"166 150 LINE",
"123 21 LINE",
"32 21 LINE",
"250 679 LINE",
"364 679 LINE",
"583 21 LINE"
);
},
{
closed = 1;
nodes = (
"318 546 LINE",
"298 546 LINE",
"390 260 LINE",
"225 260 LINE"
);
},
{
closed = 1;
nodes = (
"419 239 LINE",
"318 552 LINE",
"298 552 LINE",
"195 239 LINE"
);
}
);
width = 615;
},
{
anchors = (
{
name = ogonek;
position = "{529, 21}";
},
{
name = top;
position = "{301, 667}";
}
);
associatedMasterId = "9540212F-C873-4039-900D-544C1C7D2862";
layerId = "8A6EA3AA-E1C3-4792-8F80-7787C2446294";
leftMetricsKey = "=A";
rightMetricsKey = "=A";
paths = (
{
closed = 1;
nodes = (
"353 878 LINE",
"359 858 OFFCURVE",
"345 818 OFFCURVE",
"318 818 CURVE",
"294 818 LINE",
"265 818 OFFCURVE",
"255 853 OFFCURVE",
"259 878 CURVE",
"165 878 LINE",
"162 843 OFFCURVE",
"171 792 OFFCURVE",
"196 766 CURVE",
"196 766 LINE",
"216 742 OFFCURVE",
"251 730 OFFCURVE",
"282 730 CURVE",
"331 730 LINE",
"362 730 OFFCURVE",
"396 742 OFFCURVE",
"418 766 CURVE",
"440 792 OFFCURVE",
"451 842 OFFCURVE",
"448 878 CURVE"
);
},
{
closed = 1;
nodes = (
"425 828 OFFCURVE",
"416 797 OFFCURVE",
"402 780 CURVE",
"384 760 OFFCURVE",
"358 752 OFFCURVE",
"331 752 CURVE",
"282 752 LINE",
"254 752 OFFCURVE",
"229 760 OFFCURVE",
"212 780 CURVE",
"212 780 LINE",
"195 798 OFFCURVE",
"187 828 OFFCURVE",
"186 857 CURVE",
"238 857 LINE",
"241 829 OFFCURVE",
"257 796 OFFCURVE",
"294 796 CURVE",
"318 796 LINE",
"355 796 OFFCURVE",
"372 829 OFFCURVE",
"375 857 CURVE",
"427 857 LINE"
);
},
{
closed = 1;
nodes = (
"379 700 LINE",
"235 700 LINE",
"2 0 LINE",
"138 0 LINE",
"182 129 LINE",
"434 129 LINE",
"476 0 LINE",
"613 0 LINE"
);
},
{
closed = 1;
nodes = (
"491 21 LINE",
"449 150 LINE",
"166 150 LINE",
"123 21 LINE",
"32 21 LINE",
"250 679 LINE",
"364 679 LINE",
"583 21 LINE"
);
},
{
closed = 1;
nodes = (
"318 546 LINE",
"298 546 LINE",
"390 260 LINE",
"225 260 LINE"
);
},
{
closed = 1;
nodes = (
"419 239 LINE",
"318 552 LINE",
"298 552 LINE",
"195 239 LINE"
);
}
);
width = 615;
}
);
leftKerningGroup = A;
leftMetricsKey = A;
rightKerningGroup = A;
rightMetricsKey = A;
unicode = 0102;
},
{
glyphname = Acircumflex;
lastChange = "2018-03-01 09:51:33 +0000";
layers = (
{
anchors = (
{
name = ogonek;
position = "{529, 21}";
},
{
name = top;
position = "{301, 667}";
}
);
layerId = "9540212F-C873-4039-900D-544C1C7D2862";
leftMetricsKey = "=A";
rightMetricsKey = "=A";
paths = (
{
closed = 1;
nodes = (
"461 748 LINE",
"360 878 LINE",
"253 878 LINE",
"152 748 LINE",
"160 730 LINE",
"264 730 LINE",
"306 790 LINE",
"348 730 LINE",
"452 730 LINE"
);
},
{
closed = 1;
nodes = (
"452 752 LINE",
"359 752 LINE",
"306 828 LINE",
"253 752 LINE",
"160 752 LINE",
"169 735 LINE",
"264 857 LINE",
"349 857 LINE",
"444 735 LINE"
);
},
{
closed = 1;
nodes = (
"379 700 LINE",
"235 700 LINE",
"2 0 LINE",
"138 0 LINE",
"182 129 LINE",
"434 129 LINE",
"476 0 LINE",
"613 0 LINE"
);
},
{
closed = 1;
nodes = (
"491 21 LINE",
"449 150 LINE",
"166 150 LINE",
"123 21 LINE",
"32 21 LINE",
"250 679 LINE",
"364 679 LINE",
"583 21 LINE"
);
},
{
closed = 1;
nodes = (
"318 546 LINE",
"298 546 LINE",
"390 260 LINE",
"225 260 LINE"
);
},
{
closed = 1;
nodes = (
"419 239 LINE",
"318 552 LINE",
"298 552 LINE",
"195 239 LINE"
);
}
);
width = 615;
},
{
anchors = (
{
name = ogonek;
position = "{529, 21}";
},
{
name = top;
position = "{301, 667}";
}
);
associatedMasterId = "9540212F-C873-4039-900D-544C1C7D2862";
layerId = "8A6EA3AA-E1C3-4792-8F80-7787C2446294";
leftMetricsKey = "=A";
rightMetricsKey = "=A";
paths = (
{
closed = 1;
nodes = (
"461 748 LINE",
"360 878 LINE",
"253 878 LINE",
"152 748 LINE",
"160 730 LINE",
"264 730 LINE",
"306 790 LINE",
"348 730 LINE",
"452 730 LINE"
);
},
{
closed = 1;
nodes = (
"452 752 LINE",
"359 752 LINE",
"306 828 LINE",
"253 752 LINE",
"160 752 LINE",
"169 735 LINE",
"264 857 LINE",
"349 857 LINE",
"444 735 LINE"
);
},
{
closed = 1;
nodes = (
"379 700 LINE",
"235 700 LINE",
"2 0 LINE",
"138 0 LINE",
"182 129 LINE",
"434 129 LINE",
"476 0 LINE",
"613 0 LINE"
);
},
{
closed = 1;
nodes = (
"491 21 LINE",
"449 150 LINE",
"166 150 LINE",
"123 21 LINE",
"32 21 LINE",
"250 679 LINE",
"364 679 LINE",
"583 21 LINE"
);
},
{
closed = 1;
nodes = (
"318 546 LINE",
"298 546 LINE",
"390 260 LINE",
"225 260 LINE"
);
},
{
closed = 1;
nodes = (
"419 239 LINE",
"318 552 LINE",
"298 552 LINE",
"195 239 LINE"
);
}
);
width = 615;
}
);
leftKerningGroup = A;
leftMetricsKey = A;
rightKerningGroup = A;
rightMetricsKey = A;
unicode = 00C2;
},
{
glyphname = Adieresis;
lastChange = "2018-03-01 09:51:33 +0000";
layers = (
{
anchors = (
{
name = ogonek;
position = "{529, 21}";
},
{
name = top;
position = "{301, 667}";
}
);
layerId = "9540212F-C873-4039-900D-544C1C7D2862";
leftMetricsKey = "=A";
rightMetricsKey = "=A";
paths = (
{
closed = 1;
nodes = (
"270 878 LINE",
"147 878 LINE",
"147 753 LINE",
"270 753 LINE"
);
},
{
closed = 1;
nodes = (
"168 774 LINE",
"168 857 LINE",
"249 857 LINE",
"249 774 LINE"
);
},
{
closed = 1;
nodes = (
"467 878 LINE",
"344 878 LINE",
"344 753 LINE",
"467 753 LINE"
);
},
{
closed = 1;
nodes = (
"365 774 LINE",
"365 857 LINE",
"446 857 LINE",
"446 774 LINE"
);
},
{
closed = 1;
nodes = (
"379 700 LINE",
"235 700 LINE",
"2 0 LINE",
"138 0 LINE",
"182 129 LINE",
"434 129 LINE",
"476 0 LINE",
"613 0 LINE"
);
},
{
closed = 1;
nodes = (
"491 21 LINE",
"449 150 LINE",
"166 150 LINE",
"123 21 LINE",
"32 21 LINE",
"250 679 LINE",
"364 679 LINE",
"583 21 LINE"
);
},
{
closed = 1;
nodes = (
"318 546 LINE",
"298 546 LINE",
"390 260 LINE",
"225 260 LINE"
);
},
{
closed = 1;
nodes = (
"419 239 LINE",
"318 552 LINE",
"298 552 LINE",
"195 239 LINE"
);
}
);
width = 615;
},
{
anchors = (
{
name = ogonek;
position = "{529, 21}";
},
{
name = top;
position = "{301, 667}";
}
);
associatedMasterId = "9540212F-C873-4039-900D-544C1C7D2862";
layerId = "8A6EA3AA-E1C3-4792-8F80-7787C2446294";
leftMetricsKey = "=A";
rightMetricsKey = "=A";
paths = (
{
closed = 1;
nodes = (
"270 878 LINE",
"147 878 LINE",
"147 753 LINE",
"270 753 LINE"
);
},
{
closed = 1;
nodes = (
"168 774 LINE",
"168 857 LINE",
"249 857 LINE",
"249 774 LINE"
);
},
{
closed = 1;
nodes = (
"467 878 LINE",
"344 878 LINE",
"344 753 LINE",
"467 753 LINE"
);
},
{
closed = 1;
nodes = (
"365 774 LINE",
"365 857 LINE",
"446 857 LINE",
"446 774 LINE"
);
},
{
closed = 1;
nodes = (
"379 700 LINE",
"235 700 LINE",
"2 0 LINE",
"138 0 LINE",
"182 129 LINE",
"434 129 LINE",
"476 0 LINE",
"613 0 LINE"
);
},
{
closed = 1;
nodes = (
"491 21 LINE",
"449 150 LINE",
"166 150 LINE",
"123 21 LINE",
"32 21 LINE",
"250 679 LINE",
"364 679 LINE",
"583 21 LINE"
);
},
{
closed = 1;
nodes = (
"318 546 LINE",
"298 546 LINE",
"390 260 LINE",
"225 260 LINE"
);
},
{
closed = 1;
nodes = (
"419 239 LINE",
"318 552 LINE",
"298 552 LINE",
"195 239 LINE"
);
}
);
width = 615;
}
);
leftKerningGroup = A;
leftMetricsKey = A;
rightKerningGroup = A;
rightMetricsKey = A;
unicode = 00C4;
},
{
glyphname = Agrave;
lastChange = "2018-03-01 09:51:33 +0000";
layers = (
{
anchors = (
{
name = ogonek;
position = "{529, 21}";
},
{
name = top;
position = "{301, 667}";
}
);
layerId = "9540212F-C873-4039-900D-544C1C7D2862";
leftMetricsKey = "=A";
rightMetricsKey = "=A";
paths = (
{
closed = 1;
nodes = (
"363 747 LINE",
"281 878 LINE",
"149 878 LINE",
"141 860 LINE",
"253 730 LINE",
"354 730 LINE"
);
},
{
closed = 1;
nodes = (
"354 752 LINE",
"263 752 LINE",
"157 874 LINE",
"149 857 LINE",
"269 857 LINE",
"345 735 LINE"
);
},
{
closed = 1;
nodes = (
"379 700 LINE",
"235 700 LINE",
"2 0 LINE",
"138 0 LINE",
"182 129 LINE",
"434 129 LINE",
"476 0 LINE",
"613 0 LINE"
);
},
{
closed = 1;
nodes = (
"491 21 LINE",
"449 150 LINE",
"166 150 LINE",
"123 21 LINE",
"32 21 LINE",
"250 679 LINE",
"364 679 LINE",
"583 21 LINE"
);
},
{
closed = 1;
nodes = (
"318 546 LINE",
"298 546 LINE",
"390 260 LINE",
"225 260 LINE"
);
},
{
closed = 1;
nodes = (
"419 239 LINE",
"318 552 LINE",
"298 552 LINE",
"195 239 LINE"
);
}
);
width = 615;
},
{
anchors = (
{
name = ogonek;
position = "{529, 21}";
},
{
name = top;
position = "{301, 667}";
}
);
associatedMasterId = "9540212F-C873-4039-900D-544C1C7D2862";
layerId = "8A6EA3AA-E1C3-4792-8F80-7787C2446294";
leftMetricsKey = "=A";
rightMetricsKey = "=A";
paths = (
{
closed = 1;
nodes = (
"363 747 LINE",
"281 878 LINE",
"149 878 LINE",
"141 860 LINE",
"253 730 LINE",
"354 730 LINE"
);
},
{
closed = 1;
nodes = (
"354 752 LINE",
"263 752 LINE",
"157 874 LINE",
"149 857 LINE",
"269 857 LINE",
"345 735 LINE"
);
},
{
closed = 1;
nodes = (
"379 700 LINE",
"235 700 LINE",
"2 0 LINE",
"138 0 LINE",
"182 129 LINE",
"434 129 LINE",
"476 0 LINE",
"613 0 LINE"
);
},
{
closed = 1;
nodes = (
"491 21 LINE",
"449 150 LINE",
"166 150 LINE",
"123 21 LINE",
"32 21 LINE",
"250 679 LINE",
"364 679 LINE",
"583 21 LINE"
);
},
{
closed = 1;
nodes = (
"318 546 LINE",
"298 546 LINE",
"390 260 LINE",
"225 260 LINE"
);
},
{
closed = 1;
nodes = (
"419 239 LINE",
"318 552 LINE",
"298 552 LINE",
"195 239 LINE"
);
}
);
width = 615;
}
);
leftKerningGroup = A;
leftMetricsKey = A;
rightKerningGroup = A;
rightMetricsKey = A;
unicode = 00C0;
},
{
glyphname = Amacron;
lastChange = "2018-03-01 09:51:33 +0000";
layers = (
{
anchors = (
{
name = ogonek;
position = "{529, 21}";
},
{
name = top;
position = "{301, 667}";
}
);
layerId = "9540212F-C873-4039-900D-544C1C7D2862";
leftMetricsKey = "=A";
rightMetricsKey = "=A";
paths = (
{
closed = 1;
nodes = (
"453 842 LINE",
"159 842 LINE",
"159 751 LINE",
"453 751 LINE"
);
},
{
closed = 1;
nodes = (
"181 772 LINE",
"181 821 LINE",
"432 821 LINE",
"432 772 LINE"
);
},
{
closed = 1;
nodes = (
"379 700 LINE",
"235 700 LINE",
"2 0 LINE",
"138 0 LINE",
"182 129 LINE",
"434 129 LINE",
"476 0 LINE",
"613 0 LINE"
);
},
{
closed = 1;
nodes = (
"491 21 LINE",
"449 150 LINE",
"166 150 LINE",
"123 21 LINE",
"32 21 LINE",
"250 679 LINE",
"364 679 LINE",
"583 21 LINE"
);
},
{
closed = 1;
nodes = (
"318 546 LINE",
"298 546 LINE",
"390 260 LINE",
"225 260 LINE"
);
},
{
closed = 1;
nodes = (
"419 239 LINE",
"318 552 LINE",
"298 552 LINE",
"195 239 LINE"
);
}
);
width = 615;
},
{
anchors = (
{
name = ogonek;
position = "{529, 21}";
},
{
name = top;
position = "{301, 667}";
}
);
associatedMasterId = "9540212F-C873-4039-900D-544C1C7D2862";
layerId = "8A6EA3AA-E1C3-4792-8F80-7787C2446294";
leftMetricsKey = "=A";
rightMetricsKey = "=A";
paths = (
{
closed = 1;
nodes = (
"453 842 LINE",
"159 842 LINE",
"159 751 LINE",
"453 751 LINE"
);
},
{
closed = 1;
nodes = (
"181 772 LINE",
"181 821 LINE",
"432 821 LINE",
"432 772 LINE"
);
},
{
closed = 1;
nodes = (
"379 700 LINE",
"235 700 LINE",
"2 0 LINE",
"138 0 LINE",
"182 129 LINE",
"434 129 LINE",
"476 0 LINE",
"613 0 LINE"
);
},
{
closed = 1;
nodes = (
"491 21 LINE",
"449 150 LINE",
"166 150 LINE",
"123 21 LINE",
"32 21 LINE",
"250 679 LINE",
"364 679 LINE",
"583 21 LINE"
);
},
{
closed = 1;
nodes = (
"318 546 LINE",
"298 546 LINE",
"390 260 LINE",
"225 260 LINE"
);
},
{
closed = 1;
nodes = (
"419 239 LINE",
"318 552 LINE",
"298 552 LINE",
"195 239 LINE"
);
}
);
width = 615;
}
);
leftKerningGroup = A;
leftMetricsKey = A;
rightKerningGroup = A;
rightMetricsKey = A;
unicode = 0100;
},
{
glyphname = Aogonek;
lastChange = "2018-03-01 09:51:33 +0000";
layers = (
{
anchors = (
{
name = ogonek;
position = "{529, 21}";
},
{
name = top;
position = "{301, 667}";
}
);
layerId = "9540212F-C873-4039-900D-544C1C7D2862";
leftMetricsKey = "=A";
rightMetricsKey = "=A";
paths = (
{
closed = 1;
nodes = (
"608 -70 LINE",
"571 -92 OFFCURVE",
"549 -102 OFFCURVE",
"531 -99 CURVE",
"518 -97 OFFCURVE",
"514 -95 OFFCURVE",
"514 -84 CURVE",
"514 -67 OFFCURVE",
"570 -22 OFFCURVE",
"610 7 CURVE",
"379 700 LINE",
"235 700 LINE",
"2 0 LINE",
"138 0 LINE",
"182 129 LINE",
"434 129 LINE",
"471 15 LINE",
"438 -11 OFFCURVE",
"403 -55 OFFCURVE",
"403 -103 CURVE",
"403 -136 OFFCURVE",
"416 -162 OFFCURVE",
"437 -177 CURVE",
"457 -190 OFFCURVE",
"482 -197 OFFCURVE",
"510 -197 CURVE",
"542 -197 OFFCURVE",
"596 -185 OFFCURVE",
"653 -137 CURVE"
);
},
{
closed = 1;
nodes = (
"577 -168 OFFCURVE",
"537 -176 OFFCURVE",
"510 -176 CURVE",
"485 -176 OFFCURVE",
"466 -171 OFFCURVE",
"449 -159 CURVE",
"432 -148 OFFCURVE",
"424 -131 OFFCURVE",
"424 -103 CURVE",
"424 -57 OFFCURVE",
"462 -15 OFFCURVE",
"496 6 CURVE",
"449 150 LINE",
"166 150 LINE",
"123 21 LINE",
"32 21 LINE",
"250 679 LINE",
"364 679 LINE",
"585 15 LINE",
"544 -15 OFFCURVE",
"493 -56 OFFCURVE",
"493 -84 CURVE",
"493 -110 OFFCURVE",
"513 -118 OFFCURVE",
"528 -120 CURVE",
"549 -123 OFFCURVE",
"573 -114 OFFCURVE",
"601 -99 CURVE",
"624 -132 LINE"
);
},
{
closed = 1;
nodes = (
"225 260 LINE",
"318 546 LINE",
"298 546 LINE",
"390 260 LINE"
);
},
{
closed = 1;
nodes = (
"318 552 LINE",
"298 552 LINE",
"195 239 LINE",
"419 239 LINE"
);
}
);
width = 655;
},
{
anchors = (
{
name = ogonek;
position = "{529, 21}";
},
{
name = top;
position = "{301, 667}";
}
);
associatedMasterId = "9540212F-C873-4039-900D-544C1C7D2862";
layerId = "8A6EA3AA-E1C3-4792-8F80-7787C2446294";
leftMetricsKey = "=A";
rightMetricsKey = "=A";
paths = (
{
closed = 1;
nodes = (
"608 -70 LINE",
"571 -92 OFFCURVE",
"549 -102 OFFCURVE",
"531 -99 CURVE",
"518 -97 OFFCURVE",
"514 -95 OFFCURVE",
"514 -84 CURVE",
"514 -67 OFFCURVE",
"570 -22 OFFCURVE",
"610 7 CURVE",
"379 700 LINE",
"235 700 LINE",
"2 0 LINE",
"138 0 LINE",
"182 129 LINE",
"434 129 LINE",
"471 15 LINE",
"438 -11 OFFCURVE",
"403 -55 OFFCURVE",
"403 -103 CURVE",
"403 -136 OFFCURVE",
"416 -162 OFFCURVE",
"437 -177 CURVE",
"457 -190 OFFCURVE",
"482 -197 OFFCURVE",
"510 -197 CURVE",
"542 -197 OFFCURVE",
"596 -185 OFFCURVE",
"653 -137 CURVE"
);
},
{
closed = 1;
nodes = (
"577 -168 OFFCURVE",
"537 -176 OFFCURVE",
"510 -176 CURVE",
"485 -176 OFFCURVE",
"466 -171 OFFCURVE",
"449 -159 CURVE",
"432 -148 OFFCURVE",
"424 -131 OFFCURVE",
"424 -103 CURVE",
"424 -57 OFFCURVE",
"462 -15 OFFCURVE",
"496 6 CURVE",
"449 150 LINE",
"166 150 LINE",
"123 21 LINE",
"32 21 LINE",
"250 679 LINE",
"364 679 LINE",
"585 15 LINE",
"544 -15 OFFCURVE",
"493 -56 OFFCURVE",
"493 -84 CURVE",
"493 -110 OFFCURVE",
"513 -118 OFFCURVE",
"528 -120 CURVE",
"549 -123 OFFCURVE",
"573 -114 OFFCURVE",
"601 -99 CURVE",
"624 -132 LINE"
);
},
{
closed = 1;
nodes = (
"225 260 LINE",
"318 546 LINE",
"298 546 LINE",
"390 260 LINE"
);
},
{
closed = 1;
nodes = (
"318 552 LINE",
"298 552 LINE",
"195 239 LINE",
"419 239 LINE"
);
}
);
width = 655;
}
);
leftKerningGroup = A;
leftMetricsKey = A;
rightKerningGroup = A;
rightMetricsKey = A;
unicode = 0104;
},
{
glyphname = Aring;
lastChange = "2018-03-01 09:51:33 +0000";
layers = (
{
anchors = (
{
name = ogonek;
position = "{529, 21}";
},
{
name = top;
position = "{301, 667}";
}
);
layerId = "9540212F-C873-4039-900D-544C1C7D2862";
leftMetricsKey = "=A";
rightMetricsKey = "=A";
paths = (
{
closed = 1;
nodes = (
"259 893 OFFCURVE",
"219 852 OFFCURVE",
"219 803 CURVE",
"219 756 OFFCURVE",
"260 716 OFFCURVE",
"307 716 CURVE",
"355 716 OFFCURVE",
"395 756 OFFCURVE",
"395 803 CURVE",
"395 852 OFFCURVE",
"355 893 OFFCURVE",
"308 893 CURVE"
);
},
{
closed = 1;
nodes = (
"344 872 OFFCURVE",
"374 841 OFFCURVE",
"374 803 CURVE",
"374 767 OFFCURVE",
"344 737 OFFCURVE",
"307 737 CURVE",
"270 737 OFFCURVE",
"240 767 OFFCURVE",
"240 803 CURVE",
"240 841 OFFCURVE",
"270 872 OFFCURVE",
"308 872 CURVE"
);
},
{
closed = 1;
nodes = (
"321 827 OFFCURVE",
"331 817 OFFCURVE",
"331 805 CURVE",
"331 792 OFFCURVE",
"319 781 OFFCURVE",
"307 781 CURVE",
"294 781 OFFCURVE",
"284 791 OFFCURVE",
"284 803 CURVE",
"284 818 OFFCURVE",
"294 827 OFFCURVE",
"308 827 CURVE"
);
},
{
closed = 1;
nodes = (
"283 849 OFFCURVE",
"262 829 OFFCURVE",
"262 803 CURVE",
"262 780 OFFCURVE",
"283 760 OFFCURVE",
"307 760 CURVE",
"329 760 OFFCURVE",
"352 780 OFFCURVE",
"352 805 CURVE",
"352 828 OFFCURVE",
"332 849 OFFCURVE",
"308 849 CURVE"
);
},
{
closed = 1;
nodes = (
"379 700 LINE",
"235 700 LINE",
"2 0 LINE",
"138 0 LINE",
"182 129 LINE",
"434 129 LINE",
"476 0 LINE",
"613 0 LINE"
);
},
{
closed = 1;
nodes = (
"491 21 LINE",
"449 150 LINE",
"166 150 LINE",
"123 21 LINE",
"32 21 LINE",
"250 679 LINE",
"364 679 LINE",
"583 21 LINE"
);
},
{
closed = 1;
nodes = (
"318 546 LINE",
"298 546 LINE",
"390 260 LINE",
"225 260 LINE"
);
},
{
closed = 1;
nodes = (
"419 239 LINE",
"318 552 LINE",
"298 552 LINE",
"195 239 LINE"
);
}
);
width = 615;
},
{
anchors = (
{
name = ogonek;
position = "{529, 21}";
},
{
name = top;
position = "{301, 667}";
}
);
associatedMasterId = "9540212F-C873-4039-900D-544C1C7D2862";
layerId = "8A6EA3AA-E1C3-4792-8F80-7787C2446294";
leftMetricsKey = "=A";
rightMetricsKey = "=A";
paths = (
{
closed = 1;
nodes = (
"259 893 OFFCURVE",
"219 852 OFFCURVE",
"219 803 CURVE",
"219 756 OFFCURVE",
"260 716 OFFCURVE",
"307 716 CURVE",
"355 716 OFFCURVE",
"395 756 OFFCURVE",
"395 803 CURVE",
"395 852 OFFCURVE",
"355 893 OFFCURVE",
"308 893 CURVE"
);
},
{
closed = 1;
nodes = (
"344 872 OFFCURVE",
"374 841 OFFCURVE",
"374 803 CURVE",
"374 767 OFFCURVE",
"344 737 OFFCURVE",
"307 737 CURVE",
"270 737 OFFCURVE",
"240 767 OFFCURVE",
"240 803 CURVE",
"240 841 OFFCURVE",
"270 872 OFFCURVE",
"308 872 CURVE"
);
},
{
closed = 1;
nodes = (
"321 827 OFFCURVE",
"331 817 OFFCURVE",
"331 805 CURVE",
"331 792 OFFCURVE",
"319 781 OFFCURVE",
"307 781 CURVE",
"294 781 OFFCURVE",
"284 791 OFFCURVE",
"284 803 CURVE",
"284 818 OFFCURVE",
"294 827 OFFCURVE",
"308 827 CURVE"
);
},
{
closed = 1;
nodes = (
"283 849 OFFCURVE",
"262 829 OFFCURVE",
"262 803 CURVE",
"262 780 OFFCURVE",
"283 760 OFFCURVE",
"307 760 CURVE",
"329 760 OFFCURVE",
"352 780 OFFCURVE",
"352 805 CURVE",
"352 828 OFFCURVE",
"332 849 OFFCURVE",
"308 849 CURVE"
);
},
{
closed = 1;
nodes = (
"379 700 LINE",
"235 700 LINE",
"2 0 LINE",
"138 0 LINE",
"182 129 LINE",
"434 129 LINE",
"476 0 LINE",
"613 0 LINE"
);
},
{
closed = 1;
nodes = (
"491 21 LINE",
"449 150 LINE",
"166 150 LINE",
"123 21 LINE",
"32 21 LINE",
"250 679 LINE",
"364 679 LINE",
"583 21 LINE"
);
},
{
closed = 1;
nodes = (
"318 546 LINE",
"298 546 LINE",
"390 260 LINE",
"225 260 LINE"
);
},
{
closed = 1;
nodes = (
"419 239 LINE",
"318 552 LINE",
"298 552 LINE",
"195 239 LINE"
);
}
);
width = 615;
}
);
leftKerningGroup = A;
leftMetricsKey = A;
rightKerningGroup = A;
rightMetricsKey = A;
unicode = 00C5;
},
{
glyphname = Aringacute;
lastChange = "2018-03-01 09:51:33 +0000";
layers = (
{
anchors = (
{
name = ogonek;
position = "{529, 21}";
},
{
name = top;
position = "{301, 667}";
}
);
guideLines = (
{
position = "{334, 886}";
}
);
layerId = "9540212F-C873-4039-900D-544C1C7D2862";
leftMetricsKey = "=A";
rightMetricsKey = "=A";
paths = (
{
closed = 1;
nodes = (
"385 684 LINE",
"392 697 OFFCURVE",
"397 713 OFFCURVE",
"397 728 CURVE",
"397 747 OFFCURVE",
"391 766 OFFCURVE",
"381 780 CURVE",
"458 863 LINE",
"450 881 LINE",
"318 881 LINE",
"275 812 LINE",
"243 799 OFFCURVE",
"220 765 OFFCURVE",
"220 728 CURVE",
"220 714 OFFCURVE",
"224 699 OFFCURVE",
"231 687 CURVE",
"2 0 LINE",
"138 0 LINE",
"182 129 LINE",
"434 129 LINE",
"476 0 LINE",
"613 0 LINE"
);
},
{
closed = 1;
nodes = (
"491 21 LINE",
"449 150 LINE",
"166 150 LINE",
"123 21 LINE",
"32 21 LINE",
"254 690 LINE",
"246 702 OFFCURVE",
"242 714 OFFCURVE",
"242 728 CURVE",
"242 759 OFFCURVE",
"262 786 OFFCURVE",
"289 794 CURVE",
"330 859 LINE",
"450 859 LINE",
"443 877 LINE",
"353 781 LINE",
"368 767 OFFCURVE",
"376 750 OFFCURVE",
"376 728 CURVE",
"376 712 OFFCURVE",
"371 699 OFFCURVE",
"361 687 CURVE",
"583 21 LINE"
);
},
{
closed = 1;
nodes = (
"323 753 OFFCURVE",
"333 742 OFFCURVE",
"333 730 CURVE",
"333 717 OFFCURVE",
"321 706 OFFCURVE",
"309 706 CURVE",
"296 706 OFFCURVE",
"285 717 OFFCURVE",
"285 728 CURVE",
"285 743 OFFCURVE",
"296 753 OFFCURVE",
"310 753 CURVE"
);
},
{
closed = 1;
nodes = (
"285 774 OFFCURVE",
"264 754 OFFCURVE",
"264 728 CURVE",
"264 706 OFFCURVE",
"285 685 OFFCURVE",
"309 685 CURVE",
"331 685 OFFCURVE",
"354 705 OFFCURVE",
"354 730 CURVE",
"354 753 OFFCURVE",
"334 774 OFFCURVE",
"310 774 CURVE"
);
},
{
closed = 1;
nodes = (
"225 260 LINE",
"318 546 LINE",
"298 546 LINE",
"390 260 LINE"
);
},
{
closed = 1;
nodes = (
"318 552 LINE",
"298 552 LINE",
"195 239 LINE",
"419 239 LINE"
);
}
);
width = 615;
},
{
anchors = (
{
name = ogonek;
position = "{529, 21}";
},
{
name = top;
position = "{301, 667}";
}
);
associatedMasterId = "9540212F-C873-4039-900D-544C1C7D2862";
guideLines = (
{
position = "{334, 886}";
}
);
layerId = "8A6EA3AA-E1C3-4792-8F80-7787C2446294";
leftMetricsKey = "=A";
rightMetricsKey = "=A";
paths = (
{
closed = 1;
nodes = (
"385 684 LINE",
"392 697 OFFCURVE",
"397 713 OFFCURVE",
"397 728 CURVE",
"397 747 OFFCURVE",
"391 766 OFFCURVE",
"381 780 CURVE",
"458 863 LINE",
"450 881 LINE",
"318 881 LINE",
"275 812 LINE",
"243 799 OFFCURVE",
"220 765 OFFCURVE",
"220 728 CURVE",
"220 714 OFFCURVE",
"224 699 OFFCURVE",
"231 687 CURVE",
"2 0 LINE",
"138 0 LINE",
"182 129 LINE",
"434 129 LINE",
"476 0 LINE",
"613 0 LINE"
);
},
{
closed = 1;
nodes = (
"491 21 LINE",
"449 150 LINE",
"166 150 LINE",
"123 21 LINE",
"32 21 LINE",
"254 690 LINE",
"246 702 OFFCURVE",
"242 714 OFFCURVE",
"242 728 CURVE",
"242 759 OFFCURVE",
"262 786 OFFCURVE",
"289 794 CURVE",
"330 859 LINE",
"450 859 LINE",
"443 877 LINE",
"353 781 LINE",
"368 767 OFFCURVE",
"376 750 OFFCURVE",
"376 728 CURVE",
"376 712 OFFCURVE",
"371 699 OFFCURVE",
"361 687 CURVE",
"583 21 LINE"
);
},
{
closed = 1;
nodes = (
"323 753 OFFCURVE",
"333 742 OFFCURVE",
"333 730 CURVE",
"333 717 OFFCURVE",
"321 706 OFFCURVE",
"309 706 CURVE",
"296 706 OFFCURVE",
"285 717 OFFCURVE",
"285 728 CURVE",
"285 743 OFFCURVE",
"296 753 OFFCURVE",
"310 753 CURVE"
);
},
{
closed = 1;
nodes = (
"285 774 OFFCURVE",
"264 754 OFFCURVE",
"264 728 CURVE",
"264 706 OFFCURVE",
"285 685 OFFCURVE",
"309 685 CURVE",
"331 685 OFFCURVE",
"354 705 OFFCURVE",
"354 730 CURVE",
"354 753 OFFCURVE",
"334 774 OFFCURVE",
"310 774 CURVE"
);
},
{
closed = 1;
nodes = (
"225 260 LINE",
"318 546 LINE",
"298 546 LINE",
"390 260 LINE"
);
},
{
closed = 1;
nodes = (
"318 552 LINE",
"298 552 LINE",
"195 239 LINE",
"419 239 LINE"
);
}
);
width = 615;
}
);
leftKerningGroup = A;
leftMetricsKey = A;
rightKerningGroup = A;
rightMetricsKey = A;
unicode = 01FA;
},
{
glyphname = Atilde;
lastChange = "2018-03-01 09:51:33 +0000";
layers = (
{
anchors = (
{
name = ogonek;
position = "{529, 21}";
},
{
name = top;
position = "{301, 667}";
}
);
layerId = "9540212F-C873-4039-900D-544C1C7D2862";
leftMetricsKey = "=A";
rightMetricsKey = "=A";
paths = (
{
closed = 1;
nodes = (
"406 882 LINE",
"377 838 OFFCURVE",
"375 835 OFFCURVE",
"359 835 CURVE",
"352 835 OFFCURVE",
"347 836 OFFCURVE",
"332 846 CURVE",
"288 869 OFFCURVE",
"273 871 OFFCURVE",
"255 871 CURVE",
"219 871 OFFCURVE",
"154 832 OFFCURVE",
"140 774 CURVE",
"214 730 LINE",
"235 769 OFFCURVE",
"240 774 OFFCURVE",
"255 774 CURVE",
"266 774 OFFCURVE",
"270 773 OFFCURVE",
"300 758 CURVE",
"299 758 LINE",
"324 744 OFFCURVE",
"342 738 OFFCURVE",
"360 738 CURVE",
"396 738 OFFCURVE",
"447 767 OFFCURVE",
"474 826 CURVE"
);
},
{
closed = 1;
nodes = (
"423 778 OFFCURVE",
"388 760 OFFCURVE",
"360 760 CURVE",
"345 760 OFFCURVE",
"332 764 OFFCURVE",
"310 776 CURVE",
"310 777 LINE",
"278 793 OFFCURVE",
"270 795 OFFCURVE",
"255 795 CURVE",
"235 795 OFFCURVE",
"222 786 OFFCURVE",
"206 760 CURVE",
"166 783 LINE",
"183 823 OFFCURVE",
"230 850 OFFCURVE",
"255 850 CURVE",
"271 850 OFFCURVE",
"281 848 OFFCURVE",
"321 828 CURVE",
"340 815 OFFCURVE",
"351 814 OFFCURVE",
"359 814 CURVE",
"378 814 OFFCURVE",
"390 820 OFFCURVE",
"411 851 CURVE",
"447 821 LINE"
);
},
{
closed = 1;
nodes = (
"379 700 LINE",
"235 700 LINE",
"2 0 LINE",
"138 0 LINE",
"182 129 LINE",
"434 129 LINE",
"476 0 LINE",
"613 0 LINE"
);
},
{
closed = 1;
nodes = (
"491 21 LINE",
"449 150 LINE",
"166 150 LINE",
"123 21 LINE",
"32 21 LINE",
"250 679 LINE",
"364 679 LINE",
"583 21 LINE"
);
},
{
closed = 1;
nodes = (
"318 546 LINE",
"298 546 LINE",
"390 260 LINE",
"225 260 LINE"
);
},
{
closed = 1;
nodes = (
"419 239 LINE",
"318 552 LINE",
"298 552 LINE",
"195 239 LINE"
);
}
);
width = 615;
},
{
anchors = (
{
name = ogonek;
position = "{529, 21}";
},
{
name = top;
position = "{301, 667}";
}
);
associatedMasterId = "9540212F-C873-4039-900D-544C1C7D2862";
layerId = "8A6EA3AA-E1C3-4792-8F80-7787C2446294";
leftMetricsKey = "=A";
rightMetricsKey = "=A";
paths = (
{
closed = 1;
nodes = (
"406 882 LINE",
"377 838 OFFCURVE",
"375 835 OFFCURVE",
"359 835 CURVE",
"352 835 OFFCURVE",
"347 836 OFFCURVE",
"332 846 CURVE",
"288 869 OFFCURVE",
"273 871 OFFCURVE",
"255 871 CURVE",
"219 871 OFFCURVE",
"154 832 OFFCURVE",
"140 774 CURVE",
"214 730 LINE",
"235 769 OFFCURVE",
"240 774 OFFCURVE",
"255 774 CURVE",
"266 774 OFFCURVE",
"270 773 OFFCURVE",
"300 758 CURVE",
"299 758 LINE",
"324 744 OFFCURVE",
"342 738 OFFCURVE",
"360 738 CURVE",
"396 738 OFFCURVE",
"447 767 OFFCURVE",
"474 826 CURVE"
);
},
{
closed = 1;
nodes = (
"423 778 OFFCURVE",
"388 760 OFFCURVE",
"360 760 CURVE",
"345 760 OFFCURVE",
"332 764 OFFCURVE",
"310 776 CURVE",
"310 777 LINE",
"278 793 OFFCURVE",
"270 795 OFFCURVE",
"255 795 CURVE",
"235 795 OFFCURVE",
"222 786 OFFCURVE",
"206 760 CURVE",
"166 783 LINE",
"183 823 OFFCURVE",
"230 850 OFFCURVE",
"255 850 CURVE",
"271 850 OFFCURVE",
"281 848 OFFCURVE",
"321 828 CURVE",
"340 815 OFFCURVE",
"351 814 OFFCURVE",
"359 814 CURVE",
"378 814 OFFCURVE",
"390 820 OFFCURVE",
"411 851 CURVE",
"447 821 LINE"
);
},
{
closed = 1;
nodes = (
"379 700 LINE",
"235 700 LINE",
"2 0 LINE",
"138 0 LINE",
"182 129 LINE",
"434 129 LINE",
"476 0 LINE",
"613 0 LINE"
);
},
{
closed = 1;
nodes = (
"491 21 LINE",
"449 150 LINE",
"166 150 LINE",
"123 21 LINE",
"32 21 LINE",
"250 679 LINE",
"364 679 LINE",
"583 21 LINE"
);
},
{
closed = 1;
nodes = (
"318 546 LINE",
"298 546 LINE",
"390 260 LINE",
"225 260 LINE"
);
},
{
closed = 1;
nodes = (
"419 239 LINE",
"318 552 LINE",
"298 552 LINE",
"195 239 LINE"
);
}
);
width = 615;
}
);
leftKerningGroup = A;
leftMetricsKey = A;
rightKerningGroup = A;
rightMetricsKey = A;
unicode = 00C3;
},
{
glyphname = AE;
lastChange = "2018-03-01 09:51:33 +0000";
layers = (
{
anchors = (
{
name = top;
position = "{398, 687}";
}
);
guideLines = (
{
angle = 65;
position = "{0, 0}";
},
{
angle = 65;
position = "{123, 0}";
},
{
position = "{-605, 545}";
}
);
layerId = "9540212F-C873-4039-900D-544C1C7D2862";
rightMetricsKey = "=E";
paths = (
{
closed = 1;
nodes = (
"794 570 LINE",
"794 700 LINE",
"309 700 LINE",
"-17 0 LINE",
"126 0 LINE",
"185 127 LINE",
"366 127 LINE",
"366 0 LINE",
"794 0 LINE",
"794 130 LINE",
"504 130 LINE",
"504 291 LINE",
"794 291 LINE",
"794 421 LINE",
"504 421 LINE",
"504 570 LINE"
);
},
{
closed = 1;
nodes = (
"483 400 LINE",
"773 400 LINE",
"773 312 LINE",
"483 312 LINE",
"482 109 LINE",
"773 109 LINE",
"773 21 LINE",
"387 21 LINE",
"387 148 LINE",
"172 148 LINE",
"113 21 LINE",
"17 21 LINE",
"323 679 LINE",
"773 679 LINE",
"773 592 LINE",
"483 592 LINE"
);
},
{
closed = 1;
nodes = (
"246 257 LINE",
"386 557 LINE",
"366 562 LINE",
"366 257 LINE"
);
},
{
closed = 1;
nodes = (
"387 562 LINE",
"367 566 LINE",
"212 236 LINE",
"387 236 LINE"
);
}
);
width = 850;
},
{
anchors = (
{
name = top;
position = "{398, 687}";
}
);
associatedMasterId = "9540212F-C873-4039-900D-544C1C7D2862";
guideLines = (
{
angle = 65;
position = "{0, 0}";
},
{
angle = 65;
position = "{123, 0}";
},
{
position = "{-605, 545}";
}
);
layerId = "8A6EA3AA-E1C3-4792-8F80-7787C2446294";
rightMetricsKey = "=E";
paths = (
{
closed = 1;
nodes = (
"794 570 LINE",
"794 700 LINE",
"309 700 LINE",
"-17 0 LINE",
"126 0 LINE",
"185 127 LINE",
"366 127 LINE",
"366 0 LINE",
"794 0 LINE",
"794 130 LINE",
"504 130 LINE",
"504 291 LINE",
"794 291 LINE",
"794 421 LINE",
"504 421 LINE",
"504 570 LINE"
);
},
{
closed = 1;
nodes = (
"483 400 LINE",
"773 400 LINE",
"773 312 LINE",
"483 312 LINE",
"482 109 LINE",
"773 109 LINE",
"773 21 LINE",
"387 21 LINE",
"387 148 LINE",
"172 148 LINE",
"113 21 LINE",
"17 21 LINE",
"323 679 LINE",
"773 679 LINE",
"773 592 LINE",
"483 592 LINE"
);
},
{
closed = 1;
nodes = (
"246 257 LINE",
"386 557 LINE",
"366 562 LINE",
"366 257 LINE"
);
},
{
closed = 1;
nodes = (
"387 562 LINE",
"367 566 LINE",
"212 236 LINE",
"387 236 LINE"
);
}
);
width = 850;
}
);
leftKerningGroup = AE;
rightKerningGroup = E;
rightMetricsKey = E;
unicode = 00C6;
},
{
glyphname = AEacute;
lastChange = "2018-03-01 09:51:33 +0000";
layers = (
{
anchors = (
{
name = top;
position = "{398, 687}";
}
);
layerId = "9540212F-C873-4039-900D-544C1C7D2862";
paths = (
{
closed = 1;
nodes = (
"571 880 LINE",
"563 897 LINE",
"431 897 LINE",
"348 766 LINE",
"357 750 LINE",
"458 750 LINE"
);
},
{
closed = 1;
nodes = (
"357 771 LINE",
"366 755 LINE",
"442 876 LINE",
"563 876 LINE",
"555 894 LINE",
"448 771 LINE"
);
},
{
closed = 1;
nodes = (
"794 570 LINE",
"794 700 LINE",
"309 700 LINE",
"-17 0 LINE",
"126 0 LINE",
"185 127 LINE",
"366 127 LINE",
"366 0 LINE",
"794 0 LINE",
"794 130 LINE",
"504 130 LINE",
"504 291 LINE",
"794 291 LINE",
"794 421 LINE",
"504 421 LINE",
"504 570 LINE"
);
},
{
closed = 1;
nodes = (
"483 400 LINE",
"773 400 LINE",
"773 312 LINE",
"483 312 LINE",
"482 109 LINE",
"773 109 LINE",
"773 21 LINE",
"387 21 LINE",
"387 148 LINE",
"172 148 LINE",
"113 21 LINE",
"17 21 LINE",
"323 679 LINE",
"773 679 LINE",
"773 592 LINE",
"483 592 LINE"
);
},
{
closed = 1;
nodes = (
"246 257 LINE",
"386 557 LINE",
"366 562 LINE",
"366 257 LINE"
);
},
{
closed = 1;
nodes = (
"387 562 LINE",
"367 566 LINE",
"212 236 LINE",
"387 236 LINE"
);
}
);
width = 842;
},
{
anchors = (
{
name = top;
position = "{398, 687}";
}
);
associatedMasterId = "9540212F-C873-4039-900D-544C1C7D2862";
layerId = "8A6EA3AA-E1C3-4792-8F80-7787C2446294";
paths = (
{
closed = 1;
nodes = (
"571 880 LINE",
"563 897 LINE",
"431 897 LINE",
"348 766 LINE",
"357 750 LINE",
"458 750 LINE"
);
},
{
closed = 1;
nodes = (
"357 771 LINE",
"366 755 LINE",
"442 876 LINE",
"563 876 LINE",
"555 894 LINE",
"448 771 LINE"
);
},
{
closed = 1;
nodes = (
"794 570 LINE",
"794 700 LINE",
"309 700 LINE",
"-17 0 LINE",
"126 0 LINE",
"185 127 LINE",
"366 127 LINE",
"366 0 LINE",
"794 0 LINE",
"794 130 LINE",
"504 130 LINE",
"504 291 LINE",
"794 291 LINE",
"794 421 LINE",
"504 421 LINE",
"504 570 LINE"
);
},
{
closed = 1;
nodes = (
"483 400 LINE",
"773 400 LINE",
"773 312 LINE",
"483 312 LINE",
"482 109 LINE",
"773 109 LINE",
"773 21 LINE",
"387 21 LINE",
"387 148 LINE",
"172 148 LINE",
"113 21 LINE",
"17 21 LINE",
"323 679 LINE",
"773 679 LINE",
"773 592 LINE",
"483 592 LINE"
);
},
{
closed = 1;
nodes = (
"246 257 LINE",
"386 557 LINE",
"366 562 LINE",
"366 257 LINE"
);
},
{
closed = 1;
nodes = (
"387 562 LINE",
"367 566 LINE",
"212 236 LINE",
"387 236 LINE"
);
}
);
width = 842;
}
);
leftKerningGroup = AE;
rightKerningGroup = E;
unicode = 01FC;
},
{
color = 5;
glyphname = B;
lastChange = "2018-03-01 09:51:33 +0000";
layers = (
{
layerId = "9540212F-C873-4039-900D-544C1C7D2862";
paths = (
{
closed = 1;
nodes = (
"70 700 LINE",
"70 0 LINE",
"345 0 LINE",
"487 0 OFFCURVE",
"582 85 OFFCURVE",
"582 211 CURVE",
"582 290 OFFCURVE",
"543 346 OFFCURVE",
"481 373 CURVE",
"482 354 LINE",
"529 382 OFFCURVE",
"557 429 OFFCURVE",
"557 495 CURVE",
"557 618 OFFCURVE",
"462 700 OFFCURVE",
"319 700 CURVE"
);
},
{
closed = 1;
nodes = (
"452 679 OFFCURVE",
"535 606 OFFCURVE",
"535 495 CURVE",
"535 435 OFFCURVE",
"513 398 OFFCURVE",
"471 373 CURVE",
"472 354 LINE",
"528 330 OFFCURVE",
"561 282 OFFCURVE",
"561 211 CURVE",
"561 97 OFFCURVE",
"477 21 OFFCURVE",
"345 21 CURVE",
"91 21 LINE",
"91 679 LINE",
"319 679 LINE"
);
},
{
closed = 1;
nodes = (
"308 570 LINE",
"397 570 OFFCURVE",
"419 544 OFFCURVE",
"419 494 CURVE",
"419 447 OFFCURVE",
"397 421 OFFCURVE",
"308 421 CURVE",
"208 421 LINE",
"208 570 LINE"
);
},
{
closed = 1;
nodes = (
"186 399 LINE",
"308 399 LINE",
"409 399 OFFCURVE",
"440 437 OFFCURVE",
"440 494 CURVE",
"440 554 OFFCURVE",
"409 591 OFFCURVE",
"308 591 CURVE",
"186 591 LINE"
);
},
{
closed = 1;
nodes = (
"333 291 LINE",
"422 291 OFFCURVE",
"444 262 OFFCURVE",
"444 211 CURVE",
"444 162 OFFCURVE",
"421 130 OFFCURVE",
"333 130 CURVE",
"208 130 LINE",
"208 291 LINE"
);
},
{
closed = 1;
nodes = (
"186 109 LINE",
"333 109 LINE",
"434 109 OFFCURVE",
"466 153 OFFCURVE",
"466 211 CURVE",
"466 271 OFFCURVE",
"434 312 OFFCURVE",
"333 312 CURVE",
"186 312 LINE"
);
}
);
width = 623;
},
{
associatedMasterId = "9540212F-C873-4039-900D-544C1C7D2862";
layerId = "8A6EA3AA-E1C3-4792-8F80-7787C2446294";
paths = (
{
closed = 1;
nodes = (
"70 700 LINE",
"70 0 LINE",
"345 0 LINE",
"487 0 OFFCURVE",
"582 85 OFFCURVE",
"582 211 CURVE",
"582 290 OFFCURVE",
"543 346 OFFCURVE",
"481 373 CURVE",
"482 354 LINE",
"529 382 OFFCURVE",
"557 429 OFFCURVE",
"557 495 CURVE",
"557 618 OFFCURVE",
"462 700 OFFCURVE",
"319 700 CURVE"
);
},
{
closed = 1;
nodes = (
"452 679 OFFCURVE",
"535 606 OFFCURVE",
"535 495 CURVE",
"535 435 OFFCURVE",
"513 398 OFFCURVE",
"471 373 CURVE",
"472 354 LINE",
"528 330 OFFCURVE",
"561 282 OFFCURVE",
"561 211 CURVE",
"561 97 OFFCURVE",
"477 21 OFFCURVE",
"345 21 CURVE",
"91 21 LINE",
"91 679 LINE",
"319 679 LINE"
);
},
{
closed = 1;
nodes = (
"308 570 LINE",
"397 570 OFFCURVE",
"419 544 OFFCURVE",
"419 494 CURVE",
"419 447 OFFCURVE",
"397 421 OFFCURVE",
"308 421 CURVE",
"208 421 LINE",
"208 570 LINE"
);
},
{
closed = 1;
nodes = (
"186 399 LINE",
"308 399 LINE",
"409 399 OFFCURVE",
"440 437 OFFCURVE",
"440 494 CURVE",
"440 554 OFFCURVE",
"409 591 OFFCURVE",
"308 591 CURVE",
"186 591 LINE"
);
},
{
closed = 1;
nodes = (
"333 291 LINE",
"422 291 OFFCURVE",
"444 262 OFFCURVE",
"444 211 CURVE",
"444 162 OFFCURVE",
"421 130 OFFCURVE",
"333 130 CURVE",
"208 130 LINE",
"208 291 LINE"
);
},
{
closed = 1;
nodes = (
"186 109 LINE",
"333 109 LINE",
"434 109 OFFCURVE",
"466 153 OFFCURVE",
"466 211 CURVE",
"466 271 OFFCURVE",
"434 312 OFFCURVE",
"333 312 CURVE",
"186 312 LINE"
);
}
);
width = 623;
}
);
leftKerningGroup = I;
rightKerningGroup = B;
unicode = 0042;
},
{
color = 5;
glyphname = C;
lastChange = "2018-03-01 09:51:33 +0000";
layers = (
{
anchors = (
{
name = bottom;
position = "{349, 0}";
},
{
name = top;
position = "{349, 690}";
}
);
guideLines = (
{
position = "{892, 716}";
},
{
position = "{878, -16}";
},
{
position = "{901, 604}";
},
{
position = "{840, 96}";
},
{
angle = -16;
position = "{49, 350}";
},
{
position = "{778, -179}";
},
{
angle = 16;
position = "{49, 350}";
},
{
position = "{2, 690}";
}
);
layerId = "9540212F-C873-4039-900D-544C1C7D2862";
paths = (
{
closed = 1;
nodes = (
"179 716 OFFCURVE",
"47 586 OFFCURVE",
"47 385 CURVE",
"47 316 LINE",
"47 115 OFFCURVE",
"179 -16 OFFCURVE",
"349 -16 CURVE",
"481 -16 OFFCURVE",
"593 65 OFFCURVE",
"633 196 CURVE",
"500 234 LINE",
"478 160 OFFCURVE",
"426 114 OFFCURVE",
"348 114 CURVE",
"239 114 OFFCURVE",
"185 202 OFFCURVE",
"185 333 CURVE",
"185 365 LINE",
"185 496 OFFCURVE",
"239 586 OFFCURVE",
"348 586 CURVE",
"426 586 OFFCURVE",
"477 539 OFFCURVE",
"499 465 CURVE",
"633 504 LINE",
"593 635 OFFCURVE",
"481 716 OFFCURVE",
"349 716 CURVE"
);
},
{
closed = 1;
nodes = (
"465 695 OFFCURVE",
"563 628 OFFCURVE",
"606 518 CURVE",
"513 491 LINE",
"485 561 OFFCURVE",
"429 607 OFFCURVE",
"348 607 CURVE",
"225 607 OFFCURVE",
"163 503 OFFCURVE",
"163 365 CURVE",
"163 333 LINE",
"163 194 OFFCURVE",
"225 93 OFFCURVE",
"348 93 CURVE",
"429 93 OFFCURVE",
"486 138 OFFCURVE",
"514 208 CURVE",
"606 182 LINE",
"563 72 OFFCURVE",
"465 5 OFFCURVE",
"349 5 CURVE",
"190 5 OFFCURVE",
"68 126 OFFCURVE",
"68 316 CURVE",
"68 385 LINE",
"68 575 OFFCURVE",
"190 695 OFFCURVE",
"349 695 CURVE"
);
}
);
width = 667;
},
{
associatedMasterId = "9540212F-C873-4039-900D-544C1C7D2862";
guideLines = (
{
position = "{813, 716}";
},
{
position = "{799, -16}";
},
{
position = "{822, 604}";
},
{
position = "{761, 96}";
},
{
angle = -16;
position = "{-30, 350}";
},
{
position = "{699, -179}";
},
{
angle = 16;
position = "{-30, 350}";
}
);
layerId = "F0CD8407-6EF4-49AA-927E-B33300DA89C7";
name = "schmalles C";
paths = (
{
closed = 1;
nodes = (
"409 225 LINE",
"391 145 OFFCURVE",
"347 96 OFFCURVE",
"269 96 CURVE SMOOTH",
"161 96 OFFCURVE",
"120 192 OFFCURVE",
"120 333 CURVE SMOOTH",
"120 365 LINE SMOOTH",
"120 505 OFFCURVE",
"161 604 OFFCURVE",
"269 604 CURVE SMOOTH",
"345 604 OFFCURVE",
"389 555 OFFCURVE",
"408 477 CURVE",
"523 509 LINE",
"486 639 OFFCURVE",
"388 716 OFFCURVE",
"270 716 CURVE SMOOTH",
"117 716 OFFCURVE",
"0 588 OFFCURVE",
"0 386 CURVE SMOOTH",
"0 315 LINE SMOOTH",
"0 113 OFFCURVE",
"117 -16 OFFCURVE",
"270 -16 CURVE SMOOTH",
"388 -16 OFFCURVE",
"486 62 OFFCURVE",
"523 192 CURVE"
);
}
);
width = 579;
},
{
associatedMasterId = "9540212F-C873-4039-900D-544C1C7D2862";
guideLines = (
{
position = "{813, 716}";
},
{
position = "{799, -16}";
},
{
position = "{822, 604}";
},
{
position = "{761, 96}";
},
{
angle = -16;
position = "{-30, 350}";
},
{
position = "{699, -179}";
},
{
angle = 16;
position = "{-30, 350}";
}
);
layerId = "6D4B4E15-3374-44F9-860A-4717A7853F0C";
name = "schmalles O";
paths = (
{
closed = 1;
nodes = (
"117 716 OFFCURVE",
"0 588 OFFCURVE",
"0 386 CURVE SMOOTH",
"0 315 LINE SMOOTH",
"0 113 OFFCURVE",
"117 -16 OFFCURVE",
"270 -16 CURVE SMOOTH",
"422 -16 OFFCURVE",
"540 113 OFFCURVE",
"540 315 CURVE SMOOTH",
"540 386 LINE SMOOTH",
"540 588 OFFCURVE",
"422 716 OFFCURVE",
"270 716 CURVE SMOOTH"
);
},
{
closed = 1;
nodes = (
"424 192 OFFCURVE",
"377 96 OFFCURVE",
"269 96 CURVE SMOOTH",
"161 96 OFFCURVE",
"116 192 OFFCURVE",
"116 333 CURVE SMOOTH",
"116 365 LINE SMOOTH",
"116 505 OFFCURVE",
"161 604 OFFCURVE",
"269 604 CURVE SMOOTH",
"377 604 OFFCURVE",
"424 505 OFFCURVE",
"424 365 CURVE SMOOTH",
"424 333 LINE SMOOTH"
);
}
);
width = 579;
},
{
associatedMasterId = "9540212F-C873-4039-900D-544C1C7D2862";
guideLines = (
{
position = "{813, 716}";
},
{
position = "{799, -16}";
},
{
position = "{822, 604}";
},
{
position = "{761, 96}";
},
{
angle = -16;
position = "{-30, 350}";
},
{
position = "{699, -179}";
},
{
angle = 16;
position = "{-30, 350}";
}
);
layerId = "EAA454AA-73F9-4FD0-B295-98AC28DBE6E3";
name = "schmalles C2";
paths = (
{
closed = 1;
nodes = (
"435 217 LINE",
"414 142 OFFCURVE",
"369 96 OFFCURVE",
"294 96 CURVE SMOOTH",
"186 96 OFFCURVE",
"141 192 OFFCURVE",
"141 333 CURVE SMOOTH",
"141 365 LINE SMOOTH",
"141 505 OFFCURVE",
"186 604 OFFCURVE",
"294 604 CURVE SMOOTH",
"368 604 OFFCURVE",
"413 558 OFFCURVE",
"435 483 CURVE",
"547 515 LINE",
"508 641 OFFCURVE",
"411 716 OFFCURVE",
"295 716 CURVE SMOOTH",
"142 716 OFFCURVE",
"25 588 OFFCURVE",
"25 386 CURVE SMOOTH",
"25 315 LINE SMOOTH",
"25 113 OFFCURVE",
"142 -16 OFFCURVE",
"295 -16 CURVE SMOOTH",
"411 -16 OFFCURVE",
"507 59 OFFCURVE",
"546 184 CURVE"
);
}
);
width = 579;
},
{
associatedMasterId = "9540212F-C873-4039-900D-544C1C7D2862";
guideLines = (
{
position = "{813, 716}";
},
{
position = "{799, -16}";
},
{
position = "{822, 604}";
},
{
position = "{761, 96}";
},
{
angle = -16;
position = "{-30, 350}";
},
{
position = "{699, -179}";
},
{
angle = 16;
position = "{-30, 350}";
}
);
layerId = "1F0248F0-3863-4A4A-979F-2CD4AA294ECF";
name = "mehrschmall O";
paths = (
{
closed = 1;
nodes = (
"111 716 OFFCURVE",
"0 588 OFFCURVE",
"0 386 CURVE SMOOTH",
"0 315 LINE SMOOTH",
"0 113 OFFCURVE",
"111 -16 OFFCURVE",
"257 -16 CURVE SMOOTH",
"402 -16 OFFCURVE",
"514 113 OFFCURVE",
"514 315 CURVE SMOOTH",
"514 386 LINE SMOOTH",
"514 588 OFFCURVE",
"402 716 OFFCURVE",
"257 716 CURVE SMOOTH"
);
},
{
closed = 1;
nodes = (
"398 192 OFFCURVE",
"355 96 OFFCURVE",
"256 96 CURVE SMOOTH",
"157 96 OFFCURVE",
"116 192 OFFCURVE",
"116 333 CURVE SMOOTH",
"116 365 LINE SMOOTH",
"116 505 OFFCURVE",
"157 604 OFFCURVE",
"256 604 CURVE SMOOTH",
"355 604 OFFCURVE",
"398 505 OFFCURVE",
"398 365 CURVE SMOOTH",
"398 333 LINE SMOOTH"
);
}
);
width = 579;
},
{
associatedMasterId = "9540212F-C873-4039-900D-544C1C7D2862";
guideLines = (
{
position = "{813, 716}";
},
{
position = "{799, -16}";
},
{
position = "{822, 604}";
},
{
position = "{761, 96}";
},
{
angle = -16;
position = "{-30, 350}";
},
{
position = "{699, -179}";
},
{
angle = 16;
position = "{-30, 350}";
}
);
layerId = "7EF26123-3D0B-491E-A2DE-0B3B6147914A";
name = "mehrschmall  C";
paths = (
{
closed = 1;
nodes = (
"388 230 LINE",
"371 147 OFFCURVE",
"328 96 OFFCURVE",
"256 96 CURVE SMOOTH",
"157 96 OFFCURVE",
"116 192 OFFCURVE",
"116 333 CURVE SMOOTH",
"116 365 LINE SMOOTH",
"116 505 OFFCURVE",
"157 604 OFFCURVE",
"256 604 CURVE SMOOTH",
"328 604 OFFCURVE",
"370 552 OFFCURVE",
"388 470 CURVE",
"500 502 LINE",
"466 636 OFFCURVE",
"372 716 OFFCURVE",
"257 716 CURVE SMOOTH",
"111 716 OFFCURVE",
"0 588 OFFCURVE",
"0 386 CURVE SMOOTH",
"0 315 LINE SMOOTH",
"0 113 OFFCURVE",
"111 -16 OFFCURVE",
"257 -16 CURVE SMOOTH",
"372 -16 OFFCURVE",
"466 65 OFFCURVE",
"500 198 CURVE"
);
}
);
width = 579;
},
{
associatedMasterId = "9540212F-C873-4039-900D-544C1C7D2862";
guideLines = (
{
position = "{813, 716}";
},
{
position = "{799, -16}";
},
{
position = "{822, 604}";
},
{
position = "{761, 96}";
},
{
angle = -20;
position = "{-30, 350}";
},
{
position = "{699, -179}";
},
{
angle = 20;
position = "{-30, 350}";
}
);
layerId = "617D98D1-339B-4C54-8282-7508C2980B59";
name = EURO;
paths = (
{
closed = 1;
nodes = (
"420 187 LINE",
"391 130 OFFCURVE",
"340 96 OFFCURVE",
"269 96 CURVE SMOOTH",
"149 96 OFFCURVE",
"90 192 OFFCURVE",
"90 333 CURVE SMOOTH",
"90 365 LINE SMOOTH",
"90 505 OFFCURVE",
"149 604 OFFCURVE",
"269 604 CURVE SMOOTH",
"340 604 OFFCURVE",
"389 570 OFFCURVE",
"418 514 CURVE",
"533 554 LINE",
"483 656 OFFCURVE",
"385 716 OFFCURVE",
"270 716 CURVE SMOOTH",
"100 716 OFFCURVE",
"-30 588 OFFCURVE",
"-30 386 CURVE SMOOTH",
"-30 315 LINE SMOOTH",
"-30 113 OFFCURVE",
"100 -16 OFFCURVE",
"270 -16 CURVE SMOOTH",
"385 -16 OFFCURVE",
"483 44 OFFCURVE",
"533 145 CURVE"
);
}
);
width = 579;
},
{
anchors = (
{
name = bottom;
position = "{349, 0}";
},
{
name = top;
position = "{349, 690}";
}
);
associatedMasterId = "9540212F-C873-4039-900D-544C1C7D2862";
guideLines = (
{
position = "{892, 716}";
},
{
position = "{878, -16}";
},
{
position = "{901, 604}";
},
{
position = "{840, 96}";
},
{
angle = -16;
position = "{49, 350}";
},
{
position = "{778, -179}";
},
{
angle = 16;
position = "{49, 350}";
},
{
position = "{2, 690}";
}
);
layerId = "524D291B-E703-465D-98E3-C58BE0FD73CC";
leftMetricsKey = "=O";
name = "Regular Mar 20 14, 01:28";
paths = (
{
closed = 1;
nodes = (
"628 516 LINE",
"585 641 OFFCURVE",
"478 716 OFFCURVE",
"349 716 CURVE SMOOTH",
"179 716 OFFCURVE",
"49 588 OFFCURVE",
"49 386 CURVE SMOOTH",
"49 315 LINE SMOOTH",
"49 113 OFFCURVE",
"179 -16 OFFCURVE",
"349 -16 CURVE SMOOTH",
"478 -16 OFFCURVE",
"585 59 OFFCURVE",
"628 184 CURVE",
"512 217 LINE",
"486 142 OFFCURVE",
"431 96 OFFCURVE",
"348 96 CURVE SMOOTH",
"228 96 OFFCURVE",
"169 192 OFFCURVE",
"169 333 CURVE SMOOTH",
"169 365 LINE SMOOTH",
"169 505 OFFCURVE",
"228 604 OFFCURVE",
"348 604 CURVE SMOOTH",
"431 604 OFFCURVE",
"485 557 OFFCURVE",
"511 482 CURVE"
);
}
);
width = 667;
},
{
associatedMasterId = "9540212F-C873-4039-900D-544C1C7D2862";
guideLines = (
{
position = "{813, 716}";
},
{
position = "{799, -16}";
},
{
position = "{822, 604}";
},
{
position = "{761, 96}";
},
{
angle = -20;
position = "{-30, 350}";
},
{
position = "{699, -179}";
},
{
angle = 20;
position = "{-30, 350}";
}
);
layerId = "F60C2CDE-9E4E-4C1C-924F-D6FFEAB4B961";
name = "EURO Mar 20 14, 01:52";
paths = (
{
closed = 1;
nodes = (
"427 183 LINE",
"397 124 OFFCURVE",
"344 88 OFFCURVE",
"269 88 CURVE SMOOTH",
"144 88 OFFCURVE",
"83 187 OFFCURVE",
"83 332 CURVE SMOOTH",
"83 365 LINE SMOOTH",
"83 510 OFFCURVE",
"144 612 OFFCURVE",
"269 612 CURVE SMOOTH",
"343 612 OFFCURVE",
"396 576 OFFCURVE",
"426 516 CURVE",
"533 555 LINE",
"483 657 OFFCURVE",
"385 716 OFFCURVE",
"270 716 CURVE SMOOTH",
"100 716 OFFCURVE",
"-30 588 OFFCURVE",
"-30 386 CURVE SMOOTH",
"-30 315 LINE SMOOTH",
"-30 113 OFFCURVE",
"100 -16 OFFCURVE",
"270 -16 CURVE SMOOTH",
"384 -16 OFFCURVE",
"481 43 OFFCURVE",
"532 144 CURVE"
);
}
);
width = 579;
},
{
anchors = (
{
name = bottom;
position = "{349, 0}";
},
{
name = top;
position = "{349, 690}";
}
);
associatedMasterId = "9540212F-C873-4039-900D-544C1C7D2862";
guideLines = (
{
position = "{892, 716}";
},
{
position = "{878, -16}";
},
{
position = "{901, 604}";
},
{
position = "{840, 96}";
},
{
angle = -16;
position = "{49, 350}";
},
{
position = "{778, -179}";
},
{
angle = 16;
position = "{49, 350}";
},
{
position = "{2, 690}";
}
);
layerId = "8A6EA3AA-E1C3-4792-8F80-7787C2446294";
paths = (
{
closed = 1;
nodes = (
"179 716 OFFCURVE",
"47 586 OFFCURVE",
"47 385 CURVE",
"47 316 LINE",
"47 115 OFFCURVE",
"179 -16 OFFCURVE",
"349 -16 CURVE",
"481 -16 OFFCURVE",
"593 65 OFFCURVE",
"633 196 CURVE",
"500 234 LINE",
"478 160 OFFCURVE",
"426 114 OFFCURVE",
"348 114 CURVE",
"239 114 OFFCURVE",
"185 202 OFFCURVE",
"185 333 CURVE",
"185 365 LINE",
"185 496 OFFCURVE",
"239 586 OFFCURVE",
"348 586 CURVE",
"426 586 OFFCURVE",
"477 539 OFFCURVE",
"499 465 CURVE",
"633 504 LINE",
"593 635 OFFCURVE",
"481 716 OFFCURVE",
"349 716 CURVE"
);
},
{
closed = 1;
nodes = (
"465 695 OFFCURVE",
"563 628 OFFCURVE",
"606 518 CURVE",
"513 491 LINE",
"485 561 OFFCURVE",
"429 607 OFFCURVE",
"348 607 CURVE",
"225 607 OFFCURVE",
"163 503 OFFCURVE",
"163 365 CURVE",
"163 333 LINE",
"163 194 OFFCURVE",
"225 93 OFFCURVE",
"348 93 CURVE",
"429 93 OFFCURVE",
"486 138 OFFCURVE",
"514 208 CURVE",
"606 182 LINE",
"563 72 OFFCURVE",
"465 5 OFFCURVE",
"349 5 CURVE",
"190 5 OFFCURVE",
"68 126 OFFCURVE",
"68 316 CURVE",
"68 385 LINE",
"68 575 OFFCURVE",
"190 695 OFFCURVE",
"349 695 CURVE"
);
}
);
width = 667;
},
{
associatedMasterId = "9540212F-C873-4039-900D-544C1C7D2862";
guideLines = (
{
position = "{813, 716}";
},
{
position = "{799, -16}";
},
{
position = "{822, 604}";
},
{
position = "{761, 96}";
},
{
angle = -16;
position = "{-30, 350}";
},
{
position = "{699, -179}";
},
{
angle = 16;
position = "{-30, 350}";
}
);
layerId = "4F1196FE-DBF8-45D9-AEF8-AEE0217B63B1";
name = "schmalles C";
paths = (
{
closed = 1;
nodes = (
"409 225 LINE",
"391 145 OFFCURVE",
"347 96 OFFCURVE",
"269 96 CURVE SMOOTH",
"161 96 OFFCURVE",
"120 192 OFFCURVE",
"120 333 CURVE SMOOTH",
"120 365 LINE SMOOTH",
"120 505 OFFCURVE",
"161 604 OFFCURVE",
"269 604 CURVE SMOOTH",
"345 604 OFFCURVE",
"389 555 OFFCURVE",
"408 477 CURVE",
"523 509 LINE",
"486 639 OFFCURVE",
"388 716 OFFCURVE",
"270 716 CURVE SMOOTH",
"117 716 OFFCURVE",
"0 588 OFFCURVE",
"0 386 CURVE SMOOTH",
"0 315 LINE SMOOTH",
"0 113 OFFCURVE",
"117 -16 OFFCURVE",
"270 -16 CURVE SMOOTH",
"388 -16 OFFCURVE",
"486 62 OFFCURVE",
"523 192 CURVE"
);
}
);
width = 579;
},
{
associatedMasterId = "9540212F-C873-4039-900D-544C1C7D2862";
guideLines = (
{
position = "{813, 716}";
},
{
position = "{799, -16}";
},
{
position = "{822, 604}";
},
{
position = "{761, 96}";
},
{
angle = -16;
position = "{-30, 350}";
},
{
position = "{699, -179}";
},
{
angle = 16;
position = "{-30, 350}";
}
);
layerId = "8E5A8ADB-5055-4201-809F-CFEF7B066D3A";
name = "schmalles O";
paths = (
{
closed = 1;
nodes = (
"117 716 OFFCURVE",
"0 588 OFFCURVE",
"0 386 CURVE SMOOTH",
"0 315 LINE SMOOTH",
"0 113 OFFCURVE",
"117 -16 OFFCURVE",
"270 -16 CURVE SMOOTH",
"422 -16 OFFCURVE",
"540 113 OFFCURVE",
"540 315 CURVE SMOOTH",
"540 386 LINE SMOOTH",
"540 588 OFFCURVE",
"422 716 OFFCURVE",
"270 716 CURVE SMOOTH"
);
},
{
closed = 1;
nodes = (
"424 192 OFFCURVE",
"377 96 OFFCURVE",
"269 96 CURVE SMOOTH",
"161 96 OFFCURVE",
"116 192 OFFCURVE",
"116 333 CURVE SMOOTH",
"116 365 LINE SMOOTH",
"116 505 OFFCURVE",
"161 604 OFFCURVE",
"269 604 CURVE SMOOTH",
"377 604 OFFCURVE",
"424 505 OFFCURVE",
"424 365 CURVE SMOOTH",
"424 333 LINE SMOOTH"
);
}
);
width = 579;
},
{
associatedMasterId = "9540212F-C873-4039-900D-544C1C7D2862";
guideLines = (
{
position = "{813, 716}";
},
{
position = "{799, -16}";
},
{
position = "{822, 604}";
},
{
position = "{761, 96}";
},
{
angle = -16;
position = "{-30, 350}";
},
{
position = "{699, -179}";
},
{
angle = 16;
position = "{-30, 350}";
}
);
layerId = "2734D00E-EC44-47AE-8AB1-CB804E8C168F";
name = "schmalles C2";
paths = (
{
closed = 1;
nodes = (
"435 217 LINE",
"414 142 OFFCURVE",
"369 96 OFFCURVE",
"294 96 CURVE SMOOTH",
"186 96 OFFCURVE",
"141 192 OFFCURVE",
"141 333 CURVE SMOOTH",
"141 365 LINE SMOOTH",
"141 505 OFFCURVE",
"186 604 OFFCURVE",
"294 604 CURVE SMOOTH",
"368 604 OFFCURVE",
"413 558 OFFCURVE",
"435 483 CURVE",
"547 515 LINE",
"508 641 OFFCURVE",
"411 716 OFFCURVE",
"295 716 CURVE SMOOTH",
"142 716 OFFCURVE",
"25 588 OFFCURVE",
"25 386 CURVE SMOOTH",
"25 315 LINE SMOOTH",
"25 113 OFFCURVE",
"142 -16 OFFCURVE",
"295 -16 CURVE SMOOTH",
"411 -16 OFFCURVE",
"507 59 OFFCURVE",
"546 184 CURVE"
);
}
);
width = 579;
},
{
associatedMasterId = "9540212F-C873-4039-900D-544C1C7D2862";
guideLines = (
{
position = "{813, 716}";
},
{
position = "{799, -16}";
},
{
position = "{822, 604}";
},
{
position = "{761, 96}";
},
{
angle = -16;
position = "{-30, 350}";
},
{
position = "{699, -179}";
},
{
angle = 16;
position = "{-30, 350}";
}
);
layerId = "D7542BDB-193D-4426-9CA0-88BFC3C4D493";
name = "mehrschmall O";
paths = (
{
closed = 1;
nodes = (
"111 716 OFFCURVE",
"0 588 OFFCURVE",
"0 386 CURVE SMOOTH",
"0 315 LINE SMOOTH",
"0 113 OFFCURVE",
"111 -16 OFFCURVE",
"257 -16 CURVE SMOOTH",
"402 -16 OFFCURVE",
"514 113 OFFCURVE",
"514 315 CURVE SMOOTH",
"514 386 LINE SMOOTH",
"514 588 OFFCURVE",
"402 716 OFFCURVE",
"257 716 CURVE SMOOTH"
);
},
{
closed = 1;
nodes = (
"398 192 OFFCURVE",
"355 96 OFFCURVE",
"256 96 CURVE SMOOTH",
"157 96 OFFCURVE",
"116 192 OFFCURVE",
"116 333 CURVE SMOOTH",
"116 365 LINE SMOOTH",
"116 505 OFFCURVE",
"157 604 OFFCURVE",
"256 604 CURVE SMOOTH",
"355 604 OFFCURVE",
"398 505 OFFCURVE",
"398 365 CURVE SMOOTH",
"398 333 LINE SMOOTH"
);
}
);
width = 579;
},
{
associatedMasterId = "9540212F-C873-4039-900D-544C1C7D2862";
guideLines = (
{
position = "{813, 716}";
},
{
position = "{799, -16}";
},
{
position = "{822, 604}";
},
{
position = "{761, 96}";
},
{
angle = -16;
position = "{-30, 350}";
},
{
position = "{699, -179}";
},
{
angle = 16;
position = "{-30, 350}";
}
);
layerId = "233CFE64-3759-48E8-8F1C-C76D9E3A22E5";
name = "mehrschmall  C";
paths = (
{
closed = 1;
nodes = (
"388 230 LINE",
"371 147 OFFCURVE",
"328 96 OFFCURVE",
"256 96 CURVE SMOOTH",
"157 96 OFFCURVE",
"116 192 OFFCURVE",
"116 333 CURVE SMOOTH",
"116 365 LINE SMOOTH",
"116 505 OFFCURVE",
"157 604 OFFCURVE",
"256 604 CURVE SMOOTH",
"328 604 OFFCURVE",
"370 552 OFFCURVE",
"388 470 CURVE",
"500 502 LINE",
"466 636 OFFCURVE",
"372 716 OFFCURVE",
"257 716 CURVE SMOOTH",
"111 716 OFFCURVE",
"0 588 OFFCURVE",
"0 386 CURVE SMOOTH",
"0 315 LINE SMOOTH",
"0 113 OFFCURVE",
"111 -16 OFFCURVE",
"257 -16 CURVE SMOOTH",
"372 -16 OFFCURVE",
"466 65 OFFCURVE",
"500 198 CURVE"
);
}
);
width = 579;
},
{
associatedMasterId = "9540212F-C873-4039-900D-544C1C7D2862";
guideLines = (
{
position = "{813, 716}";
},
{
position = "{799, -16}";
},
{
position = "{822, 604}";
},
{
position = "{761, 96}";
},
{
angle = -20;
position = "{-30, 350}";
},
{
position = "{699, -179}";
},
{
angle = 20;
position = "{-30, 350}";
}
);
layerId = "140A60D6-9669-444F-AC66-F6C5C281D35D";
name = EURO;
paths = (
{
closed = 1;
nodes = (
"420 187 LINE",
"391 130 OFFCURVE",
"340 96 OFFCURVE",
"269 96 CURVE SMOOTH",
"149 96 OFFCURVE",
"90 192 OFFCURVE",
"90 333 CURVE SMOOTH",
"90 365 LINE SMOOTH",
"90 505 OFFCURVE",
"149 604 OFFCURVE",
"269 604 CURVE SMOOTH",
"340 604 OFFCURVE",
"389 570 OFFCURVE",
"418 514 CURVE",
"533 554 LINE",
"483 656 OFFCURVE",
"385 716 OFFCURVE",
"270 716 CURVE SMOOTH",
"100 716 OFFCURVE",
"-30 588 OFFCURVE",
"-30 386 CURVE SMOOTH",
"-30 315 LINE SMOOTH",
"-30 113 OFFCURVE",
"100 -16 OFFCURVE",
"270 -16 CURVE SMOOTH",
"385 -16 OFFCURVE",
"483 44 OFFCURVE",
"533 145 CURVE"
);
}
);
width = 579;
},
{
anchors = (
{
name = bottom;
position = "{349, 0}";
},
{
name = top;
position = "{349, 690}";
}
);
associatedMasterId = "9540212F-C873-4039-900D-544C1C7D2862";
guideLines = (
{
position = "{892, 716}";
},
{
position = "{878, -16}";
},
{
position = "{901, 604}";
},
{
position = "{840, 96}";
},
{
angle = -16;
position = "{49, 350}";
},
{
position = "{778, -179}";
},
{
angle = 16;
position = "{49, 350}";
},
{
position = "{2, 690}";
}
);
layerId = "37A2F56A-46A7-473E-8E16-3DF2498EDDED";
leftMetricsKey = "=O";
name = "Regular Mar 20 14, 01:28";
paths = (
{
closed = 1;
nodes = (
"628 516 LINE",
"585 641 OFFCURVE",
"478 716 OFFCURVE",
"349 716 CURVE SMOOTH",
"179 716 OFFCURVE",
"49 588 OFFCURVE",
"49 386 CURVE SMOOTH",
"49 315 LINE SMOOTH",
"49 113 OFFCURVE",
"179 -16 OFFCURVE",
"349 -16 CURVE SMOOTH",
"478 -16 OFFCURVE",
"585 59 OFFCURVE",
"628 184 CURVE",
"512 217 LINE",
"486 142 OFFCURVE",
"431 96 OFFCURVE",
"348 96 CURVE SMOOTH",
"228 96 OFFCURVE",
"169 192 OFFCURVE",
"169 333 CURVE SMOOTH",
"169 365 LINE SMOOTH",
"169 505 OFFCURVE",
"228 604 OFFCURVE",
"348 604 CURVE SMOOTH",
"431 604 OFFCURVE",
"485 557 OFFCURVE",
"511 482 CURVE"
);
}
);
width = 667;
},
{
associatedMasterId = "9540212F-C873-4039-900D-544C1C7D2862";
guideLines = (
{
position = "{813, 716}";
},
{
position = "{799, -16}";
},
{
position = "{822, 604}";
},
{
position = "{761, 96}";
},
{
angle = -20;
position = "{-30, 350}";
},
{
position = "{699, -179}";
},
{
angle = 20;
position = "{-30, 350}";
}
);
layerId = "8FE5A383-6CF0-4FCD-B16F-375C975FBB2A";
name = "EURO Mar 20 14, 01:52";
paths = (
{
closed = 1;
nodes = (
"427 183 LINE",
"397 124 OFFCURVE",
"344 88 OFFCURVE",
"269 88 CURVE SMOOTH",
"144 88 OFFCURVE",
"83 187 OFFCURVE",
"83 332 CURVE SMOOTH",
"83 365 LINE SMOOTH",
"83 510 OFFCURVE",
"144 612 OFFCURVE",
"269 612 CURVE SMOOTH",
"343 612 OFFCURVE",
"396 576 OFFCURVE",
"426 516 CURVE",
"533 555 LINE",
"483 657 OFFCURVE",
"385 716 OFFCURVE",
"270 716 CURVE SMOOTH",
"100 716 OFFCURVE",
"-30 588 OFFCURVE",
"-30 386 CURVE SMOOTH",
"-30 315 LINE SMOOTH",
"-30 113 OFFCURVE",
"100 -16 OFFCURVE",
"270 -16 CURVE SMOOTH",
"384 -16 OFFCURVE",
"481 43 OFFCURVE",
"532 144 CURVE"
);
}
);
width = 579;
}
);
leftKerningGroup = O;
rightKerningGroup = C;
unicode = 0043;
},
{
glyphname = Cacute;
lastChange = "2018-03-01 09:51:33 +0000";
layers = (
{
anchors = (
{
name = bottom;
position = "{332, 21}";
},
{
name = top;
position = "{332, 677}";
}
);
guideLines = (
{
position = "{0, 680}";
}
);
layerId = "9540212F-C873-4039-900D-544C1C7D2862";
paths = (
{
closed = 1;
nodes = (
"504 870 LINE",
"496 888 LINE",
"364 888 LINE",
"281 756 LINE",
"290 740 LINE",
"391 740 LINE"
);
},
{
closed = 1;
nodes = (
"290 761 LINE",
"299 745 LINE",
"375 866 LINE",
"496 866 LINE",
"488 884 LINE",
"381 761 LINE"
);
},
{
closed = 1;
nodes = (
"169 716 OFFCURVE",
"37 585 OFFCURVE",
"37 385 CURVE",
"37 316 LINE",
"37 116 OFFCURVE",
"169 -16 OFFCURVE",
"339 -16 CURVE",
"471 -16 OFFCURVE",
"583 66 OFFCURVE",
"623 196 CURVE",
"490 234 LINE",
"468 161 OFFCURVE",
"416 114 OFFCURVE",
"338 114 CURVE",
"229 114 OFFCURVE",
"175 202 OFFCURVE",
"175 334 CURVE",
"175 365 LINE",
"175 496 OFFCURVE",
"229 586 OFFCURVE",
"338 586 CURVE",
"416 586 OFFCURVE",
"467 539 OFFCURVE",
"489 465 CURVE",
"623 504 LINE",
"583 635 OFFCURVE",
"471 716 OFFCURVE",
"339 716 CURVE"
);
},
{
closed = 1;
nodes = (
"455 695 OFFCURVE",
"553 628 OFFCURVE",
"595 518 CURVE",
"502 491 LINE",
"475 561 OFFCURVE",
"418 607 OFFCURVE",
"338 607 CURVE",
"215 607 OFFCURVE",
"153 503 OFFCURVE",
"153 365 CURVE",
"153 334 LINE",
"153 194 OFFCURVE",
"215 93 OFFCURVE",
"338 93 CURVE",
"418 93 OFFCURVE",
"476 138 OFFCURVE",
"503 208 CURVE",
"595 182 LINE",
"553 72 OFFCURVE",
"455 6 OFFCURVE",
"339 6 CURVE",
"180 6 OFFCURVE",
"58 127 OFFCURVE",
"58 316 CURVE",
"58 385 LINE",
"58 575 OFFCURVE",
"180 695 OFFCURVE",
"339 695 CURVE"
);
}
);
width = 647;
},
{
anchors = (
{
name = bottom;
position = "{332, 21}";
},
{
name = top;
position = "{332, 677}";
}
);
associatedMasterId = "9540212F-C873-4039-900D-544C1C7D2862";
guideLines = (
{
position = "{0, 680}";
}
);
layerId = "8A6EA3AA-E1C3-4792-8F80-7787C2446294";
paths = (
{
closed = 1;
nodes = (
"504 870 LINE",
"496 888 LINE",
"364 888 LINE",
"281 756 LINE",
"290 740 LINE",
"391 740 LINE"
);
},
{
closed = 1;
nodes = (
"290 761 LINE",
"299 745 LINE",
"375 866 LINE",
"496 866 LINE",
"488 884 LINE",
"381 761 LINE"
);
},
{
closed = 1;
nodes = (
"169 716 OFFCURVE",
"37 585 OFFCURVE",
"37 385 CURVE",
"37 316 LINE",
"37 116 OFFCURVE",
"169 -16 OFFCURVE",
"339 -16 CURVE",
"471 -16 OFFCURVE",
"583 66 OFFCURVE",
"623 196 CURVE",
"490 234 LINE",
"468 161 OFFCURVE",
"416 114 OFFCURVE",
"338 114 CURVE",
"229 114 OFFCURVE",
"175 202 OFFCURVE",
"175 334 CURVE",
"175 365 LINE",
"175 496 OFFCURVE",
"229 586 OFFCURVE",
"338 586 CURVE",
"416 586 OFFCURVE",
"467 539 OFFCURVE",
"489 465 CURVE",
"623 504 LINE",
"583 635 OFFCURVE",
"471 716 OFFCURVE",
"339 716 CURVE"
);
},
{
closed = 1;
nodes = (
"455 695 OFFCURVE",
"553 628 OFFCURVE",
"595 518 CURVE",
"502 491 LINE",
"475 561 OFFCURVE",
"418 607 OFFCURVE",
"338 607 CURVE",
"215 607 OFFCURVE",
"153 503 OFFCURVE",
"153 365 CURVE",
"153 334 LINE",
"153 194 OFFCURVE",
"215 93 OFFCURVE",
"338 93 CURVE",
"418 93 OFFCURVE",
"476 138 OFFCURVE",
"503 208 CURVE",
"595 182 LINE",
"553 72 OFFCURVE",
"455 6 OFFCURVE",
"339 6 CURVE",
"180 6 OFFCURVE",
"58 127 OFFCURVE",
"58 316 CURVE",
"58 385 LINE",
"58 575 OFFCURVE",
"180 695 OFFCURVE",
"339 695 CURVE"
);
}
);
width = 647;
}
);
leftKerningGroup = O;
rightKerningGroup = O;
unicode = 0106;
},
{
glyphname = Ccaron;
lastChange = "2018-03-01 09:51:33 +0000";
layers = (
{
anchors = (
{
name = bottom;
position = "{332, 21}";
},
{
name = top;
position = "{332, 677}";
}
);
layerId = "9540212F-C873-4039-900D-544C1C7D2862";
paths = (
{
closed = 1;
nodes = (
"492 870 LINE",
"484 888 LINE",
"380 888 LINE",
"338 828 LINE",
"296 888 LINE",
"192 888 LINE",
"184 870 LINE",
"285 740 LINE",
"391 740 LINE"
);
},
{
closed = 1;
nodes = (
"295 761 LINE",
"200 883 LINE",
"192 866 LINE",
"284 866 LINE",
"338 790 LINE",
"391 866 LINE",
"484 866 LINE",
"476 883 LINE",
"381 761 LINE"
);
},
{
closed = 1;
nodes = (
"169 716 OFFCURVE",
"37 585 OFFCURVE",
"37 385 CURVE",
"37 316 LINE",
"37 116 OFFCURVE",
"169 -16 OFFCURVE",
"339 -16 CURVE",
"471 -16 OFFCURVE",
"583 66 OFFCURVE",
"623 196 CURVE",
"490 234 LINE",
"468 161 OFFCURVE",
"416 114 OFFCURVE",
"338 114 CURVE",
"229 114 OFFCURVE",
"175 202 OFFCURVE",
"175 334 CURVE",
"175 365 LINE",
"175 496 OFFCURVE",
"229 586 OFFCURVE",
"338 586 CURVE",
"416 586 OFFCURVE",
"467 539 OFFCURVE",
"489 465 CURVE",
"623 504 LINE",
"583 635 OFFCURVE",
"471 716 OFFCURVE",
"339 716 CURVE"
);
},
{
closed = 1;
nodes = (
"455 695 OFFCURVE",
"553 628 OFFCURVE",
"595 518 CURVE",
"502 491 LINE",
"475 561 OFFCURVE",
"418 607 OFFCURVE",
"338 607 CURVE",
"215 607 OFFCURVE",
"153 503 OFFCURVE",
"153 365 CURVE",
"153 334 LINE",
"153 194 OFFCURVE",
"215 93 OFFCURVE",
"338 93 CURVE",
"418 93 OFFCURVE",
"476 138 OFFCURVE",
"503 208 CURVE",
"595 182 LINE",
"553 72 OFFCURVE",
"455 6 OFFCURVE",
"339 6 CURVE",
"180 6 OFFCURVE",
"58 127 OFFCURVE",
"58 316 CURVE",
"58 385 LINE",
"58 575 OFFCURVE",
"180 695 OFFCURVE",
"339 695 CURVE"
);
}
);
width = 647;
},
{
anchors = (
{
name = bottom;
position = "{332, 21}";
},
{
name = top;
position = "{332, 677}";
}
);
associatedMasterId = "9540212F-C873-4039-900D-544C1C7D2862";
layerId = "8A6EA3AA-E1C3-4792-8F80-7787C2446294";
paths = (
{
closed = 1;
nodes = (
"492 870 LINE",
"484 888 LINE",
"380 888 LINE",
"338 828 LINE",
"296 888 LINE",
"192 888 LINE",
"184 870 LINE",
"285 740 LINE",
"391 740 LINE"
);
},
{
closed = 1;
nodes = (
"295 761 LINE",
"200 883 LINE",
"192 866 LINE",
"284 866 LINE",
"338 790 LINE",
"391 866 LINE",
"484 866 LINE",
"476 883 LINE",
"381 761 LINE"
);
},
{
closed = 1;
nodes = (
"169 716 OFFCURVE",
"37 585 OFFCURVE",
"37 385 CURVE",
"37 316 LINE",
"37 116 OFFCURVE",
"169 -16 OFFCURVE",
"339 -16 CURVE",
"471 -16 OFFCURVE",
"583 66 OFFCURVE",
"623 196 CURVE",
"490 234 LINE",
"468 161 OFFCURVE",
"416 114 OFFCURVE",
"338 114 CURVE",
"229 114 OFFCURVE",
"175 202 OFFCURVE",
"175 334 CURVE",
"175 365 LINE",
"175 496 OFFCURVE",
"229 586 OFFCURVE",
"338 586 CURVE",
"416 586 OFFCURVE",
"467 539 OFFCURVE",
"489 465 CURVE",
"623 504 LINE",
"583 635 OFFCURVE",
"471 716 OFFCURVE",
"339 716 CURVE"
);
},
{
closed = 1;
nodes = (
"455 695 OFFCURVE",
"553 628 OFFCURVE",
"595 518 CURVE",
"502 491 LINE",
"475 561 OFFCURVE",
"418 607 OFFCURVE",
"338 607 CURVE",
"215 607 OFFCURVE",
"153 503 OFFCURVE",
"153 365 CURVE",
"153 334 LINE",
"153 194 OFFCURVE",
"215 93 OFFCURVE",
"338 93 CURVE",
"418 93 OFFCURVE",
"476 138 OFFCURVE",
"503 208 CURVE",
"595 182 LINE",
"553 72 OFFCURVE",
"455 6 OFFCURVE",
"339 6 CURVE",
"180 6 OFFCURVE",
"58 127 OFFCURVE",
"58 316 CURVE",
"58 385 LINE",
"58 575 OFFCURVE",
"180 695 OFFCURVE",
"339 695 CURVE"
);
}
);
width = 647;
}
);
leftKerningGroup = O;
rightKerningGroup = O;
unicode = 010C;
},
{
glyphname = Ccedilla;
lastChange = "2018-03-01 09:51:33 +0000";
layers = (
{
anchors = (
{
name = bottom;
position = "{332, 21}";
},
{
name = top;
position = "{332, 677}";
}
);
layerId = "9540212F-C873-4039-900D-544C1C7D2862";
paths = (
{
closed = 1;
nodes = (
"229 114 OFFCURVE",
"175 202 OFFCURVE",
"175 334 CURVE",
"175 365 LINE",
"175 496 OFFCURVE",
"229 586 OFFCURVE",
"338 586 CURVE",
"416 586 OFFCURVE",
"467 539 OFFCURVE",
"489 465 CURVE",
"623 504 LINE",
"583 635 OFFCURVE",
"471 716 OFFCURVE",
"339 716 CURVE",
"169 716 OFFCURVE",
"37 585 OFFCURVE",
"37 385 CURVE",
"37 316 LINE",
"37 133 OFFCURVE",
"147 8 OFFCURVE",
"295 -13 CURVE",
"295 -83 LINE",
"306 -94 LINE",
"307 -94 OFFCURVE",
"308 -94 OFFCURVE",
"309 -94 CURVE",
"313 -94 LINE",
"337 -94 OFFCURVE",
"351 -98 OFFCURVE",
"351 -113 CURVE",
"351 -126 OFFCURVE",
"333 -129 OFFCURVE",
"310 -129 CURVE",
"282 -129 OFFCURVE",
"252 -114 OFFCURVE",
"244 -93 CURVE",
"202 -166 LINE",
"236 -197 OFFCURVE",
"276 -211 OFFCURVE",
"329 -211 CURVE",
"381 -211 OFFCURVE",
"453 -181 OFFCURVE",
"453 -115 CURVE",
"453 -72 OFFCURVE",
"419 -42 OFFCURVE",
"381 -32 CURVE",
"381 -13 LINE",
"494 3 OFFCURVE",
"587 80 OFFCURVE",
"623 196 CURVE",
"490 234 LINE",
"468 161 OFFCURVE",
"416 114 OFFCURVE",
"338 114 CURVE"
);
},
{
closed = 1;
nodes = (
"418 93 OFFCURVE",
"476 138 OFFCURVE",
"503 208 CURVE",
"595 182 LINE",
"555 77 OFFCURVE",
"468 14 OFFCURVE",
"360 7 CURVE",
"360 -50 LINE",
"397 -53 OFFCURVE",
"432 -78 OFFCURVE",
"432 -115 CURVE",
"432 -165 OFFCURVE",
"375 -190 OFFCURVE",
"329 -190 CURVE",
"287 -190 OFFCURVE",
"257 -181 OFFCURVE",
"229 -161 CURVE",
"247 -130 LINE",
"264 -142 OFFCURVE",
"289 -150 OFFCURVE",
"310 -150 CURVE",
"335 -150 OFFCURVE",
"372 -144 OFFCURVE",
"372 -113 CURVE",
"372 -81 OFFCURVE",
"340 -73 OFFCURVE",
"313 -73 CURVE",
"309 -73 LINE",
"308 -73 OFFCURVE",
"307 -73 OFFCURVE",
"306 -73 CURVE",
"316 -83 LINE",
"316 7 LINE",
"169 17 OFFCURVE",
"58 136 OFFCURVE",
"58 316 CURVE",
"58 385 LINE",
"58 575 OFFCURVE",
"180 695 OFFCURVE",
"339 695 CURVE",
"455 695 OFFCURVE",
"553 628 OFFCURVE",
"595 518 CURVE",
"502 491 LINE",
"475 561 OFFCURVE",
"418 607 OFFCURVE",
"338 607 CURVE",
"215 607 OFFCURVE",
"153 503 OFFCURVE",
"153 365 CURVE",
"153 334 LINE",
"153 194 OFFCURVE",
"215 93 OFFCURVE",
"338 93 CURVE"
);
}
);
width = 647;
},
{
anchors = (
{
name = bottom;
position = "{332, 21}";
},
{
name = top;
position = "{332, 677}";
}
);
associatedMasterId = "9540212F-C873-4039-900D-544C1C7D2862";
layerId = "8A6EA3AA-E1C3-4792-8F80-7787C2446294";
paths = (
{
closed = 1;
nodes = (
"229 114 OFFCURVE",
"175 202 OFFCURVE",
"175 334 CURVE",
"175 365 LINE",
"175 496 OFFCURVE",
"229 586 OFFCURVE",
"338 586 CURVE",
"416 586 OFFCURVE",
"467 539 OFFCURVE",
"489 465 CURVE",
"623 504 LINE",
"583 635 OFFCURVE",
"471 716 OFFCURVE",
"339 716 CURVE",
"169 716 OFFCURVE",
"37 585 OFFCURVE",
"37 385 CURVE",
"37 316 LINE",
"37 133 OFFCURVE",
"147 8 OFFCURVE",
"295 -13 CURVE",
"295 -83 LINE",
"306 -94 LINE",
"307 -94 OFFCURVE",
"308 -94 OFFCURVE",
"309 -94 CURVE",
"313 -94 LINE",
"337 -94 OFFCURVE",
"351 -98 OFFCURVE",
"351 -113 CURVE",
"351 -126 OFFCURVE",
"333 -129 OFFCURVE",
"310 -129 CURVE",
"282 -129 OFFCURVE",
"252 -114 OFFCURVE",
"244 -93 CURVE",
"202 -166 LINE",
"236 -197 OFFCURVE",
"276 -211 OFFCURVE",
"329 -211 CURVE",
"381 -211 OFFCURVE",
"453 -181 OFFCURVE",
"453 -115 CURVE",
"453 -72 OFFCURVE",
"419 -42 OFFCURVE",
"381 -32 CURVE",
"381 -13 LINE",
"494 3 OFFCURVE",
"587 80 OFFCURVE",
"623 196 CURVE",
"490 234 LINE",
"468 161 OFFCURVE",
"416 114 OFFCURVE",
"338 114 CURVE"
);
},
{
closed = 1;
nodes = (
"418 93 OFFCURVE",
"476 138 OFFCURVE",
"503 208 CURVE",
"595 182 LINE",
"555 77 OFFCURVE",
"468 14 OFFCURVE",
"360 7 CURVE",
"360 -50 LINE",
"397 -53 OFFCURVE",
"432 -78 OFFCURVE",
"432 -115 CURVE",
"432 -165 OFFCURVE",
"375 -190 OFFCURVE",
"329 -190 CURVE",
"287 -190 OFFCURVE",
"257 -181 OFFCURVE",
"229 -161 CURVE",
"247 -130 LINE",
"264 -142 OFFCURVE",
"289 -150 OFFCURVE",
"310 -150 CURVE",
"335 -150 OFFCURVE",
"372 -144 OFFCURVE",
"372 -113 CURVE",
"372 -81 OFFCURVE",
"340 -73 OFFCURVE",
"313 -73 CURVE",
"309 -73 LINE",
"308 -73 OFFCURVE",
"307 -73 OFFCURVE",
"306 -73 CURVE",
"316 -83 LINE",
"316 7 LINE",
"169 17 OFFCURVE",
"58 136 OFFCURVE",
"58 316 CURVE",
"58 385 LINE",
"58 575 OFFCURVE",
"180 695 OFFCURVE",
"339 695 CURVE",
"455 695 OFFCURVE",
"553 628 OFFCURVE",
"595 518 CURVE",
"502 491 LINE",
"475 561 OFFCURVE",
"418 607 OFFCURVE",
"338 607 CURVE",
"215 607 OFFCURVE",
"153 503 OFFCURVE",
"153 365 CURVE",
"153 334 LINE",
"153 194 OFFCURVE",
"215 93 OFFCURVE",
"338 93 CURVE"
);
}
);
width = 647;
}
);
leftKerningGroup = O;
rightKerningGroup = O;
unicode = 00C7;
},
{
glyphname = Ccircumflex;
lastChange = "2018-03-01 09:51:33 +0000";
layers = (
{
anchors = (
{
name = bottom;
position = "{332, 21}";
},
{
name = top;
position = "{332, 677}";
}
);
layerId = "9540212F-C873-4039-900D-544C1C7D2862";
paths = (
{
closed = 1;
nodes = (
"492 757 LINE",
"391 888 LINE",
"285 888 LINE",
"184 757 LINE",
"192 740 LINE",
"296 740 LINE",
"338 800 LINE",
"380 740 LINE",
"484 740 LINE"
);
},
{
closed = 1;
nodes = (
"484 761 LINE",
"391 761 LINE",
"338 837 LINE",
"284 761 LINE",
"192 761 LINE",
"200 744 LINE",
"295 866 LINE",
"381 866 LINE",
"476 744 LINE"
);
},
{
closed = 1;
nodes = (
"169 716 OFFCURVE",
"37 585 OFFCURVE",
"37 385 CURVE",
"37 316 LINE",
"37 116 OFFCURVE",
"169 -16 OFFCURVE",
"339 -16 CURVE",
"471 -16 OFFCURVE",
"583 66 OFFCURVE",
"623 196 CURVE",
"490 234 LINE",
"468 161 OFFCURVE",
"416 114 OFFCURVE",
"338 114 CURVE",
"229 114 OFFCURVE",
"175 202 OFFCURVE",
"175 334 CURVE",
"175 365 LINE",
"175 496 OFFCURVE",
"229 586 OFFCURVE",
"338 586 CURVE",
"416 586 OFFCURVE",
"467 539 OFFCURVE",
"489 465 CURVE",
"623 504 LINE",
"583 635 OFFCURVE",
"471 716 OFFCURVE",
"339 716 CURVE"
);
},
{
closed = 1;
nodes = (
"455 695 OFFCURVE",
"553 628 OFFCURVE",
"595 518 CURVE",
"502 491 LINE",
"475 561 OFFCURVE",
"418 607 OFFCURVE",
"338 607 CURVE",
"215 607 OFFCURVE",
"153 503 OFFCURVE",
"153 365 CURVE",
"153 334 LINE",
"153 194 OFFCURVE",
"215 93 OFFCURVE",
"338 93 CURVE",
"418 93 OFFCURVE",
"476 138 OFFCURVE",
"503 208 CURVE",
"595 182 LINE",
"553 72 OFFCURVE",
"455 6 OFFCURVE",
"339 6 CURVE",
"180 6 OFFCURVE",
"58 127 OFFCURVE",
"58 316 CURVE",
"58 385 LINE",
"58 575 OFFCURVE",
"180 695 OFFCURVE",
"339 695 CURVE"
);
}
);
width = 647;
},
{
anchors = (
{
name = bottom;
position = "{332, 21}";
},
{
name = top;
position = "{332, 677}";
}
);
associatedMasterId = "9540212F-C873-4039-900D-544C1C7D2862";
layerId = "8A6EA3AA-E1C3-4792-8F80-7787C2446294";
paths = (
{
closed = 1;
nodes = (
"492 757 LINE",
"391 888 LINE",
"285 888 LINE",
"184 757 LINE",
"192 740 LINE",
"296 740 LINE",
"338 800 LINE",
"380 740 LINE",
"484 740 LINE"
);
},
{
closed = 1;
nodes = (
"484 761 LINE",
"391 761 LINE",
"338 837 LINE",
"284 761 LINE",
"192 761 LINE",
"200 744 LINE",
"295 866 LINE",
"381 866 LINE",
"476 744 LINE"
);
},
{
closed = 1;
nodes = (
"169 716 OFFCURVE",
"37 585 OFFCURVE",
"37 385 CURVE",
"37 316 LINE",
"37 116 OFFCURVE",
"169 -16 OFFCURVE",
"339 -16 CURVE",
"471 -16 OFFCURVE",
"583 66 OFFCURVE",
"623 196 CURVE",
"490 234 LINE",
"468 161 OFFCURVE",
"416 114 OFFCURVE",
"338 114 CURVE",
"229 114 OFFCURVE",
"175 202 OFFCURVE",
"175 334 CURVE",
"175 365 LINE",
"175 496 OFFCURVE",
"229 586 OFFCURVE",
"338 586 CURVE",
"416 586 OFFCURVE",
"467 539 OFFCURVE",
"489 465 CURVE",
"623 504 LINE",
"583 635 OFFCURVE",
"471 716 OFFCURVE",
"339 716 CURVE"
);
},
{
closed = 1;
nodes = (
"455 695 OFFCURVE",
"553 628 OFFCURVE",
"595 518 CURVE",
"502 491 LINE",
"475 561 OFFCURVE",
"418 607 OFFCURVE",
"338 607 CURVE",
"215 607 OFFCURVE",
"153 503 OFFCURVE",
"153 365 CURVE",
"153 334 LINE",
"153 194 OFFCURVE",
"215 93 OFFCURVE",
"338 93 CURVE",
"418 93 OFFCURVE",
"476 138 OFFCURVE",
"503 208 CURVE",
"595 182 LINE",
"553 72 OFFCURVE",
"455 6 OFFCURVE",
"339 6 CURVE",
"180 6 OFFCURVE",
"58 127 OFFCURVE",
"58 316 CURVE",
"58 385 LINE",
"58 575 OFFCURVE",
"180 695 OFFCURVE",
"339 695 CURVE"
);
}
);
width = 647;
}
);
leftKerningGroup = O;
rightKerningGroup = O;
unicode = 0108;
},
{
glyphname = Cdotaccent;
lastChange = "2018-03-01 09:51:33 +0000";
layers = (
{
anchors = (
{
name = bottom;
position = "{332, 21}";
},
{
name = top;
position = "{332, 677}";
}
);
layerId = "9540212F-C873-4039-900D-544C1C7D2862";
paths = (
{
closed = 1;
nodes = (
"406 883 LINE",
"271 883 LINE",
"271 745 LINE",
"406 745 LINE"
);
},
{
closed = 1;
nodes = (
"292 766 LINE",
"292 861 LINE",
"385 861 LINE",
"385 766 LINE"
);
},
{
closed = 1;
nodes = (
"169 716 OFFCURVE",
"37 585 OFFCURVE",
"37 385 CURVE",
"37 316 LINE",
"37 116 OFFCURVE",
"169 -16 OFFCURVE",
"339 -16 CURVE",
"471 -16 OFFCURVE",
"583 66 OFFCURVE",
"623 196 CURVE",
"490 234 LINE",
"468 161 OFFCURVE",
"416 114 OFFCURVE",
"338 114 CURVE",
"229 114 OFFCURVE",
"175 202 OFFCURVE",
"175 334 CURVE",
"175 365 LINE",
"175 496 OFFCURVE",
"229 586 OFFCURVE",
"338 586 CURVE",
"416 586 OFFCURVE",
"467 539 OFFCURVE",
"489 465 CURVE",
"623 504 LINE",
"583 635 OFFCURVE",
"471 716 OFFCURVE",
"339 716 CURVE"
);
},
{
closed = 1;
nodes = (
"455 695 OFFCURVE",
"553 628 OFFCURVE",
"595 518 CURVE",
"502 491 LINE",
"475 561 OFFCURVE",
"418 607 OFFCURVE",
"338 607 CURVE",
"215 607 OFFCURVE",
"153 503 OFFCURVE",
"153 365 CURVE",
"153 334 LINE",
"153 194 OFFCURVE",
"215 93 OFFCURVE",
"338 93 CURVE",
"418 93 OFFCURVE",
"476 138 OFFCURVE",
"503 208 CURVE",
"595 182 LINE",
"553 72 OFFCURVE",
"455 6 OFFCURVE",
"339 6 CURVE",
"180 6 OFFCURVE",
"58 127 OFFCURVE",
"58 316 CURVE",
"58 385 LINE",
"58 575 OFFCURVE",
"180 695 OFFCURVE",
"339 695 CURVE"
);
}
);
width = 647;
},
{
anchors = (
{
name = bottom;
position = "{332, 21}";
},
{
name = top;
position = "{332, 677}";
}
);
associatedMasterId = "9540212F-C873-4039-900D-544C1C7D2862";
layerId = "8A6EA3AA-E1C3-4792-8F80-7787C2446294";
paths = (
{
closed = 1;
nodes = (
"406 883 LINE",
"271 883 LINE",
"271 745 LINE",
"406 745 LINE"
);
},
{
closed = 1;
nodes = (
"292 766 LINE",
"292 861 LINE",
"385 861 LINE",
"385 766 LINE"
);
},
{
closed = 1;
nodes = (
"169 716 OFFCURVE",
"37 585 OFFCURVE",
"37 385 CURVE",
"37 316 LINE",
"37 116 OFFCURVE",
"169 -16 OFFCURVE",
"339 -16 CURVE",
"471 -16 OFFCURVE",
"583 66 OFFCURVE",
"623 196 CURVE",
"490 234 LINE",
"468 161 OFFCURVE",
"416 114 OFFCURVE",
"338 114 CURVE",
"229 114 OFFCURVE",
"175 202 OFFCURVE",
"175 334 CURVE",
"175 365 LINE",
"175 496 OFFCURVE",
"229 586 OFFCURVE",
"338 586 CURVE",
"416 586 OFFCURVE",
"467 539 OFFCURVE",
"489 465 CURVE",
"623 504 LINE",
"583 635 OFFCURVE",
"471 716 OFFCURVE",
"339 716 CURVE"
);
},
{
closed = 1;
nodes = (
"455 695 OFFCURVE",
"553 628 OFFCURVE",
"595 518 CURVE",
"502 491 LINE",
"475 561 OFFCURVE",
"418 607 OFFCURVE",
"338 607 CURVE",
"215 607 OFFCURVE",
"153 503 OFFCURVE",
"153 365 CURVE",
"153 334 LINE",
"153 194 OFFCURVE",
"215 93 OFFCURVE",
"338 93 CURVE",
"418 93 OFFCURVE",
"476 138 OFFCURVE",
"503 208 CURVE",
"595 182 LINE",
"553 72 OFFCURVE",
"455 6 OFFCURVE",
"339 6 CURVE",
"180 6 OFFCURVE",
"58 127 OFFCURVE",
"58 316 CURVE",
"58 385 LINE",
"58 575 OFFCURVE",
"180 695 OFFCURVE",
"339 695 CURVE"
);
}
);
width = 647;
}
);
leftKerningGroup = O;
rightKerningGroup = O;
unicode = 010A;
},
{
color = 5;
glyphname = D;
lastChange = "2018-03-01 09:51:33 +0000";
layers = (
{
anchors = (
{
name = top;
position = "{253, 680}";
}
);
guideLines = (
{
position = "{43, 680}";
}
);
layerId = "9540212F-C873-4039-900D-544C1C7D2862";
paths = (
{
closed = 1;
nodes = (
"71 700 LINE",
"71 0 LINE",
"314 0 LINE",
"482 0 OFFCURVE",
"615 125 OFFCURVE",
"615 317 CURVE",
"615 383 LINE",
"615 575 OFFCURVE",
"482 700 OFFCURVE",
"314 700 CURVE"
);
},
{
closed = 1;
nodes = (
"472 679 OFFCURVE",
"594 564 OFFCURVE",
"594 383 CURVE",
"594 317 LINE",
"594 136 OFFCURVE",
"472 21 OFFCURVE",
"314 21 CURVE",
"92 21 LINE",
"92 679 LINE",
"314 679 LINE"
);
},
{
closed = 1;
nodes = (
"314 570 LINE",
"422 570 OFFCURVE",
"478 488 OFFCURVE",
"478 364 CURVE",
"478 334 LINE",
"478 209 OFFCURVE",
"422 131 OFFCURVE",
"314 130 CURVE",
"208 130 LINE",
"208 570 LINE"
);
},
{
closed = 1;
nodes = (
"187 109 LINE",
"314 109 LINE",
"435 110 OFFCURVE",
"499 200 OFFCURVE",
"499 334 CURVE",
"499 364 LINE",
"499 497 OFFCURVE",
"435 591 OFFCURVE",
"314 591 CURVE",
"187 591 LINE"
);
}
);
width = 662;
},
{
anchors = (
{
name = top;
position = "{253, 680}";
}
);
associatedMasterId = "9540212F-C873-4039-900D-544C1C7D2862";
guideLines = (
{
position = "{43, 680}";
}
);
layerId = "8A6EA3AA-E1C3-4792-8F80-7787C2446294";
paths = (
{
closed = 1;
nodes = (
"71 700 LINE",
"71 0 LINE",
"314 0 LINE",
"482 0 OFFCURVE",
"615 125 OFFCURVE",
"615 317 CURVE",
"615 383 LINE",
"615 575 OFFCURVE",
"482 700 OFFCURVE",
"314 700 CURVE"
);
},
{
closed = 1;
nodes = (
"472 679 OFFCURVE",
"594 564 OFFCURVE",
"594 383 CURVE",
"594 317 LINE",
"594 136 OFFCURVE",
"472 21 OFFCURVE",
"314 21 CURVE",
"92 21 LINE",
"92 679 LINE",
"314 679 LINE"
);
},
{
closed = 1;
nodes = (
"314 570 LINE",
"422 570 OFFCURVE",
"478 488 OFFCURVE",
"478 364 CURVE",
"478 334 LINE",
"478 209 OFFCURVE",
"422 131 OFFCURVE",
"314 130 CURVE",
"208 130 LINE",
"208 570 LINE"
);
},
{
closed = 1;
nodes = (
"187 109 LINE",
"314 109 LINE",
"435 110 OFFCURVE",
"499 200 OFFCURVE",
"499 334 CURVE",
"499 364 LINE",
"499 497 OFFCURVE",
"435 591 OFFCURVE",
"314 591 CURVE",
"187 591 LINE"
);
}
);
width = 662;
}
);
leftKerningGroup = I;
rightKerningGroup = O;
unicode = 0044;
},
{
glyphname = Eth;
lastChange = "2018-03-01 09:51:33 +0000";
layers = (
{
anchors = (
{
name = top;
position = "{278, 667}";
}
);
layerId = "9540212F-C873-4039-900D-544C1C7D2862";
rightMetricsKey = "=O";
paths = (
{
closed = 1;
nodes = (
"99 700 LINE",
"99 404 LINE",
"1 404 LINE",
"1 310 LINE",
"99 310 LINE",
"99 0 LINE",
"342 0 LINE",
"511 0 OFFCURVE",
"644 125 OFFCURVE",
"644 317 CURVE",
"644 383 LINE",
"644 575 OFFCURVE",
"511 700 OFFCURVE",
"342 700 CURVE"
);
},
{
closed = 1;
nodes = (
"500 679 OFFCURVE",
"623 564 OFFCURVE",
"623 383 CURVE",
"623 317 LINE",
"623 137 OFFCURVE",
"500 21 OFFCURVE",
"342 21 CURVE",
"120 21 LINE",
"120 332 LINE",
"22 332 LINE",
"22 383 LINE",
"120 383 LINE",
"120 679 LINE",
"342 679 LINE"
);
},
{
closed = 1;
nodes = (
"506 334 LINE",
"506 209 OFFCURVE",
"450 131 OFFCURVE",
"342 130 CURVE",
"237 130 LINE",
"237 310 LINE",
"333 310 LINE",
"333 404 LINE",
"237 404 LINE",
"237 570 LINE",
"342 570 LINE",
"450 570 OFFCURVE",
"506 488 OFFCURVE",
"506 364 CURVE"
);
},
{
closed = 1;
nodes = (
"528 497 OFFCURVE",
"463 592 OFFCURVE",
"342 592 CURVE",
"215 592 LINE",
"215 383 LINE",
"311 383 LINE",
"311 332 LINE",
"215 332 LINE",
"215 109 LINE",
"342 109 LINE",
"463 110 OFFCURVE",
"528 200 OFFCURVE",
"528 334 CURVE",
"528 364 LINE"
);
}
);
width = 690;
},
{
anchors = (
{
name = top;
position = "{278, 667}";
}
);
associatedMasterId = "9540212F-C873-4039-900D-544C1C7D2862";
layerId = "8A6EA3AA-E1C3-4792-8F80-7787C2446294";
rightMetricsKey = "=O";
paths = (
{
closed = 1;
nodes = (
"99 700 LINE",
"99 404 LINE",
"1 404 LINE",
"1 310 LINE",
"99 310 LINE",
"99 0 LINE",
"342 0 LINE",
"511 0 OFFCURVE",
"644 125 OFFCURVE",
"644 317 CURVE",
"644 383 LINE",
"644 575 OFFCURVE",
"511 700 OFFCURVE",
"342 700 CURVE"
);
},
{
closed = 1;
nodes = (
"500 679 OFFCURVE",
"623 564 OFFCURVE",
"623 383 CURVE",
"623 317 LINE",
"623 137 OFFCURVE",
"500 21 OFFCURVE",
"342 21 CURVE",
"120 21 LINE",
"120 332 LINE",
"22 332 LINE",
"22 383 LINE",
"120 383 LINE",
"120 679 LINE",
"342 679 LINE"
);
},
{
closed = 1;
nodes = (
"506 334 LINE",
"506 209 OFFCURVE",
"450 131 OFFCURVE",
"342 130 CURVE",
"237 130 LINE",
"237 310 LINE",
"333 310 LINE",
"333 404 LINE",
"237 404 LINE",
"237 570 LINE",
"342 570 LINE",
"450 570 OFFCURVE",
"506 488 OFFCURVE",
"506 364 CURVE"
);
},
{
closed = 1;
nodes = (
"528 497 OFFCURVE",
"463 592 OFFCURVE",
"342 592 CURVE",
"215 592 LINE",
"215 383 LINE",
"311 383 LINE",
"311 332 LINE",
"215 332 LINE",
"215 109 LINE",
"342 109 LINE",
"463 110 OFFCURVE",
"528 200 OFFCURVE",
"528 334 CURVE",
"528 364 LINE"
);
}
);
width = 690;
}
);
leftKerningGroup = Eth;
rightKerningGroup = O;
rightMetricsKey = O;
unicode = 00D0;
},
{
glyphname = Dcaron;
lastChange = "2018-03-01 09:51:33 +0000";
layers = (
{
anchors = (
{
name = top;
position = "{241, 667}";
}
);
layerId = "9540212F-C873-4039-900D-544C1C7D2862";
paths = (
{
closed = 1;
nodes = (
"399 861 LINE",
"391 878 LINE",
"286 878 LINE",
"244 818 LINE",
"202 878 LINE",
"99 878 LINE",
"91 861 LINE",
"192 730 LINE",
"298 730 LINE"
);
},
{
closed = 1;
nodes = (
"202 752 LINE",
"107 874 LINE",
"99 857 LINE",
"191 857 LINE",
"244 781 LINE",
"298 857 LINE",
"391 857 LINE",
"382 874 LINE",
"288 752 LINE"
);
},
{
closed = 1;
nodes = (
"60 700 LINE",
"60 0 LINE",
"304 0 LINE",
"472 0 OFFCURVE",
"605 125 OFFCURVE",
"605 317 CURVE",
"605 383 LINE",
"605 575 OFFCURVE",
"472 700 OFFCURVE",
"304 700 CURVE"
);
},
{
closed = 1;
nodes = (
"461 679 OFFCURVE",
"584 564 OFFCURVE",
"584 383 CURVE",
"584 317 LINE",
"584 137 OFFCURVE",
"461 21 OFFCURVE",
"304 21 CURVE",
"81 21 LINE",
"81 679 LINE",
"304 679 LINE"
);
},
{
closed = 1;
nodes = (
"304 570 LINE",
"411 570 OFFCURVE",
"468 488 OFFCURVE",
"468 364 CURVE",
"468 334 LINE",
"468 209 OFFCURVE",
"412 131 OFFCURVE",
"304 130 CURVE",
"198 130 LINE",
"198 570 LINE"
);
},
{
closed = 1;
nodes = (
"177 109 LINE",
"304 109 LINE",
"425 110 OFFCURVE",
"489 200 OFFCURVE",
"489 334 CURVE",
"489 364 LINE",
"489 497 OFFCURVE",
"425 592 OFFCURVE",
"304 592 CURVE",
"177 592 LINE"
);
}
);
width = 642;
},
{
anchors = (
{
name = top;
position = "{241, 667}";
}
);
associatedMasterId = "9540212F-C873-4039-900D-544C1C7D2862";
layerId = "8A6EA3AA-E1C3-4792-8F80-7787C2446294";
paths = (
{
closed = 1;
nodes = (
"399 861 LINE",
"391 878 LINE",
"286 878 LINE",
"244 818 LINE",
"202 878 LINE",
"99 878 LINE",
"91 861 LINE",
"192 730 LINE",
"298 730 LINE"
);
},
{
closed = 1;
nodes = (
"202 752 LINE",
"107 874 LINE",
"99 857 LINE",
"191 857 LINE",
"244 781 LINE",
"298 857 LINE",
"391 857 LINE",
"382 874 LINE",
"288 752 LINE"
);
},
{
closed = 1;
nodes = (
"60 700 LINE",
"60 0 LINE",
"304 0 LINE",
"472 0 OFFCURVE",
"605 125 OFFCURVE",
"605 317 CURVE",
"605 383 LINE",
"605 575 OFFCURVE",
"472 700 OFFCURVE",
"304 700 CURVE"
);
},
{
closed = 1;
nodes = (
"461 679 OFFCURVE",
"584 564 OFFCURVE",
"584 383 CURVE",
"584 317 LINE",
"584 137 OFFCURVE",
"461 21 OFFCURVE",
"304 21 CURVE",
"81 21 LINE",
"81 679 LINE",
"304 679 LINE"
);
},
{
closed = 1;
nodes = (
"304 570 LINE",
"411 570 OFFCURVE",
"468 488 OFFCURVE",
"468 364 CURVE",
"468 334 LINE",
"468 209 OFFCURVE",
"412 131 OFFCURVE",
"304 130 CURVE",
"198 130 LINE",
"198 570 LINE"
);
},
{
closed = 1;
nodes = (
"177 109 LINE",
"304 109 LINE",
"425 110 OFFCURVE",
"489 200 OFFCURVE",
"489 334 CURVE",
"489 364 LINE",
"489 497 OFFCURVE",
"425 592 OFFCURVE",
"304 592 CURVE",
"177 592 LINE"
);
}
);
width = 642;
}
);
leftKerningGroup = I;
rightKerningGroup = O;
unicode = 010E;
},
{
glyphname = Dcroat;
lastChange = "2018-03-01 09:51:33 +0000";
layers = (
{
anchors = (
{
name = top;
position = "{278, 667}";
}
);
guideLines = (
{
position = "{490, 300}";
},
{
position = "{490, 412}";
},
{
angle = 90;
position = "{81, 0}";
},
{
angle = 90;
position = "{188, 106}";
},
{
angle = 90;
position = "{332, 315}";
}
);
layerId = "9540212F-C873-4039-900D-544C1C7D2862";
rightMetricsKey = "=O";
paths = (
{
closed = 1;
nodes = (
"99 700 LINE",
"99 404 LINE",
"1 404 LINE",
"1 310 LINE",
"99 310 LINE",
"99 0 LINE",
"342 0 LINE",
"511 0 OFFCURVE",
"644 125 OFFCURVE",
"644 317 CURVE",
"644 383 LINE",
"644 575 OFFCURVE",
"511 700 OFFCURVE",
"342 700 CURVE"
);
},
{
closed = 1;
nodes = (
"500 679 OFFCURVE",
"623 564 OFFCURVE",
"623 383 CURVE",
"623 317 LINE",
"623 137 OFFCURVE",
"500 21 OFFCURVE",
"342 21 CURVE",
"120 21 LINE",
"120 332 LINE",
"22 332 LINE",
"22 383 LINE",
"120 383 LINE",
"120 679 LINE",
"342 679 LINE"
);
},
{
closed = 1;
nodes = (
"506 334 LINE",
"506 209 OFFCURVE",
"450 131 OFFCURVE",
"342 130 CURVE",
"237 130 LINE",
"237 310 LINE",
"333 310 LINE",
"333 404 LINE",
"237 404 LINE",
"237 570 LINE",
"342 570 LINE",
"450 570 OFFCURVE",
"506 488 OFFCURVE",
"506 364 CURVE"
);
},
{
closed = 1;
nodes = (
"528 497 OFFCURVE",
"463 592 OFFCURVE",
"342 592 CURVE",
"215 592 LINE",
"215 383 LINE",
"311 383 LINE",
"311 332 LINE",
"215 332 LINE",
"215 109 LINE",
"342 109 LINE",
"463 110 OFFCURVE",
"528 200 OFFCURVE",
"528 334 CURVE",
"528 364 LINE"
);
}
);
width = 690;
},
{
anchors = (
{
name = top;
position = "{278, 667}";
}
);
associatedMasterId = "9540212F-C873-4039-900D-544C1C7D2862";
guideLines = (
{
position = "{490, 300}";
},
{
position = "{490, 412}";
},
{
angle = 90;
position = "{81, 0}";
},
{
angle = 90;
position = "{188, 106}";
},
{
angle = 90;
position = "{332, 315}";
}
);
layerId = "8A6EA3AA-E1C3-4792-8F80-7787C2446294";
rightMetricsKey = "=O";
paths = (
{
closed = 1;
nodes = (
"99 700 LINE",
"99 404 LINE",
"1 404 LINE",
"1 310 LINE",
"99 310 LINE",
"99 0 LINE",
"342 0 LINE",
"511 0 OFFCURVE",
"644 125 OFFCURVE",
"644 317 CURVE",
"644 383 LINE",
"644 575 OFFCURVE",
"511 700 OFFCURVE",
"342 700 CURVE"
);
},
{
closed = 1;
nodes = (
"500 679 OFFCURVE",
"623 564 OFFCURVE",
"623 383 CURVE",
"623 317 LINE",
"623 137 OFFCURVE",
"500 21 OFFCURVE",
"342 21 CURVE",
"120 21 LINE",
"120 332 LINE",
"22 332 LINE",
"22 383 LINE",
"120 383 LINE",
"120 679 LINE",
"342 679 LINE"
);
},
{
closed = 1;
nodes = (
"506 334 LINE",
"506 209 OFFCURVE",
"450 131 OFFCURVE",
"342 130 CURVE",
"237 130 LINE",
"237 310 LINE",
"333 310 LINE",
"333 404 LINE",
"237 404 LINE",
"237 570 LINE",
"342 570 LINE",
"450 570 OFFCURVE",
"506 488 OFFCURVE",
"506 364 CURVE"
);
},
{
closed = 1;
nodes = (
"528 497 OFFCURVE",
"463 592 OFFCURVE",
"342 592 CURVE",
"215 592 LINE",
"215 383 LINE",
"311 383 LINE",
"311 332 LINE",
"215 332 LINE",
"215 109 LINE",
"342 109 LINE",
"463 110 OFFCURVE",
"528 200 OFFCURVE",
"528 334 CURVE",
"528 364 LINE"
);
}
);
width = 690;
}
);
leftKerningGroup = Eth;
rightKerningGroup = O;
rightMetricsKey = O;
unicode = 0110;
},
{
color = 5;
glyphname = E;
lastChange = "2018-03-01 09:51:33 +0000";
layers = (
{
anchors = (
{
name = top;
position = "{282, 680}";
}
);
guideLines = (
{
angle = 90;
position = "{493, 112}";
},
{
position = "{493, 300}";
},
{
position = "{493, 412}";
},
{
position = "{43, 680}";
}
);
layerId = "9540212F-C873-4039-900D-544C1C7D2862";
paths = (
{
closed = 1;
nodes = (
"497 700 LINE",
"69 700 LINE",
"69 0 LINE",
"497 0 LINE",
"497 130 LINE",
"206 130 LINE",
"206 291 LINE",
"497 291 LINE",
"497 421 LINE",
"206 421 LINE",
"206 570 LINE",
"497 570 LINE"
);
},
{
closed = 1;
nodes = (
"185 591 LINE",
"185 399 LINE",
"476 399 LINE",
"476 312 LINE",
"185 312 LINE",
"185 109 LINE",
"476 109 LINE",
"476 21 LINE",
"90 21 LINE",
"90 679 LINE",
"476 679 LINE",
"476 591 LINE"
);
}
);
width = 553;
},
{
anchors = (
{
name = top;
position = "{282, 680}";
}
);
associatedMasterId = "9540212F-C873-4039-900D-544C1C7D2862";
guideLines = (
{
angle = 90;
position = "{493, 112}";
},
{
position = "{493, 300}";
},
{
position = "{493, 412}";
},
{
position = "{43, 680}";
}
);
layerId = "8A6EA3AA-E1C3-4792-8F80-7787C2446294";
paths = (
{
closed = 1;
nodes = (
"497 700 LINE",
"69 700 LINE",
"69 0 LINE",
"497 0 LINE",
"497 130 LINE",
"206 130 LINE",
"206 291 LINE",
"497 291 LINE",
"497 421 LINE",
"206 421 LINE",
"206 570 LINE",
"497 570 LINE"
);
},
{
closed = 1;
nodes = (
"185 591 LINE",
"185 399 LINE",
"476 399 LINE",
"476 312 LINE",
"185 312 LINE",
"185 109 LINE",
"476 109 LINE",
"476 21 LINE",
"90 21 LINE",
"90 679 LINE",
"476 679 LINE",
"476 591 LINE"
);
}
);
width = 553;
}
);
leftKerningGroup = I;
rightKerningGroup = E;
unicode = 0045;
},
{
glyphname = Eacute;
lastChange = "2018-03-01 09:51:33 +0000";
layers = (
{
anchors = (
{
name = top;
position = "{268, 667}";
}
);
layerId = "9540212F-C873-4039-900D-544C1C7D2862";
paths = (
{
closed = 1;
nodes = (
"439 860 LINE",
"431 878 LINE",
"299 878 LINE",
"216 747 LINE",
"225 730 LINE",
"326 730 LINE"
);
},
{
closed = 1;
nodes = (
"225 752 LINE",
"234 735 LINE",
"310 857 LINE",
"431 857 LINE",
"423 874 LINE",
"316 752 LINE"
);
},
{
closed = 1;
nodes = (
"489 700 LINE",
"60 700 LINE",
"60 0 LINE",
"489 0 LINE",
"489 130 LINE",
"198 130 LINE",
"198 291 LINE",
"489 291 LINE",
"489 421 LINE",
"198 421 LINE",
"198 570 LINE",
"489 570 LINE"
);
},
{
closed = 1;
nodes = (
"177 592 LINE",
"177 400 LINE",
"468 400 LINE",
"468 312 LINE",
"177 312 LINE",
"177 109 LINE",
"468 109 LINE",
"468 21 LINE",
"81 21 LINE",
"81 679 LINE",
"468 679 LINE",
"468 592 LINE"
);
}
);
width = 536;
},
{
anchors = (
{
name = top;
position = "{268, 667}";
}
);
associatedMasterId = "9540212F-C873-4039-900D-544C1C7D2862";
layerId = "8A6EA3AA-E1C3-4792-8F80-7787C2446294";
paths = (
{
closed = 1;
nodes = (
"439 860 LINE",
"431 878 LINE",
"299 878 LINE",
"216 747 LINE",
"225 730 LINE",
"326 730 LINE"
);
},
{
closed = 1;
nodes = (
"225 752 LINE",
"234 735 LINE",
"310 857 LINE",
"431 857 LINE",
"423 874 LINE",
"316 752 LINE"
);
},
{
closed = 1;
nodes = (
"489 700 LINE",
"60 700 LINE",
"60 0 LINE",
"489 0 LINE",
"489 130 LINE",
"198 130 LINE",
"198 291 LINE",
"489 291 LINE",
"489 421 LINE",
"198 421 LINE",
"198 570 LINE",
"489 570 LINE"
);
},
{
closed = 1;
nodes = (
"177 592 LINE",
"177 400 LINE",
"468 400 LINE",
"468 312 LINE",
"177 312 LINE",
"177 109 LINE",
"468 109 LINE",
"468 21 LINE",
"81 21 LINE",
"81 679 LINE",
"468 679 LINE",
"468 592 LINE"
);
}
);
width = 536;
}
);
leftKerningGroup = I;
rightKerningGroup = E;
unicode = 00C9;
},
{
glyphname = Ebreve;
lastChange = "2018-03-01 09:51:33 +0000";
layers = (
{
anchors = (
{
name = top;
position = "{268, 667}";
}
);
layerId = "9540212F-C873-4039-900D-544C1C7D2862";
paths = (
{
closed = 1;
nodes = (
"320 878 LINE",
"326 858 OFFCURVE",
"312 818 OFFCURVE",
"285 818 CURVE",
"261 818 LINE",
"231 818 OFFCURVE",
"222 853 OFFCURVE",
"226 878 CURVE",
"131 878 LINE",
"129 843 OFFCURVE",
"138 792 OFFCURVE",
"163 766 CURVE",
"162 766 LINE",
"183 742 OFFCURVE",
"218 730 OFFCURVE",
"248 730 CURVE",
"298 730 LINE",
"329 730 OFFCURVE",
"363 742 OFFCURVE",
"384 766 CURVE",
"407 792 OFFCURVE",
"417 842 OFFCURVE",
"415 878 CURVE"
);
},
{
closed = 1;
nodes = (
"392 828 OFFCURVE",
"383 797 OFFCURVE",
"368 780 CURVE",
"351 760 OFFCURVE",
"325 752 OFFCURVE",
"298 752 CURVE",
"248 752 LINE",
"221 752 OFFCURVE",
"195 760 OFFCURVE",
"179 780 CURVE",
"178 780 LINE",
"162 798 OFFCURVE",
"154 828 OFFCURVE",
"153 857 CURVE",
"204 857 LINE",
"208 829 OFFCURVE",
"224 796 OFFCURVE",
"261 796 CURVE",
"285 796 LINE",
"321 796 OFFCURVE",
"338 829 OFFCURVE",
"342 857 CURVE",
"393 857 LINE"
);
},
{
closed = 1;
nodes = (
"489 700 LINE",
"60 700 LINE",
"60 0 LINE",
"489 0 LINE",
"489 130 LINE",
"198 130 LINE",
"198 291 LINE",
"489 291 LINE",
"489 421 LINE",
"198 421 LINE",
"198 570 LINE",
"489 570 LINE"
);
},
{
closed = 1;
nodes = (
"177 592 LINE",
"177 400 LINE",
"468 400 LINE",
"468 312 LINE",
"177 312 LINE",
"177 109 LINE",
"468 109 LINE",
"468 21 LINE",
"81 21 LINE",
"81 679 LINE",
"468 679 LINE",
"468 592 LINE"
);
}
);
width = 536;
},
{
anchors = (
{
name = top;
position = "{268, 667}";
}
);
associatedMasterId = "9540212F-C873-4039-900D-544C1C7D2862";
layerId = "8A6EA3AA-E1C3-4792-8F80-7787C2446294";
paths = (
{
closed = 1;
nodes = (
"320 878 LINE",
"326 858 OFFCURVE",
"312 818 OFFCURVE",
"285 818 CURVE",
"261 818 LINE",
"231 818 OFFCURVE",
"222 853 OFFCURVE",
"226 878 CURVE",
"131 878 LINE",
"129 843 OFFCURVE",
"138 792 OFFCURVE",
"163 766 CURVE",
"162 766 LINE",
"183 742 OFFCURVE",
"218 730 OFFCURVE",
"248 730 CURVE",
"298 730 LINE",
"329 730 OFFCURVE",
"363 742 OFFCURVE",
"384 766 CURVE",
"407 792 OFFCURVE",
"417 842 OFFCURVE",
"415 878 CURVE"
);
},
{
closed = 1;
nodes = (
"392 828 OFFCURVE",
"383 797 OFFCURVE",
"368 780 CURVE",
"351 760 OFFCURVE",
"325 752 OFFCURVE",
"298 752 CURVE",
"248 752 LINE",
"221 752 OFFCURVE",
"195 760 OFFCURVE",
"179 780 CURVE",
"178 780 LINE",
"162 798 OFFCURVE",
"154 828 OFFCURVE",
"153 857 CURVE",
"204 857 LINE",
"208 829 OFFCURVE",
"224 796 OFFCURVE",
"261 796 CURVE",
"285 796 LINE",
"321 796 OFFCURVE",
"338 829 OFFCURVE",
"342 857 CURVE",
"393 857 LINE"
);
},
{
closed = 1;
nodes = (
"489 700 LINE",
"60 700 LINE",
"60 0 LINE",
"489 0 LINE",
"489 130 LINE",
"198 130 LINE",
"198 291 LINE",
"489 291 LINE",
"489 421 LINE",
"198 421 LINE",
"198 570 LINE",
"489 570 LINE"
);
},
{
closed = 1;
nodes = (
"177 592 LINE",
"177 400 LINE",
"468 400 LINE",
"468 312 LINE",
"177 312 LINE",
"177 109 LINE",
"468 109 LINE",
"468 21 LINE",
"81 21 LINE",
"81 679 LINE",
"468 679 LINE",
"468 592 LINE"
);
}
);
width = 536;
}
);
leftKerningGroup = I;
rightKerningGroup = E;
unicode = 0114;
},
{
glyphname = Ecaron;
lastChange = "2018-03-01 09:51:33 +0000";
layers = (
{
anchors = (
{
name = top;
position = "{268, 667}";
}
);
layerId = "9540212F-C873-4039-900D-544C1C7D2862";
paths = (
{
closed = 1;
nodes = (
"427 861 LINE",
"419 878 LINE",
"315 878 LINE",
"273 818 LINE",
"231 878 LINE",
"127 878 LINE",
"119 861 LINE",
"220 730 LINE",
"326 730 LINE"
);
},
{
closed = 1;
nodes = (
"230 752 LINE",
"135 874 LINE",
"127 857 LINE",
"219 857 LINE",
"273 781 LINE",
"326 857 LINE",
"419 857 LINE",
"411 874 LINE",
"316 752 LINE"
);
},
{
closed = 1;
nodes = (
"489 700 LINE",
"60 700 LINE",
"60 0 LINE",
"489 0 LINE",
"489 130 LINE",
"198 130 LINE",
"198 291 LINE",
"489 291 LINE",
"489 421 LINE",
"198 421 LINE",
"198 570 LINE",
"489 570 LINE"
);
},
{
closed = 1;
nodes = (
"177 592 LINE",
"177 400 LINE",
"468 400 LINE",
"468 312 LINE",
"177 312 LINE",
"177 109 LINE",
"468 109 LINE",
"468 21 LINE",
"81 21 LINE",
"81 679 LINE",
"468 679 LINE",
"468 592 LINE"
);
}
);
width = 536;
},
{
anchors = (
{
name = top;
position = "{268, 667}";
}
);
associatedMasterId = "9540212F-C873-4039-900D-544C1C7D2862";
layerId = "8A6EA3AA-E1C3-4792-8F80-7787C2446294";
paths = (
{
closed = 1;
nodes = (
"427 861 LINE",
"419 878 LINE",
"315 878 LINE",
"273 818 LINE",
"231 878 LINE",
"127 878 LINE",
"119 861 LINE",
"220 730 LINE",
"326 730 LINE"
);
},
{
closed = 1;
nodes = (
"230 752 LINE",
"135 874 LINE",
"127 857 LINE",
"219 857 LINE",
"273 781 LINE",
"326 857 LINE",
"419 857 LINE",
"411 874 LINE",
"316 752 LINE"
);
},
{
closed = 1;
nodes = (
"489 700 LINE",
"60 700 LINE",
"60 0 LINE",
"489 0 LINE",
"489 130 LINE",
"198 130 LINE",
"198 291 LINE",
"489 291 LINE",
"489 421 LINE",
"198 421 LINE",
"198 570 LINE",
"489 570 LINE"
);
},
{
closed = 1;
nodes = (
"177 592 LINE",
"177 400 LINE",
"468 400 LINE",
"468 312 LINE",
"177 312 LINE",
"177 109 LINE",
"468 109 LINE",
"468 21 LINE",
"81 21 LINE",
"81 679 LINE",
"468 679 LINE",
"468 592 LINE"
);
}
);
width = 536;
}
);
leftKerningGroup = I;
rightKerningGroup = E;
unicode = 011A;
},
{
glyphname = Ecircumflex;
lastChange = "2018-03-01 09:51:33 +0000";
layers = (
{
anchors = (
{
name = top;
position = "{268, 667}";
}
);
layerId = "9540212F-C873-4039-900D-544C1C7D2862";
paths = (
{
closed = 1;
nodes = (
"427 748 LINE",
"326 878 LINE",
"220 878 LINE",
"119 748 LINE",
"127 730 LINE",
"231 730 LINE",
"273 790 LINE",
"315 730 LINE",
"419 730 LINE"
);
},
{
closed = 1;
nodes = (
"419 752 LINE",
"326 752 LINE",
"273 828 LINE",
"219 752 LINE",
"127 752 LINE",
"135 735 LINE",
"230 857 LINE",
"316 857 LINE",
"411 735 LINE"
);
},
{
closed = 1;
nodes = (
"489 700 LINE",
"60 700 LINE",
"60 0 LINE",
"489 0 LINE",
"489 130 LINE",
"198 130 LINE",
"198 291 LINE",
"489 291 LINE",
"489 421 LINE",
"198 421 LINE",
"198 570 LINE",
"489 570 LINE"
);
},
{
closed = 1;
nodes = (
"177 592 LINE",
"177 400 LINE",
"468 400 LINE",
"468 312 LINE",
"177 312 LINE",
"177 109 LINE",
"468 109 LINE",
"468 21 LINE",
"81 21 LINE",
"81 679 LINE",
"468 679 LINE",
"468 592 LINE"
);
}
);
width = 536;
},
{
anchors = (
{
name = top;
position = "{268, 667}";
}
);
associatedMasterId = "9540212F-C873-4039-900D-544C1C7D2862";
layerId = "8A6EA3AA-E1C3-4792-8F80-7787C2446294";
paths = (
{
closed = 1;
nodes = (
"427 748 LINE",
"326 878 LINE",
"220 878 LINE",
"119 748 LINE",
"127 730 LINE",
"231 730 LINE",
"273 790 LINE",
"315 730 LINE",
"419 730 LINE"
);
},
{
closed = 1;
nodes = (
"419 752 LINE",
"326 752 LINE",
"273 828 LINE",
"219 752 LINE",
"127 752 LINE",
"135 735 LINE",
"230 857 LINE",
"316 857 LINE",
"411 735 LINE"
);
},
{
closed = 1;
nodes = (
"489 700 LINE",
"60 700 LINE",
"60 0 LINE",
"489 0 LINE",
"489 130 LINE",
"198 130 LINE",
"198 291 LINE",
"489 291 LINE",
"489 421 LINE",
"198 421 LINE",
"198 570 LINE",
"489 570 LINE"
);
},
{
closed = 1;
nodes = (
"177 592 LINE",
"177 400 LINE",
"468 400 LINE",
"468 312 LINE",
"177 312 LINE",
"177 109 LINE",
"468 109 LINE",
"468 21 LINE",
"81 21 LINE",
"81 679 LINE",
"468 679 LINE",
"468 592 LINE"
);
}
);
width = 536;
}
);
leftKerningGroup = I;
rightKerningGroup = E;
unicode = 00CA;
},
{
glyphname = Edieresis;
lastChange = "2018-03-01 09:51:33 +0000";
layers = (
{
anchors = (
{
name = top;
position = "{268, 667}";
}
);
layerId = "9540212F-C873-4039-900D-544C1C7D2862";
paths = (
{
closed = 1;
nodes = (
"237 878 LINE",
"113 878 LINE",
"113 753 LINE",
"237 753 LINE"
);
},
{
closed = 1;
nodes = (
"135 774 LINE",
"135 857 LINE",
"215 857 LINE",
"215 774 LINE"
);
},
{
closed = 1;
nodes = (
"434 878 LINE",
"310 878 LINE",
"310 753 LINE",
"434 753 LINE"
);
},
{
closed = 1;
nodes = (
"332 774 LINE",
"332 857 LINE",
"412 857 LINE",
"412 774 LINE"
);
},
{
closed = 1;
nodes = (
"489 700 LINE",
"60 700 LINE",
"60 0 LINE",
"489 0 LINE",
"489 130 LINE",
"198 130 LINE",
"198 291 LINE",
"489 291 LINE",
"489 421 LINE",
"198 421 LINE",
"198 570 LINE",
"489 570 LINE"
);
},
{
closed = 1;
nodes = (
"177 592 LINE",
"177 400 LINE",
"468 400 LINE",
"468 312 LINE",
"177 312 LINE",
"177 109 LINE",
"468 109 LINE",
"468 21 LINE",
"81 21 LINE",
"81 679 LINE",
"468 679 LINE",
"468 592 LINE"
);
}
);
width = 536;
},
{
anchors = (
{
name = top;
position = "{268, 667}";
}
);
associatedMasterId = "9540212F-C873-4039-900D-544C1C7D2862";
layerId = "8A6EA3AA-E1C3-4792-8F80-7787C2446294";
paths = (
{
closed = 1;
nodes = (
"237 878 LINE",
"113 878 LINE",
"113 753 LINE",
"237 753 LINE"
);
},
{
closed = 1;
nodes = (
"135 774 LINE",
"135 857 LINE",
"215 857 LINE",
"215 774 LINE"
);
},
{
closed = 1;
nodes = (
"434 878 LINE",
"310 878 LINE",
"310 753 LINE",
"434 753 LINE"
);
},
{
closed = 1;
nodes = (
"332 774 LINE",
"332 857 LINE",
"412 857 LINE",
"412 774 LINE"
);
},
{
closed = 1;
nodes = (
"489 700 LINE",
"60 700 LINE",
"60 0 LINE",
"489 0 LINE",
"489 130 LINE",
"198 130 LINE",
"198 291 LINE",
"489 291 LINE",
"489 421 LINE",
"198 421 LINE",
"198 570 LINE",
"489 570 LINE"
);
},
{
closed = 1;
nodes = (
"177 592 LINE",
"177 400 LINE",
"468 400 LINE",
"468 312 LINE",
"177 312 LINE",
"177 109 LINE",
"468 109 LINE",
"468 21 LINE",
"81 21 LINE",
"81 679 LINE",
"468 679 LINE",
"468 592 LINE"
);
}
);
width = 536;
}
);
leftKerningGroup = I;
rightKerningGroup = E;
unicode = 00CB;
},
{
glyphname = Edotaccent;
lastChange = "2018-03-01 09:51:33 +0000";
layers = (
{
anchors = (
{
name = top;
position = "{268, 667}";
}
);
layerId = "9540212F-C873-4039-900D-544C1C7D2862";
paths = (
{
closed = 1;
nodes = (
"341 873 LINE",
"206 873 LINE",
"206 735 LINE",
"341 735 LINE"
);
},
{
closed = 1;
nodes = (
"227 757 LINE",
"227 852 LINE",
"320 852 LINE",
"320 757 LINE"
);
},
{
closed = 1;
nodes = (
"489 700 LINE",
"60 700 LINE",
"60 0 LINE",
"489 0 LINE",
"489 130 LINE",
"198 130 LINE",
"198 291 LINE",
"489 291 LINE",
"489 421 LINE",
"198 421 LINE",
"198 570 LINE",
"489 570 LINE"
);
},
{
closed = 1;
nodes = (
"177 592 LINE",
"177 400 LINE",
"468 400 LINE",
"468 312 LINE",
"177 312 LINE",
"177 109 LINE",
"468 109 LINE",
"468 21 LINE",
"81 21 LINE",
"81 679 LINE",
"468 679 LINE",
"468 592 LINE"
);
}
);
width = 536;
},
{
anchors = (
{
name = top;
position = "{268, 667}";
}
);
associatedMasterId = "9540212F-C873-4039-900D-544C1C7D2862";
layerId = "8A6EA3AA-E1C3-4792-8F80-7787C2446294";
paths = (
{
closed = 1;
nodes = (
"341 873 LINE",
"206 873 LINE",
"206 735 LINE",
"341 735 LINE"
);
},
{
closed = 1;
nodes = (
"227 757 LINE",
"227 852 LINE",
"320 852 LINE",
"320 757 LINE"
);
},
{
closed = 1;
nodes = (
"489 700 LINE",
"60 700 LINE",
"60 0 LINE",
"489 0 LINE",
"489 130 LINE",
"198 130 LINE",
"198 291 LINE",
"489 291 LINE",
"489 421 LINE",
"198 421 LINE",
"198 570 LINE",
"489 570 LINE"
);
},
{
closed = 1;
nodes = (
"177 592 LINE",
"177 400 LINE",
"468 400 LINE",
"468 312 LINE",
"177 312 LINE",
"177 109 LINE",
"468 109 LINE",
"468 21 LINE",
"81 21 LINE",
"81 679 LINE",
"468 679 LINE",
"468 592 LINE"
);
}
);
width = 536;
}
);
leftKerningGroup = I;
rightKerningGroup = E;
unicode = 0116;
},
{
glyphname = Egrave;
lastChange = "2018-03-01 09:51:33 +0000";
layers = (
{
anchors = (
{
name = top;
position = "{268, 667}";
}
);
layerId = "9540212F-C873-4039-900D-544C1C7D2862";
paths = (
{
closed = 1;
nodes = (
"330 747 LINE",
"247 878 LINE",
"115 878 LINE",
"107 860 LINE",
"220 730 LINE",
"321 730 LINE"
);
},
{
closed = 1;
nodes = (
"321 752 LINE",
"230 752 LINE",
"123 874 LINE",
"115 857 LINE",
"236 857 LINE",
"312 735 LINE"
);
},
{
closed = 1;
nodes = (
"489 700 LINE",
"60 700 LINE",
"60 0 LINE",
"489 0 LINE",
"489 130 LINE",
"198 130 LINE",
"198 291 LINE",
"489 291 LINE",
"489 421 LINE",
"198 421 LINE",
"198 570 LINE",
"489 570 LINE"
);
},
{
closed = 1;
nodes = (
"177 592 LINE",
"177 400 LINE",
"468 400 LINE",
"468 312 LINE",
"177 312 LINE",
"177 109 LINE",
"468 109 LINE",
"468 21 LINE",
"81 21 LINE",
"81 679 LINE",
"468 679 LINE",
"468 592 LINE"
);
}
);
width = 536;
},
{
anchors = (
{
name = top;
position = "{268, 667}";
}
);
associatedMasterId = "9540212F-C873-4039-900D-544C1C7D2862";
layerId = "8A6EA3AA-E1C3-4792-8F80-7787C2446294";
paths = (
{
closed = 1;
nodes = (
"330 747 LINE",
"247 878 LINE",
"115 878 LINE",
"107 860 LINE",
"220 730 LINE",
"321 730 LINE"
);
},
{
closed = 1;
nodes = (
"321 752 LINE",
"230 752 LINE",
"123 874 LINE",
"115 857 LINE",
"236 857 LINE",
"312 735 LINE"
);
},
{
closed = 1;
nodes = (
"489 700 LINE",
"60 700 LINE",
"60 0 LINE",
"489 0 LINE",
"489 130 LINE",
"198 130 LINE",
"198 291 LINE",
"489 291 LINE",
"489 421 LINE",
"198 421 LINE",
"198 570 LINE",
"489 570 LINE"
);
},
{
closed = 1;
nodes = (
"177 592 LINE",
"177 400 LINE",
"468 400 LINE",
"468 312 LINE",
"177 312 LINE",
"177 109 LINE",
"468 109 LINE",
"468 21 LINE",
"81 21 LINE",
"81 679 LINE",
"468 679 LINE",
"468 592 LINE"
);
}
);
width = 536;
}
);
leftKerningGroup = I;
rightKerningGroup = E;
unicode = 00C8;
},
{
glyphname = Emacron;
lastChange = "2018-03-01 09:51:33 +0000";
layers = (
{
anchors = (
{
name = top;
position = "{268, 667}";
}
);
layerId = "9540212F-C873-4039-900D-544C1C7D2862";
paths = (
{
closed = 1;
nodes = (
"420 842 LINE",
"126 842 LINE",
"126 751 LINE",
"420 751 LINE"
);
},
{
closed = 1;
nodes = (
"147 772 LINE",
"147 821 LINE",
"399 821 LINE",
"399 772 LINE"
);
},
{
closed = 1;
nodes = (
"489 700 LINE",
"60 700 LINE",
"60 0 LINE",
"489 0 LINE",
"489 130 LINE",
"198 130 LINE",
"198 291 LINE",
"489 291 LINE",
"489 421 LINE",
"198 421 LINE",
"198 570 LINE",
"489 570 LINE"
);
},
{
closed = 1;
nodes = (
"177 592 LINE",
"177 400 LINE",
"468 400 LINE",
"468 312 LINE",
"177 312 LINE",
"177 109 LINE",
"468 109 LINE",
"468 21 LINE",
"81 21 LINE",
"81 679 LINE",
"468 679 LINE",
"468 592 LINE"
);
}
);
width = 536;
},
{
anchors = (
{
name = top;
position = "{268, 667}";
}
);
associatedMasterId = "9540212F-C873-4039-900D-544C1C7D2862";
layerId = "8A6EA3AA-E1C3-4792-8F80-7787C2446294";
paths = (
{
closed = 1;
nodes = (
"420 842 LINE",
"126 842 LINE",
"126 751 LINE",
"420 751 LINE"
);
},
{
closed = 1;
nodes = (
"147 772 LINE",
"147 821 LINE",
"399 821 LINE",
"399 772 LINE"
);
},
{
closed = 1;
nodes = (
"489 700 LINE",
"60 700 LINE",
"60 0 LINE",
"489 0 LINE",
"489 130 LINE",
"198 130 LINE",
"198 291 LINE",
"489 291 LINE",
"489 421 LINE",
"198 421 LINE",
"198 570 LINE",
"489 570 LINE"
);
},
{
closed = 1;
nodes = (
"177 592 LINE",
"177 400 LINE",
"468 400 LINE",
"468 312 LINE",
"177 312 LINE",
"177 109 LINE",
"468 109 LINE",
"468 21 LINE",
"81 21 LINE",
"81 679 LINE",
"468 679 LINE",
"468 592 LINE"
);
}
);
width = 536;
}
);
leftKerningGroup = I;
rightKerningGroup = E;
unicode = 0112;
},
{
glyphname = Eogonek;
lastChange = "2018-03-01 09:51:33 +0000";
layers = (
{
anchors = (
{
name = top;
position = "{268, 667}";
}
);
layerId = "9540212F-C873-4039-900D-544C1C7D2862";
paths = (
{
closed = 1;
nodes = (
"489 570 LINE",
"489 700 LINE",
"60 700 LINE",
"60 0 LINE",
"320 0 LINE",
"314 19 LINE",
"280 -5 OFFCURVE",
"241 -52 OFFCURVE",
"241 -103 CURVE",
"241 -136 OFFCURVE",
"254 -162 OFFCURVE",
"274 -177 CURVE",
"294 -190 OFFCURVE",
"320 -197 OFFCURVE",
"347 -197 CURVE",
"380 -197 OFFCURVE",
"433 -185 OFFCURVE",
"491 -137 CURVE",
"446 -70 LINE",
"409 -92 OFFCURVE",
"387 -102 OFFCURVE",
"369 -99 CURVE",
"356 -97 OFFCURVE",
"352 -95 OFFCURVE",
"352 -84 CURVE",
"352 -68 OFFCURVE",
"400 -29 OFFCURVE",
"440 0 CURVE",
"489 0 LINE",
"489 130 LINE",
"198 130 LINE",
"198 291 LINE",
"489 291 LINE",
"489 421 LINE",
"198 421 LINE",
"198 570 LINE"
);
},
{
closed = 1;
nodes = (
"177 400 LINE",
"468 400 LINE",
"468 312 LINE",
"177 312 LINE",
"177 109 LINE",
"468 109 LINE",
"468 21 LINE",
"433 21 LINE",
"391 -9 OFFCURVE",
"331 -54 OFFCURVE",
"331 -84 CURVE",
"331 -110 OFFCURVE",
"350 -118 OFFCURVE",
"366 -120 CURVE",
"386 -123 OFFCURVE",
"410 -114 OFFCURVE",
"439 -99 CURVE",
"462 -132 LINE",
"415 -168 OFFCURVE",
"375 -176 OFFCURVE",
"347 -176 CURVE",
"322 -176 OFFCURVE",
"303 -171 OFFCURVE",
"286 -159 CURVE",
"270 -148 OFFCURVE",
"262 -131 OFFCURVE",
"262 -103 CURVE",
"262 -60 OFFCURVE",
"294 -20 OFFCURVE",
"326 2 CURVE",
"320 21 LINE",
"81 21 LINE",
"81 679 LINE",
"468 679 LINE",
"468 592 LINE",
"177 592 LINE"
);
}
);
width = 536;
},
{
anchors = (
{
name = top;
position = "{268, 667}";
}
);
associatedMasterId = "9540212F-C873-4039-900D-544C1C7D2862";
layerId = "8A6EA3AA-E1C3-4792-8F80-7787C2446294";
paths = (
{
closed = 1;
nodes = (
"489 570 LINE",
"489 700 LINE",
"60 700 LINE",
"60 0 LINE",
"320 0 LINE",
"314 19 LINE",
"280 -5 OFFCURVE",
"241 -52 OFFCURVE",
"241 -103 CURVE",
"241 -136 OFFCURVE",
"254 -162 OFFCURVE",
"274 -177 CURVE",
"294 -190 OFFCURVE",
"320 -197 OFFCURVE",
"347 -197 CURVE",
"380 -197 OFFCURVE",
"433 -185 OFFCURVE",
"491 -137 CURVE",
"446 -70 LINE",
"409 -92 OFFCURVE",
"387 -102 OFFCURVE",
"369 -99 CURVE",
"356 -97 OFFCURVE",
"352 -95 OFFCURVE",
"352 -84 CURVE",
"352 -68 OFFCURVE",
"400 -29 OFFCURVE",
"440 0 CURVE",
"489 0 LINE",
"489 130 LINE",
"198 130 LINE",
"198 291 LINE",
"489 291 LINE",
"489 421 LINE",
"198 421 LINE",
"198 570 LINE"
);
},
{
closed = 1;
nodes = (
"177 400 LINE",
"468 400 LINE",
"468 312 LINE",
"177 312 LINE",
"177 109 LINE",
"468 109 LINE",
"468 21 LINE",
"433 21 LINE",
"391 -9 OFFCURVE",
"331 -54 OFFCURVE",
"331 -84 CURVE",
"331 -110 OFFCURVE",
"350 -118 OFFCURVE",
"366 -120 CURVE",
"386 -123 OFFCURVE",
"410 -114 OFFCURVE",
"439 -99 CURVE",
"462 -132 LINE",
"415 -168 OFFCURVE",
"375 -176 OFFCURVE",
"347 -176 CURVE",
"322 -176 OFFCURVE",
"303 -171 OFFCURVE",
"286 -159 CURVE",
"270 -148 OFFCURVE",
"262 -131 OFFCURVE",
"262 -103 CURVE",
"262 -60 OFFCURVE",
"294 -20 OFFCURVE",
"326 2 CURVE",
"320 21 LINE",
"81 21 LINE",
"81 679 LINE",
"468 679 LINE",
"468 592 LINE",
"177 592 LINE"
);
}
);
width = 536;
}
);
leftKerningGroup = I;
rightKerningGroup = E;
unicode = 0118;
},
{
color = 5;
glyphname = F;
lastChange = "2018-03-01 09:51:33 +0000";
layers = (
{
guideLines = (
{
angle = 90;
position = "{493, 112}";
},
{
position = "{493, 300}";
},
{
position = "{493, 412}";
}
);
layerId = "9540212F-C873-4039-900D-544C1C7D2862";
paths = (
{
closed = 1;
nodes = (
"497 700 LINE",
"69 700 LINE",
"69 0 LINE",
"206 0 LINE",
"206 291 LINE",
"497 291 LINE",
"497 421 LINE",
"206 421 LINE",
"206 570 LINE",
"497 570 LINE"
);
},
{
closed = 1;
nodes = (
"185 591 LINE",
"185 399 LINE",
"476 399 LINE",
"476 312 LINE",
"185 312 LINE",
"185 21 LINE",
"90 21 LINE",
"90 679 LINE",
"476 679 LINE",
"476 591 LINE"
);
}
);
width = 543;
},
{
associatedMasterId = "9540212F-C873-4039-900D-544C1C7D2862";
guideLines = (
{
angle = 90;
position = "{493, 112}";
},
{
position = "{493, 300}";
},
{
position = "{493, 412}";
}
);
layerId = "8A6EA3AA-E1C3-4792-8F80-7787C2446294";
paths = (
{
closed = 1;
nodes = (
"497 700 LINE",
"69 700 LINE",
"69 0 LINE",
"206 0 LINE",
"206 291 LINE",
"497 291 LINE",
"497 421 LINE",
"206 421 LINE",
"206 570 LINE",
"497 570 LINE"
);
},
{
closed = 1;
nodes = (
"185 591 LINE",
"185 399 LINE",
"476 399 LINE",
"476 312 LINE",
"185 312 LINE",
"185 21 LINE",
"90 21 LINE",
"90 679 LINE",
"476 679 LINE",
"476 591 LINE"
);
}
);
width = 543;
}
);
leftKerningGroup = I;
rightKerningGroup = F;
unicode = 0046;
},
{
color = 5;
glyphname = G;
lastChange = "2018-03-01 09:51:33 +0000";
layers = (
{
anchors = (
{
name = bottom;
position = "{349, 0}";
},
{
name = top;
position = "{349, 690}";
}
);
guideLines = (
{
position = "{892, 716}";
},
{
position = "{901, 604}";
},
{
angle = 16;
position = "{49, 350}";
},
{
position = "{976, 369}";
},
{
position = "{949, 257}";
},
{
position = "{-58, 690}";
}
);
layerId = "9540212F-C873-4039-900D-544C1C7D2862";
paths = (
{
closed = 1;
nodes = (
"360 379 LINE",
"360 249 LINE",
"504 249 LINE",
"484 166 OFFCURVE",
"431 114 OFFCURVE",
"348 114 CURVE",
"239 114 OFFCURVE",
"185 202 OFFCURVE",
"185 333 CURVE",
"185 365 LINE",
"185 496 OFFCURVE",
"240 586 OFFCURVE",
"348 586 CURVE",
"426 586 OFFCURVE",
"477 539 OFFCURVE",
"499 465 CURVE",
"633 504 LINE",
"593 635 OFFCURVE",
"481 716 OFFCURVE",
"349 716 CURVE",
"180 716 OFFCURVE",
"47 586 OFFCURVE",
"47 385 CURVE",
"47 316 LINE",
"47 115 OFFCURVE",
"180 -16 OFFCURVE",
"349 -16 CURVE",
"517 -16 OFFCURVE",
"651 115 OFFCURVE",
"651 316 CURVE",
"651 379 LINE"
);
},
{
closed = 1;
nodes = (
"630 316 LINE",
"630 126 OFFCURVE",
"507 5 OFFCURVE",
"349 5 CURVE",
"190 5 OFFCURVE",
"68 126 OFFCURVE",
"68 316 CURVE",
"68 385 LINE",
"68 575 OFFCURVE",
"190 695 OFFCURVE",
"349 695 CURVE",
"465 695 OFFCURVE",
"564 628 OFFCURVE",
"606 518 CURVE",
"513 491 LINE",
"485 561 OFFCURVE",
"429 607 OFFCURVE",
"348 607 CURVE",
"225 607 OFFCURVE",
"164 503 OFFCURVE",
"164 365 CURVE",
"164 333 LINE",
"164 194 OFFCURVE",
"226 93 OFFCURVE",
"348 93 CURVE",
"451 93 OFFCURVE",
"514 165 OFFCURVE",
"530 270 CURVE",
"381 270 LINE",
"381 358 LINE",
"630 358 LINE"
);
}
);
width = 695;
},
{
anchors = (
{
name = bottom;
position = "{349, 0}";
},
{
name = top;
position = "{349, 690}";
}
);
associatedMasterId = "9540212F-C873-4039-900D-544C1C7D2862";
guideLines = (
{
position = "{892, 716}";
},
{
position = "{901, 604}";
},
{
angle = 16;
position = "{49, 350}";
},
{
position = "{976, 369}";
},
{
position = "{949, 257}";
},
{
position = "{-58, 690}";
}
);
layerId = "8A6EA3AA-E1C3-4792-8F80-7787C2446294";
paths = (
{
closed = 1;
nodes = (
"360 379 LINE",
"360 249 LINE",
"504 249 LINE",
"484 166 OFFCURVE",
"431 114 OFFCURVE",
"348 114 CURVE",
"239 114 OFFCURVE",
"185 202 OFFCURVE",
"185 333 CURVE",
"185 365 LINE",
"185 496 OFFCURVE",
"240 586 OFFCURVE",
"348 586 CURVE",
"426 586 OFFCURVE",
"477 539 OFFCURVE",
"499 465 CURVE",
"633 504 LINE",
"593 635 OFFCURVE",
"481 716 OFFCURVE",
"349 716 CURVE",
"180 716 OFFCURVE",
"47 586 OFFCURVE",
"47 385 CURVE",
"47 316 LINE",
"47 115 OFFCURVE",
"180 -16 OFFCURVE",
"349 -16 CURVE",
"517 -16 OFFCURVE",
"651 115 OFFCURVE",
"651 316 CURVE",
"651 379 LINE"
);
},
{
closed = 1;
nodes = (
"630 316 LINE",
"630 126 OFFCURVE",
"507 5 OFFCURVE",
"349 5 CURVE",
"190 5 OFFCURVE",
"68 126 OFFCURVE",
"68 316 CURVE",
"68 385 LINE",
"68 575 OFFCURVE",
"190 695 OFFCURVE",
"349 695 CURVE",
"465 695 OFFCURVE",
"564 628 OFFCURVE",
"606 518 CURVE",
"513 491 LINE",
"485 561 OFFCURVE",
"429 607 OFFCURVE",
"348 607 CURVE",
"225 607 OFFCURVE",
"164 503 OFFCURVE",
"164 365 CURVE",
"164 333 LINE",
"164 194 OFFCURVE",
"226 93 OFFCURVE",
"348 93 CURVE",
"451 93 OFFCURVE",
"514 165 OFFCURVE",
"530 270 CURVE",
"381 270 LINE",
"381 358 LINE",
"630 358 LINE"
);
}
);
width = 695;
}
);
leftKerningGroup = O;
rightKerningGroup = O;
unicode = 0047;
},
{
glyphname = Gbreve;
lastChange = "2018-03-01 09:51:33 +0000";
layers = (
{
anchors = (
{
name = bottom;
position = "{332, 21}";
},
{
name = top;
position = "{332, 677}";
}
);
layerId = "9540212F-C873-4039-900D-544C1C7D2862";
paths = (
{
closed = 1;
nodes = (
"363 740 LINE",
"394 740 OFFCURVE",
"428 751 OFFCURVE",
"449 776 CURVE",
"472 802 OFFCURVE",
"482 852 OFFCURVE",
"480 888 CURVE",
"385 888 LINE",
"391 867 OFFCURVE",
"377 827 OFFCURVE",
"350 827 CURVE",
"326 827 LINE",
"296 827 OFFCURVE",
"287 863 OFFCURVE",
"291 888 CURVE",
"196 888 LINE",
"194 852 OFFCURVE",
"203 801 OFFCURVE",
"228 775 CURVE",
"227 776 LINE",
"248 751 OFFCURVE",
"283 740 OFFCURVE",
"313 740 CURVE"
);
},
{
closed = 1;
nodes = (
"286 761 OFFCURVE",
"260 770 OFFCURVE",
"244 790 CURVE",
"243 790 LINE",
"227 807 OFFCURVE",
"219 837 OFFCURVE",
"218 866 CURVE",
"269 866 LINE",
"273 839 OFFCURVE",
"289 806 OFFCURVE",
"326 806 CURVE",
"350 806 LINE",
"386 806 OFFCURVE",
"403 838 OFFCURVE",
"407 866 CURVE",
"458 866 LINE",
"457 837 OFFCURVE",
"448 807 OFFCURVE",
"433 790 CURVE",
"416 770 OFFCURVE",
"390 761 OFFCURVE",
"363 761 CURVE",
"313 761 LINE"
);
},
{
closed = 1;
nodes = (
"349 379 LINE",
"349 249 LINE",
"493 249 LINE",
"474 166 OFFCURVE",
"421 114 OFFCURVE",
"338 114 CURVE",
"229 114 OFFCURVE",
"175 202 OFFCURVE",
"175 334 CURVE",
"175 365 LINE",
"175 496 OFFCURVE",
"229 586 OFFCURVE",
"338 586 CURVE",
"416 586 OFFCURVE",
"467 539 OFFCURVE",
"489 465 CURVE",
"623 504 LINE",
"583 635 OFFCURVE",
"471 716 OFFCURVE",
"339 716 CURVE",
"169 716 OFFCURVE",
"37 585 OFFCURVE",
"37 385 CURVE",
"37 316 LINE",
"37 116 OFFCURVE",
"169 -16 OFFCURVE",
"339 -16 CURVE",
"507 -16 OFFCURVE",
"640 116 OFFCURVE",
"640 316 CURVE",
"640 379 LINE"
);
},
{
closed = 1;
nodes = (
"619 316 LINE",
"619 127 OFFCURVE",
"496 6 OFFCURVE",
"339 6 CURVE",
"180 6 OFFCURVE",
"58 127 OFFCURVE",
"58 316 CURVE",
"58 385 LINE",
"58 575 OFFCURVE",
"180 695 OFFCURVE",
"339 695 CURVE",
"455 695 OFFCURVE",
"553 628 OFFCURVE",
"595 518 CURVE",
"502 491 LINE",
"475 561 OFFCURVE",
"418 607 OFFCURVE",
"338 607 CURVE",
"215 607 OFFCURVE",
"153 503 OFFCURVE",
"153 365 CURVE",
"153 334 LINE",
"153 194 OFFCURVE",
"215 93 OFFCURVE",
"338 93 CURVE",
"440 93 OFFCURVE",
"503 165 OFFCURVE",
"519 271 CURVE",
"371 271 LINE",
"371 358 LINE",
"619 358 LINE"
);
}
);
width = 674;
},
{
anchors = (
{
name = bottom;
position = "{332, 21}";
},
{
name = top;
position = "{332, 677}";
}
);
associatedMasterId = "9540212F-C873-4039-900D-544C1C7D2862";
layerId = "8A6EA3AA-E1C3-4792-8F80-7787C2446294";
paths = (
{
closed = 1;
nodes = (
"363 740 LINE",
"394 740 OFFCURVE",
"428 751 OFFCURVE",
"449 776 CURVE",
"472 802 OFFCURVE",
"482 852 OFFCURVE",
"480 888 CURVE",
"385 888 LINE",
"391 867 OFFCURVE",
"377 827 OFFCURVE",
"350 827 CURVE",
"326 827 LINE",
"296 827 OFFCURVE",
"287 863 OFFCURVE",
"291 888 CURVE",
"196 888 LINE",
"194 852 OFFCURVE",
"203 801 OFFCURVE",
"228 775 CURVE",
"227 776 LINE",
"248 751 OFFCURVE",
"283 740 OFFCURVE",
"313 740 CURVE"
);
},
{
closed = 1;
nodes = (
"286 761 OFFCURVE",
"260 770 OFFCURVE",
"244 790 CURVE",
"243 790 LINE",
"227 807 OFFCURVE",
"219 837 OFFCURVE",
"218 866 CURVE",
"269 866 LINE",
"273 839 OFFCURVE",
"289 806 OFFCURVE",
"326 806 CURVE",
"350 806 LINE",
"386 806 OFFCURVE",
"403 838 OFFCURVE",
"407 866 CURVE",
"458 866 LINE",
"457 837 OFFCURVE",
"448 807 OFFCURVE",
"433 790 CURVE",
"416 770 OFFCURVE",
"390 761 OFFCURVE",
"363 761 CURVE",
"313 761 LINE"
);
},
{
closed = 1;
nodes = (
"349 379 LINE",
"349 249 LINE",
"493 249 LINE",
"474 166 OFFCURVE",
"421 114 OFFCURVE",
"338 114 CURVE",
"229 114 OFFCURVE",
"175 202 OFFCURVE",
"175 334 CURVE",
"175 365 LINE",
"175 496 OFFCURVE",
"229 586 OFFCURVE",
"338 586 CURVE",
"416 586 OFFCURVE",
"467 539 OFFCURVE",
"489 465 CURVE",
"623 504 LINE",
"583 635 OFFCURVE",
"471 716 OFFCURVE",
"339 716 CURVE",
"169 716 OFFCURVE",
"37 585 OFFCURVE",
"37 385 CURVE",
"37 316 LINE",
"37 116 OFFCURVE",
"169 -16 OFFCURVE",
"339 -16 CURVE",
"507 -16 OFFCURVE",
"640 116 OFFCURVE",
"640 316 CURVE",
"640 379 LINE"
);
},
{
closed = 1;
nodes = (
"619 316 LINE",
"619 127 OFFCURVE",
"496 6 OFFCURVE",
"339 6 CURVE",
"180 6 OFFCURVE",
"58 127 OFFCURVE",
"58 316 CURVE",
"58 385 LINE",
"58 575 OFFCURVE",
"180 695 OFFCURVE",
"339 695 CURVE",
"455 695 OFFCURVE",
"553 628 OFFCURVE",
"595 518 CURVE",
"502 491 LINE",
"475 561 OFFCURVE",
"418 607 OFFCURVE",
"338 607 CURVE",
"215 607 OFFCURVE",
"153 503 OFFCURVE",
"153 365 CURVE",
"153 334 LINE",
"153 194 OFFCURVE",
"215 93 OFFCURVE",
"338 93 CURVE",
"440 93 OFFCURVE",
"503 165 OFFCURVE",
"519 271 CURVE",
"371 271 LINE",
"371 358 LINE",
"619 358 LINE"
);
}
);
width = 674;
}
);
leftKerningGroup = O;
rightKerningGroup = O;
unicode = 011E;
},
{
glyphname = Gcircumflex;
lastChange = "2018-03-01 09:51:33 +0000";
layers = (
{
anchors = (
{
name = bottom;
position = "{332, 21}";
},
{
name = top;
position = "{332, 677}";
}
);
layerId = "9540212F-C873-4039-900D-544C1C7D2862";
paths = (
{
closed = 1;
nodes = (
"338 800 LINE",
"380 740 LINE",
"484 740 LINE",
"492 757 LINE",
"391 888 LINE",
"285 888 LINE",
"184 757 LINE",
"192 740 LINE",
"296 740 LINE"
);
},
{
closed = 1;
nodes = (
"192 761 LINE",
"200 744 LINE",
"295 866 LINE",
"381 866 LINE",
"476 744 LINE",
"484 761 LINE",
"391 761 LINE",
"338 837 LINE",
"284 761 LINE"
);
},
{
closed = 1;
nodes = (
"349 379 LINE",
"349 249 LINE",
"493 249 LINE",
"474 166 OFFCURVE",
"421 114 OFFCURVE",
"338 114 CURVE",
"229 114 OFFCURVE",
"175 202 OFFCURVE",
"175 334 CURVE",
"175 365 LINE",
"175 496 OFFCURVE",
"229 586 OFFCURVE",
"338 586 CURVE",
"416 586 OFFCURVE",
"467 539 OFFCURVE",
"489 465 CURVE",
"623 504 LINE",
"583 635 OFFCURVE",
"471 716 OFFCURVE",
"339 716 CURVE",
"169 716 OFFCURVE",
"37 585 OFFCURVE",
"37 385 CURVE",
"37 316 LINE",
"37 116 OFFCURVE",
"169 -16 OFFCURVE",
"339 -16 CURVE",
"507 -16 OFFCURVE",
"640 116 OFFCURVE",
"640 316 CURVE",
"640 379 LINE"
);
},
{
closed = 1;
nodes = (
"619 316 LINE",
"619 127 OFFCURVE",
"496 6 OFFCURVE",
"339 6 CURVE",
"180 6 OFFCURVE",
"58 127 OFFCURVE",
"58 316 CURVE",
"58 385 LINE",
"58 575 OFFCURVE",
"180 695 OFFCURVE",
"339 695 CURVE",
"455 695 OFFCURVE",
"553 628 OFFCURVE",
"595 518 CURVE",
"502 491 LINE",
"475 561 OFFCURVE",
"418 607 OFFCURVE",
"338 607 CURVE",
"215 607 OFFCURVE",
"153 503 OFFCURVE",
"153 365 CURVE",
"153 334 LINE",
"153 194 OFFCURVE",
"215 93 OFFCURVE",
"338 93 CURVE",
"440 93 OFFCURVE",
"503 165 OFFCURVE",
"519 271 CURVE",
"371 271 LINE",
"371 358 LINE",
"619 358 LINE"
);
}
);
width = 674;
},
{
anchors = (
{
name = bottom;
position = "{332, 21}";
},
{
name = top;
position = "{332, 677}";
}
);
associatedMasterId = "9540212F-C873-4039-900D-544C1C7D2862";
layerId = "8A6EA3AA-E1C3-4792-8F80-7787C2446294";
paths = (
{
closed = 1;
nodes = (
"338 800 LINE",
"380 740 LINE",
"484 740 LINE",
"492 757 LINE",
"391 888 LINE",
"285 888 LINE",
"184 757 LINE",
"192 740 LINE",
"296 740 LINE"
);
},
{
closed = 1;
nodes = (
"192 761 LINE",
"200 744 LINE",
"295 866 LINE",
"381 866 LINE",
"476 744 LINE",
"484 761 LINE",
"391 761 LINE",
"338 837 LINE",
"284 761 LINE"
);
},
{
closed = 1;
nodes = (
"349 379 LINE",
"349 249 LINE",
"493 249 LINE",
"474 166 OFFCURVE",
"421 114 OFFCURVE",
"338 114 CURVE",
"229 114 OFFCURVE",
"175 202 OFFCURVE",
"175 334 CURVE",
"175 365 LINE",
"175 496 OFFCURVE",
"229 586 OFFCURVE",
"338 586 CURVE",
"416 586 OFFCURVE",
"467 539 OFFCURVE",
"489 465 CURVE",
"623 504 LINE",
"583 635 OFFCURVE",
"471 716 OFFCURVE",
"339 716 CURVE",
"169 716 OFFCURVE",
"37 585 OFFCURVE",
"37 385 CURVE",
"37 316 LINE",
"37 116 OFFCURVE",
"169 -16 OFFCURVE",
"339 -16 CURVE",
"507 -16 OFFCURVE",
"640 116 OFFCURVE",
"640 316 CURVE",
"640 379 LINE"
);
},
{
closed = 1;
nodes = (
"619 316 LINE",
"619 127 OFFCURVE",
"496 6 OFFCURVE",
"339 6 CURVE",
"180 6 OFFCURVE",
"58 127 OFFCURVE",
"58 316 CURVE",
"58 385 LINE",
"58 575 OFFCURVE",
"180 695 OFFCURVE",
"339 695 CURVE",
"455 695 OFFCURVE",
"553 628 OFFCURVE",
"595 518 CURVE",
"502 491 LINE",
"475 561 OFFCURVE",
"418 607 OFFCURVE",
"338 607 CURVE",
"215 607 OFFCURVE",
"153 503 OFFCURVE",
"153 365 CURVE",
"153 334 LINE",
"153 194 OFFCURVE",
"215 93 OFFCURVE",
"338 93 CURVE",
"440 93 OFFCURVE",
"503 165 OFFCURVE",
"519 271 CURVE",
"371 271 LINE",
"371 358 LINE",
"619 358 LINE"
);
}
);
width = 674;
}
);
leftKerningGroup = O;
rightKerningGroup = O;
unicode = 011C;
},
{
glyphname = Gcommaaccent;
lastChange = "2018-03-01 09:51:33 +0000";
layers = (
{
anchors = (
{
name = bottom;
position = "{342, 21}";
},
{
name = top;
position = "{342, 677}";
}
);
layerId = "9540212F-C873-4039-900D-544C1C7D2862";
leftMetricsKey = "=G";
rightMetricsKey = "=G";
paths = (
{
closed = 1;
nodes = (
"359 379 LINE",
"359 249 LINE",
"503 249 LINE",
"484 166 OFFCURVE",
"431 114 OFFCURVE",
"348 114 CURVE",
"239 114 OFFCURVE",
"185 202 OFFCURVE",
"185 334 CURVE",
"185 365 LINE",
"185 496 OFFCURVE",
"239 586 OFFCURVE",
"348 586 CURVE",
"426 586 OFFCURVE",
"477 539 OFFCURVE",
"499 465 CURVE",
"633 504 LINE",
"593 635 OFFCURVE",
"481 716 OFFCURVE",
"349 716 CURVE",
"179 716 OFFCURVE",
"47 585 OFFCURVE",
"47 385 CURVE",
"47 316 LINE",
"47 116 OFFCURVE",
"179 -16 OFFCURVE",
"349 -16 CURVE",
"517 -16 OFFCURVE",
"650 116 OFFCURVE",
"650 316 CURVE",
"650 379 LINE"
);
},
{
closed = 1;
nodes = (
"629 316 LINE",
"629 127 OFFCURVE",
"506 6 OFFCURVE",
"349 6 CURVE",
"190 6 OFFCURVE",
"68 127 OFFCURVE",
"68 316 CURVE",
"68 385 LINE",
"68 575 OFFCURVE",
"190 695 OFFCURVE",
"349 695 CURVE",
"465 695 OFFCURVE",
"563 628 OFFCURVE",
"605 518 CURVE",
"512 491 LINE",
"485 561 OFFCURVE",
"428 607 OFFCURVE",
"348 607 CURVE",
"225 607 OFFCURVE",
"163 503 OFFCURVE",
"163 365 CURVE",
"163 334 LINE",
"163 194 OFFCURVE",
"225 93 OFFCURVE",
"348 93 CURVE",
"450 93 OFFCURVE",
"513 165 OFFCURVE",
"529 271 CURVE",
"381 271 LINE",
"381 358 LINE",
"629 358 LINE"
);
},
{
closed = 1;
nodes = (
"260 -171 LINE",
"313 -171 LINE",
"282 -260 LINE",
"366 -260 LINE",
"400 -162 LINE",
"400 -35 LINE",
"260 -35 LINE"
);
},
{
closed = 1;
nodes = (
"379 -56 LINE",
"379 -158 LINE",
"351 -239 LINE",
"312 -239 LINE",
"343 -149 LINE",
"282 -149 LINE",
"282 -56 LINE"
);
}
);
width = 694;
},
{
anchors = (
{
name = bottom;
position = "{342, 21}";
},
{
name = top;
position = "{342, 677}";
}
);
associatedMasterId = "9540212F-C873-4039-900D-544C1C7D2862";
layerId = "8A6EA3AA-E1C3-4792-8F80-7787C2446294";
leftMetricsKey = "=G";
rightMetricsKey = "=G";
paths = (
{
closed = 1;
nodes = (
"359 379 LINE",
"359 249 LINE",
"503 249 LINE",
"484 166 OFFCURVE",
"431 114 OFFCURVE",
"348 114 CURVE",
"239 114 OFFCURVE",
"185 202 OFFCURVE",
"185 334 CURVE",
"185 365 LINE",
"185 496 OFFCURVE",
"239 586 OFFCURVE",
"348 586 CURVE",
"426 586 OFFCURVE",
"477 539 OFFCURVE",
"499 465 CURVE",
"633 504 LINE",
"593 635 OFFCURVE",
"481 716 OFFCURVE",
"349 716 CURVE",
"179 716 OFFCURVE",
"47 585 OFFCURVE",
"47 385 CURVE",
"47 316 LINE",
"47 116 OFFCURVE",
"179 -16 OFFCURVE",
"349 -16 CURVE",
"517 -16 OFFCURVE",
"650 116 OFFCURVE",
"650 316 CURVE",
"650 379 LINE"
);
},
{
closed = 1;
nodes = (
"629 316 LINE",
"629 127 OFFCURVE",
"506 6 OFFCURVE",
"349 6 CURVE",
"190 6 OFFCURVE",
"68 127 OFFCURVE",
"68 316 CURVE",
"68 385 LINE",
"68 575 OFFCURVE",
"190 695 OFFCURVE",
"349 695 CURVE",
"465 695 OFFCURVE",
"563 628 OFFCURVE",
"605 518 CURVE",
"512 491 LINE",
"485 561 OFFCURVE",
"428 607 OFFCURVE",
"348 607 CURVE",
"225 607 OFFCURVE",
"163 503 OFFCURVE",
"163 365 CURVE",
"163 334 LINE",
"163 194 OFFCURVE",
"225 93 OFFCURVE",
"348 93 CURVE",
"450 93 OFFCURVE",
"513 165 OFFCURVE",
"529 271 CURVE",
"381 271 LINE",
"381 358 LINE",
"629 358 LINE"
);
},
{
closed = 1;
nodes = (
"260 -171 LINE",
"313 -171 LINE",
"282 -260 LINE",
"366 -260 LINE",
"400 -162 LINE",
"400 -35 LINE",
"260 -35 LINE"
);
},
{
closed = 1;
nodes = (
"379 -56 LINE",
"379 -158 LINE",
"351 -239 LINE",
"312 -239 LINE",
"343 -149 LINE",
"282 -149 LINE",
"282 -56 LINE"
);
}
);
width = 694;
}
);
leftKerningGroup = O;
leftMetricsKey = G;
rightKerningGroup = O;
rightMetricsKey = G;
unicode = 0122;
},
{
glyphname = Gdotaccent;
lastChange = "2018-03-01 09:51:33 +0000";
layers = (
{
anchors = (
{
name = bottom;
position = "{332, 21}";
},
{
name = top;
position = "{332, 677}";
}
);
layerId = "9540212F-C873-4039-900D-544C1C7D2862";
paths = (
{
closed = 1;
nodes = (
"406 883 LINE",
"271 883 LINE",
"271 745 LINE",
"406 745 LINE"
);
},
{
closed = 1;
nodes = (
"292 766 LINE",
"292 861 LINE",
"385 861 LINE",
"385 766 LINE"
);
},
{
closed = 1;
nodes = (
"349 379 LINE",
"349 249 LINE",
"493 249 LINE",
"474 166 OFFCURVE",
"421 114 OFFCURVE",
"338 114 CURVE",
"229 114 OFFCURVE",
"175 202 OFFCURVE",
"175 334 CURVE",
"175 365 LINE",
"175 496 OFFCURVE",
"229 586 OFFCURVE",
"338 586 CURVE",
"416 586 OFFCURVE",
"467 539 OFFCURVE",
"489 465 CURVE",
"623 504 LINE",
"583 635 OFFCURVE",
"471 716 OFFCURVE",
"339 716 CURVE",
"169 716 OFFCURVE",
"37 585 OFFCURVE",
"37 385 CURVE",
"37 316 LINE",
"37 116 OFFCURVE",
"169 -16 OFFCURVE",
"339 -16 CURVE",
"507 -16 OFFCURVE",
"640 116 OFFCURVE",
"640 316 CURVE",
"640 379 LINE"
);
},
{
closed = 1;
nodes = (
"619 316 LINE",
"619 127 OFFCURVE",
"496 6 OFFCURVE",
"339 6 CURVE",
"180 6 OFFCURVE",
"58 127 OFFCURVE",
"58 316 CURVE",
"58 385 LINE",
"58 575 OFFCURVE",
"180 695 OFFCURVE",
"339 695 CURVE",
"455 695 OFFCURVE",
"553 628 OFFCURVE",
"595 518 CURVE",
"502 491 LINE",
"475 561 OFFCURVE",
"418 607 OFFCURVE",
"338 607 CURVE",
"215 607 OFFCURVE",
"153 503 OFFCURVE",
"153 365 CURVE",
"153 334 LINE",
"153 194 OFFCURVE",
"215 93 OFFCURVE",
"338 93 CURVE",
"440 93 OFFCURVE",
"503 165 OFFCURVE",
"519 271 CURVE",
"371 271 LINE",
"371 358 LINE",
"619 358 LINE"
);
}
);
width = 674;
},
{
anchors = (
{
name = bottom;
position = "{332, 21}";
},
{
name = top;
position = "{332, 677}";
}
);
associatedMasterId = "9540212F-C873-4039-900D-544C1C7D2862";
layerId = "8A6EA3AA-E1C3-4792-8F80-7787C2446294";
paths = (
{
closed = 1;
nodes = (
"406 883 LINE",
"271 883 LINE",
"271 745 LINE",
"406 745 LINE"
);
},
{
closed = 1;
nodes = (
"292 766 LINE",
"292 861 LINE",
"385 861 LINE",
"385 766 LINE"
);
},
{
closed = 1;
nodes = (
"349 379 LINE",
"349 249 LINE",
"493 249 LINE",
"474 166 OFFCURVE",
"421 114 OFFCURVE",
"338 114 CURVE",
"229 114 OFFCURVE",
"175 202 OFFCURVE",
"175 334 CURVE",
"175 365 LINE",
"175 496 OFFCURVE",
"229 586 OFFCURVE",
"338 586 CURVE",
"416 586 OFFCURVE",
"467 539 OFFCURVE",
"489 465 CURVE",
"623 504 LINE",
"583 635 OFFCURVE",
"471 716 OFFCURVE",
"339 716 CURVE",
"169 716 OFFCURVE",
"37 585 OFFCURVE",
"37 385 CURVE",
"37 316 LINE",
"37 116 OFFCURVE",
"169 -16 OFFCURVE",
"339 -16 CURVE",
"507 -16 OFFCURVE",
"640 116 OFFCURVE",
"640 316 CURVE",
"640 379 LINE"
);
},
{
closed = 1;
nodes = (
"619 316 LINE",
"619 127 OFFCURVE",
"496 6 OFFCURVE",
"339 6 CURVE",
"180 6 OFFCURVE",
"58 127 OFFCURVE",
"58 316 CURVE",
"58 385 LINE",
"58 575 OFFCURVE",
"180 695 OFFCURVE",
"339 695 CURVE",
"455 695 OFFCURVE",
"553 628 OFFCURVE",
"595 518 CURVE",
"502 491 LINE",
"475 561 OFFCURVE",
"418 607 OFFCURVE",
"338 607 CURVE",
"215 607 OFFCURVE",
"153 503 OFFCURVE",
"153 365 CURVE",
"153 334 LINE",
"153 194 OFFCURVE",
"215 93 OFFCURVE",
"338 93 CURVE",
"440 93 OFFCURVE",
"503 165 OFFCURVE",
"519 271 CURVE",
"371 271 LINE",
"371 358 LINE",
"619 358 LINE"
);
}
);
width = 674;
}
);
leftKerningGroup = O;
rightKerningGroup = O;
unicode = 0120;
},
{
color = 5;
glyphname = H;
lastChange = "2018-03-01 09:51:33 +0000";
layers = (
{
anchors = (
{
name = top;
position = "{328, 680}";
}
);
guideLines = (
{
position = "{463, 300}";
},
{
position = "{463, 412}";
},
{
position = "{43, 680}";
}
);
layerId = "9540212F-C873-4039-900D-544C1C7D2862";
paths = (
{
closed = 1;
nodes = (
"586 700 LINE",
"448 700 LINE",
"448 421 LINE",
"208 421 LINE",
"208 700 LINE",
"70 700 LINE",
"70 0 LINE",
"208 0 LINE",
"208 291 LINE",
"448 291 LINE",
"448 0 LINE",
"586 0 LINE"
);
},
{
closed = 1;
nodes = (
"470 21 LINE",
"470 312 LINE",
"186 312 LINE",
"186 21 LINE",
"91 21 LINE",
"91 679 LINE",
"186 679 LINE",
"186 399 LINE",
"470 399 LINE",
"470 679 LINE",
"565 679 LINE",
"565 21 LINE"
);
}
);
width = 656;
},
{
anchors = (
{
name = top;
position = "{328, 680}";
}
);
associatedMasterId = "9540212F-C873-4039-900D-544C1C7D2862";
guideLines = (
{
position = "{463, 300}";
},
{
position = "{463, 412}";
},
{
position = "{43, 680}";
}
);
layerId = "8A6EA3AA-E1C3-4792-8F80-7787C2446294";
paths = (
{
closed = 1;
nodes = (
"586 700 LINE",
"448 700 LINE",
"448 421 LINE",
"208 421 LINE",
"208 700 LINE",
"70 700 LINE",
"70 0 LINE",
"208 0 LINE",
"208 291 LINE",
"448 291 LINE",
"448 0 LINE",
"586 0 LINE"
);
},
{
closed = 1;
nodes = (
"470 21 LINE",
"470 312 LINE",
"186 312 LINE",
"186 21 LINE",
"91 21 LINE",
"91 679 LINE",
"186 679 LINE",
"186 399 LINE",
"470 399 LINE",
"470 679 LINE",
"565 679 LINE",
"565 21 LINE"
);
}
);
width = 656;
}
);
leftKerningGroup = I;
rightKerningGroup = I;
unicode = 0048;
},
{
glyphname = Hbar;
lastChange = "2018-03-01 09:51:33 +0000";
layers = (
{
layerId = "9540212F-C873-4039-900D-544C1C7D2862";
paths = (
{
closed = 1;
nodes = (
"614 586 LINE",
"574 586 LINE",
"574 700 LINE",
"437 700 LINE",
"437 586 LINE",
"196 586 LINE",
"196 700 LINE",
"58 700 LINE",
"58 586 LINE",
"17 586 LINE",
"17 492 LINE",
"58 492 LINE",
"58 0 LINE",
"196 0 LINE",
"196 291 LINE",
"437 291 LINE",
"437 0 LINE",
"574 0 LINE",
"574 492 LINE",
"614 492 LINE"
);
},
{
closed = 1;
nodes = (
"553 513 LINE",
"553 21 LINE",
"458 21 LINE",
"458 312 LINE",
"175 312 LINE",
"175 21 LINE",
"80 21 LINE",
"80 513 LINE",
"39 513 LINE",
"39 565 LINE",
"80 565 LINE",
"80 679 LINE",
"175 679 LINE",
"175 565 LINE",
"458 565 LINE",
"458 679 LINE",
"553 679 LINE",
"553 565 LINE",
"593 565 LINE",
"593 513 LINE"
);
},
{
closed = 1;
nodes = (
"437 421 LINE",
"196 421 LINE",
"196 492 LINE",
"437 492 LINE"
);
},
{
closed = 1;
nodes = (
"175 513 LINE",
"175 400 LINE",
"458 400 LINE",
"458 513 LINE"
);
}
);
width = 631;
},
{
associatedMasterId = "9540212F-C873-4039-900D-544C1C7D2862";
layerId = "8A6EA3AA-E1C3-4792-8F80-7787C2446294";
paths = (
{
closed = 1;
nodes = (
"614 586 LINE",
"574 586 LINE",
"574 700 LINE",
"437 700 LINE",
"437 586 LINE",
"196 586 LINE",
"196 700 LINE",
"58 700 LINE",
"58 586 LINE",
"17 586 LINE",
"17 492 LINE",
"58 492 LINE",
"58 0 LINE",
"196 0 LINE",
"196 291 LINE",
"437 291 LINE",
"437 0 LINE",
"574 0 LINE",
"574 492 LINE",
"614 492 LINE"
);
},
{
closed = 1;
nodes = (
"553 513 LINE",
"553 21 LINE",
"458 21 LINE",
"458 312 LINE",
"175 312 LINE",
"175 21 LINE",
"80 21 LINE",
"80 513 LINE",
"39 513 LINE",
"39 565 LINE",
"80 565 LINE",
"80 679 LINE",
"175 679 LINE",
"175 565 LINE",
"458 565 LINE",
"458 679 LINE",
"553 679 LINE",
"553 565 LINE",
"593 565 LINE",
"593 513 LINE"
);
},
{
closed = 1;
nodes = (
"437 421 LINE",
"196 421 LINE",
"196 492 LINE",
"437 492 LINE"
);
},
{
closed = 1;
nodes = (
"175 513 LINE",
"175 400 LINE",
"458 400 LINE",
"458 513 LINE"
);
}
);
width = 631;
}
);
leftKerningGroup = I;
rightKerningGroup = I;
unicode = 0126;
},
{
glyphname = Hcircumflex;
lastChange = "2018-03-01 09:51:33 +0000";
layers = (
{
anchors = (
{
name = top;
position = "{311, 667}";
}
);
layerId = "9540212F-C873-4039-900D-544C1C7D2862";
paths = (
{
closed = 1;
nodes = (
"472 748 LINE",
"371 878 LINE",
"264 878 LINE",
"163 748 LINE",
"172 730 LINE",
"275 730 LINE",
"317 790 LINE",
"359 730 LINE",
"464 730 LINE"
);
},
{
closed = 1;
nodes = (
"464 752 LINE",
"370 752 LINE",
"317 828 LINE",
"264 752 LINE",
"172 752 LINE",
"180 735 LINE",
"275 857 LINE",
"360 857 LINE",
"455 735 LINE"
);
},
{
closed = 1;
nodes = (
"576 700 LINE",
"438 700 LINE",
"438 421 LINE",
"198 421 LINE",
"198 700 LINE",
"60 700 LINE",
"60 0 LINE",
"198 0 LINE",
"198 291 LINE",
"438 291 LINE",
"438 0 LINE",
"576 0 LINE"
);
},
{
closed = 1;
nodes = (
"460 21 LINE",
"460 312 LINE",
"177 312 LINE",
"177 21 LINE",
"81 21 LINE",
"81 679 LINE",
"177 679 LINE",
"177 400 LINE",
"460 400 LINE",
"460 679 LINE",
"555 679 LINE",
"555 21 LINE"
);
}
);
width = 636;
},
{
anchors = (
{
name = top;
position = "{311, 667}";
}
);
associatedMasterId = "9540212F-C873-4039-900D-544C1C7D2862";
layerId = "8A6EA3AA-E1C3-4792-8F80-7787C2446294";
paths = (
{
closed = 1;
nodes = (
"472 748 LINE",
"371 878 LINE",
"264 878 LINE",
"163 748 LINE",
"172 730 LINE",
"275 730 LINE",
"317 790 LINE",
"359 730 LINE",
"464 730 LINE"
);
},
{
closed = 1;
nodes = (
"464 752 LINE",
"370 752 LINE",
"317 828 LINE",
"264 752 LINE",
"172 752 LINE",
"180 735 LINE",
"275 857 LINE",
"360 857 LINE",
"455 735 LINE"
);
},
{
closed = 1;
nodes = (
"576 700 LINE",
"438 700 LINE",
"438 421 LINE",
"198 421 LINE",
"198 700 LINE",
"60 700 LINE",
"60 0 LINE",
"198 0 LINE",
"198 291 LINE",
"438 291 LINE",
"438 0 LINE",
"576 0 LINE"
);
},
{
closed = 1;
nodes = (
"460 21 LINE",
"460 312 LINE",
"177 312 LINE",
"177 21 LINE",
"81 21 LINE",
"81 679 LINE",
"177 679 LINE",
"177 400 LINE",
"460 400 LINE",
"460 679 LINE",
"555 679 LINE",
"555 21 LINE"
);
}
);
width = 636;
}
);
leftKerningGroup = I;
rightKerningGroup = I;
unicode = 0124;
},
{
color = 5;
glyphname = I;
lastChange = "2018-03-01 09:51:33 +0000";
layers = (
{
anchors = (
{
name = ogonek;
position = "{130, 11}";
},
{
name = top;
position = "{130, 677}";
}
);
guideLines = (
{
position = "{43, 680}";
}
);
layerId = "9540212F-C873-4039-900D-544C1C7D2862";
paths = (
{
closed = 1;
nodes = (
"198 697 LINE",
"63 697 LINE",
"63 11 LINE",
"198 11 LINE"
);
},
{
closed = 1;
nodes = (
"83 31 LINE",
"83 676 LINE",
"177 676 LINE",
"177 31 LINE"
);
}
);
width = 261;
},
{
anchors = (
{
name = ogonek;
position = "{130, 11}";
},
{
name = top;
position = "{130, 677}";
}
);
associatedMasterId = "9540212F-C873-4039-900D-544C1C7D2862";
guideLines = (
{
position = "{43, 680}";
}
);
layerId = "8A6EA3AA-E1C3-4792-8F80-7787C2446294";
paths = (
{
closed = 1;
nodes = (
"198 697 LINE",
"63 697 LINE",
"63 11 LINE",
"198 11 LINE"
);
},
{
closed = 1;
nodes = (
"83 31 LINE",
"83 676 LINE",
"177 676 LINE",
"177 31 LINE"
);
}
);
width = 261;
}
);
leftKerningGroup = I;
rightKerningGroup = I;
unicode = 0049;
},
{
glyphname = Iacute;
lastChange = "2018-03-01 09:51:33 +0000";
layers = (
{
anchors = (
{
name = ogonek;
position = "{126, 21}";
},
{
name = top;
position = "{126, 667}";
}
);
layerId = "9540212F-C873-4039-900D-544C1C7D2862";
paths = (
{
closed = 1;
nodes = (
"294 860 LINE",
"286 878 LINE",
"154 878 LINE",
"71 747 LINE",
"81 730 LINE",
"181 730 LINE"
);
},
{
closed = 1;
nodes = (
"81 752 LINE",
"90 735 LINE",
"166 857 LINE",
"286 857 LINE",
"278 874 LINE",
"172 752 LINE"
);
},
{
closed = 1;
nodes = (
"198 700 LINE",
"60 700 LINE",
"60 0 LINE",
"198 0 LINE"
);
},
{
closed = 1;
nodes = (
"81 21 LINE",
"81 679 LINE",
"177 679 LINE",
"177 21 LINE"
);
}
);
width = 258;
},
{
anchors = (
{
name = ogonek;
position = "{126, 21}";
},
{
name = top;
position = "{126, 667}";
}
);
associatedMasterId = "9540212F-C873-4039-900D-544C1C7D2862";
layerId = "8A6EA3AA-E1C3-4792-8F80-7787C2446294";
paths = (
{
closed = 1;
nodes = (
"294 860 LINE",
"286 878 LINE",
"154 878 LINE",
"71 747 LINE",
"81 730 LINE",
"181 730 LINE"
);
},
{
closed = 1;
nodes = (
"81 752 LINE",
"90 735 LINE",
"166 857 LINE",
"286 857 LINE",
"278 874 LINE",
"172 752 LINE"
);
},
{
closed = 1;
nodes = (
"198 700 LINE",
"60 700 LINE",
"60 0 LINE",
"198 0 LINE"
);
},
{
closed = 1;
nodes = (
"81 21 LINE",
"81 679 LINE",
"177 679 LINE",
"177 21 LINE"
);
}
);
width = 258;
}
);
leftKerningGroup = I;
rightKerningGroup = I;
unicode = 00CD;
},
{
glyphname = Ibreve;
lastChange = "2018-03-01 09:51:33 +0000";
layers = (
{
anchors = (
{
name = ogonek;
position = "{126, 21}";
},
{
name = top;
position = "{126, 667}";
}
);
layerId = "9540212F-C873-4039-900D-544C1C7D2862";
paths = (
{
closed = 1;
nodes = (
"175 878 LINE",
"181 858 OFFCURVE",
"168 818 OFFCURVE",
"141 818 CURVE",
"116 818 LINE",
"87 818 OFFCURVE",
"78 853 OFFCURVE",
"81 878 CURVE",
"-13 878 LINE",
"-16 843 OFFCURVE",
"-6 792 OFFCURVE",
"18 766 CURVE",
"18 766 LINE",
"38 742 OFFCURVE",
"73 730 OFFCURVE",
"104 730 CURVE",
"153 730 LINE",
"184 730 OFFCURVE",
"219 742 OFFCURVE",
"240 766 CURVE",
"262 792 OFFCURVE",
"273 842 OFFCURVE",
"270 878 CURVE"
);
},
{
closed = 1;
nodes = (
"247 828 OFFCURVE",
"239 797 OFFCURVE",
"224 780 CURVE",
"206 760 OFFCURVE",
"181 752 OFFCURVE",
"153 752 CURVE",
"104 752 LINE",
"76 752 OFFCURVE",
"51 760 OFFCURVE",
"34 780 CURVE",
"34 780 LINE",
"18 798 OFFCURVE",
"10 828 OFFCURVE",
"8 857 CURVE",
"60 857 LINE",
"63 829 OFFCURVE",
"79 796 OFFCURVE",
"116 796 CURVE",
"141 796 LINE",
"177 796 OFFCURVE",
"194 829 OFFCURVE",
"197 857 CURVE",
"249 857 LINE"
);
},
{
closed = 1;
nodes = (
"198 700 LINE",
"60 700 LINE",
"60 0 LINE",
"198 0 LINE"
);
},
{
closed = 1;
nodes = (
"81 21 LINE",
"81 679 LINE",
"177 679 LINE",
"177 21 LINE"
);
}
);
width = 258;
},
{
anchors = (
{
name = ogonek;
position = "{126, 21}";
},
{
name = top;
position = "{126, 667}";
}
);
associatedMasterId = "9540212F-C873-4039-900D-544C1C7D2862";
layerId = "8A6EA3AA-E1C3-4792-8F80-7787C2446294";
paths = (
{
closed = 1;
nodes = (
"175 878 LINE",
"181 858 OFFCURVE",
"168 818 OFFCURVE",
"141 818 CURVE",
"116 818 LINE",
"87 818 OFFCURVE",
"78 853 OFFCURVE",
"81 878 CURVE",
"-13 878 LINE",
"-16 843 OFFCURVE",
"-6 792 OFFCURVE",
"18 766 CURVE",
"18 766 LINE",
"38 742 OFFCURVE",
"73 730 OFFCURVE",
"104 730 CURVE",
"153 730 LINE",
"184 730 OFFCURVE",
"219 742 OFFCURVE",
"240 766 CURVE",
"262 792 OFFCURVE",
"273 842 OFFCURVE",
"270 878 CURVE"
);
},
{
closed = 1;
nodes = (
"247 828 OFFCURVE",
"239 797 OFFCURVE",
"224 780 CURVE",
"206 760 OFFCURVE",
"181 752 OFFCURVE",
"153 752 CURVE",
"104 752 LINE",
"76 752 OFFCURVE",
"51 760 OFFCURVE",
"34 780 CURVE",
"34 780 LINE",
"18 798 OFFCURVE",
"10 828 OFFCURVE",
"8 857 CURVE",
"60 857 LINE",
"63 829 OFFCURVE",
"79 796 OFFCURVE",
"116 796 CURVE",
"141 796 LINE",
"177 796 OFFCURVE",
"194 829 OFFCURVE",
"197 857 CURVE",
"249 857 LINE"
);
},
{
closed = 1;
nodes = (
"198 700 LINE",
"60 700 LINE",
"60 0 LINE",
"198 0 LINE"
);
},
{
closed = 1;
nodes = (
"81 21 LINE",
"81 679 LINE",
"177 679 LINE",
"177 21 LINE"
);
}
);
width = 258;
}
);
leftKerningGroup = I;
rightKerningGroup = I;
unicode = 012C;
},
{
glyphname = Icircumflex;
lastChange = "2018-03-01 09:51:33 +0000";
layers = (
{
anchors = (
{
name = ogonek;
position = "{126, 21}";
},
{
name = top;
position = "{126, 667}";
}
);
layerId = "9540212F-C873-4039-900D-544C1C7D2862";
paths = (
{
closed = 1;
nodes = (
"283 748 LINE",
"182 878 LINE",
"75 878 LINE",
"-26 748 LINE",
"-17 730 LINE",
"86 730 LINE",
"128 790 LINE",
"170 730 LINE",
"275 730 LINE"
);
},
{
closed = 1;
nodes = (
"275 752 LINE",
"181 752 LINE",
"128 828 LINE",
"75 752 LINE",
"-17 752 LINE",
"-9 735 LINE",
"86 857 LINE",
"171 857 LINE",
"266 735 LINE"
);
},
{
closed = 1;
nodes = (
"198 700 LINE",
"60 700 LINE",
"60 0 LINE",
"198 0 LINE"
);
},
{
closed = 1;
nodes = (
"81 21 LINE",
"81 679 LINE",
"177 679 LINE",
"177 21 LINE"
);
}
);
width = 258;
},
{
anchors = (
{
name = ogonek;
position = "{126, 21}";
},
{
name = top;
position = "{126, 667}";
}
);
associatedMasterId = "9540212F-C873-4039-900D-544C1C7D2862";
layerId = "8A6EA3AA-E1C3-4792-8F80-7787C2446294";
paths = (
{
closed = 1;
nodes = (
"283 748 LINE",
"182 878 LINE",
"75 878 LINE",
"-26 748 LINE",
"-17 730 LINE",
"86 730 LINE",
"128 790 LINE",
"170 730 LINE",
"275 730 LINE"
);
},
{
closed = 1;
nodes = (
"275 752 LINE",
"181 752 LINE",
"128 828 LINE",
"75 752 LINE",
"-17 752 LINE",
"-9 735 LINE",
"86 857 LINE",
"171 857 LINE",
"266 735 LINE"
);
},
{
closed = 1;
nodes = (
"198 700 LINE",
"60 700 LINE",
"60 0 LINE",
"198 0 LINE"
);
},
{
closed = 1;
nodes = (
"81 21 LINE",
"81 679 LINE",
"177 679 LINE",
"177 21 LINE"
);
}
);
width = 258;
}
);
leftKerningGroup = I;
rightKerningGroup = I;
unicode = 00CE;
},
{
glyphname = Idieresis;
lastChange = "2018-03-01 09:51:33 +0000";
layers = (
{
anchors = (
{
name = ogonek;
position = "{126, 21}";
},
{
name = top;
position = "{126, 667}";
}
);
layerId = "9540212F-C873-4039-900D-544C1C7D2862";
paths = (
{
closed = 1;
nodes = (
"92 878 LINE",
"-31 878 LINE",
"-31 753 LINE",
"92 753 LINE"
);
},
{
closed = 1;
nodes = (
"-10 774 LINE",
"-10 857 LINE",
"71 857 LINE",
"71 774 LINE"
);
},
{
closed = 1;
nodes = (
"289 878 LINE",
"166 878 LINE",
"166 753 LINE",
"289 753 LINE"
);
},
{
closed = 1;
nodes = (
"187 774 LINE",
"187 857 LINE",
"268 857 LINE",
"268 774 LINE"
);
},
{
closed = 1;
nodes = (
"198 700 LINE",
"60 700 LINE",
"60 0 LINE",
"198 0 LINE"
);
},
{
closed = 1;
nodes = (
"81 21 LINE",
"81 679 LINE",
"177 679 LINE",
"177 21 LINE"
);
}
);
width = 258;
},
{
anchors = (
{
name = ogonek;
position = "{126, 21}";
},
{
name = top;
position = "{126, 667}";
}
);
associatedMasterId = "9540212F-C873-4039-900D-544C1C7D2862";
layerId = "8A6EA3AA-E1C3-4792-8F80-7787C2446294";
paths = (
{
closed = 1;
nodes = (
"92 878 LINE",
"-31 878 LINE",
"-31 753 LINE",
"92 753 LINE"
);
},
{
closed = 1;
nodes = (
"-10 774 LINE",
"-10 857 LINE",
"71 857 LINE",
"71 774 LINE"
);
},
{
closed = 1;
nodes = (
"289 878 LINE",
"166 878 LINE",
"166 753 LINE",
"289 753 LINE"
);
},
{
closed = 1;
nodes = (
"187 774 LINE",
"187 857 LINE",
"268 857 LINE",
"268 774 LINE"
);
},
{
closed = 1;
nodes = (
"198 700 LINE",
"60 700 LINE",
"60 0 LINE",
"198 0 LINE"
);
},
{
closed = 1;
nodes = (
"81 21 LINE",
"81 679 LINE",
"177 679 LINE",
"177 21 LINE"
);
}
);
width = 258;
}
);
leftKerningGroup = I;
rightKerningGroup = I;
unicode = 00CF;
},
{
glyphname = Idotaccent;
lastChange = "2018-03-01 09:51:33 +0000";
layers = (
{
anchors = (
{
name = ogonek;
position = "{126, 21}";
},
{
name = top;
position = "{126, 667}";
}
);
layerId = "9540212F-C873-4039-900D-544C1C7D2862";
paths = (
{
closed = 1;
nodes = (
"197 873 LINE",
"61 873 LINE",
"61 735 LINE",
"197 735 LINE"
);
},
{
closed = 1;
nodes = (
"82 757 LINE",
"82 852 LINE",
"176 852 LINE",
"176 757 LINE"
);
},
{
closed = 1;
nodes = (
"198 700 LINE",
"60 700 LINE",
"60 0 LINE",
"198 0 LINE"
);
},
{
closed = 1;
nodes = (
"81 21 LINE",
"81 679 LINE",
"177 679 LINE",
"177 21 LINE"
);
}
);
width = 258;
},
{
anchors = (
{
name = ogonek;
position = "{126, 21}";
},
{
name = top;
position = "{126, 667}";
}
);
associatedMasterId = "9540212F-C873-4039-900D-544C1C7D2862";
layerId = "8A6EA3AA-E1C3-4792-8F80-7787C2446294";
paths = (
{
closed = 1;
nodes = (
"197 873 LINE",
"61 873 LINE",
"61 735 LINE",
"197 735 LINE"
);
},
{
closed = 1;
nodes = (
"82 757 LINE",
"82 852 LINE",
"176 852 LINE",
"176 757 LINE"
);
},
{
closed = 1;
nodes = (
"198 700 LINE",
"60 700 LINE",
"60 0 LINE",
"198 0 LINE"
);
},
{
closed = 1;
nodes = (
"81 21 LINE",
"81 679 LINE",
"177 679 LINE",
"177 21 LINE"
);
}
);
width = 258;
}
);
leftKerningGroup = I;
rightKerningGroup = I;
unicode = 0130;
},
{
glyphname = Igrave;
lastChange = "2018-03-01 09:51:33 +0000";
layers = (
{
anchors = (
{
name = ogonek;
position = "{126, 21}";
},
{
name = top;
position = "{126, 667}";
}
);
layerId = "9540212F-C873-4039-900D-544C1C7D2862";
paths = (
{
closed = 1;
nodes = (
"186 747 LINE",
"103 878 LINE",
"-29 878 LINE",
"-37 860 LINE",
"76 730 LINE",
"177 730 LINE"
);
},
{
closed = 1;
nodes = (
"177 752 LINE",
"85 752 LINE",
"-21 874 LINE",
"-29 857 LINE",
"91 857 LINE",
"168 735 LINE"
);
},
{
closed = 1;
nodes = (
"198 700 LINE",
"60 700 LINE",
"60 0 LINE",
"198 0 LINE"
);
},
{
closed = 1;
nodes = (
"81 21 LINE",
"81 679 LINE",
"177 679 LINE",
"177 21 LINE"
);
}
);
width = 258;
},
{
anchors = (
{
name = ogonek;
position = "{126, 21}";
},
{
name = top;
position = "{126, 667}";
}
);
associatedMasterId = "9540212F-C873-4039-900D-544C1C7D2862";
layerId = "8A6EA3AA-E1C3-4792-8F80-7787C2446294";
paths = (
{
closed = 1;
nodes = (
"186 747 LINE",
"103 878 LINE",
"-29 878 LINE",
"-37 860 LINE",
"76 730 LINE",
"177 730 LINE"
);
},
{
closed = 1;
nodes = (
"177 752 LINE",
"85 752 LINE",
"-21 874 LINE",
"-29 857 LINE",
"91 857 LINE",
"168 735 LINE"
);
},
{
closed = 1;
nodes = (
"198 700 LINE",
"60 700 LINE",
"60 0 LINE",
"198 0 LINE"
);
},
{
closed = 1;
nodes = (
"81 21 LINE",
"81 679 LINE",
"177 679 LINE",
"177 21 LINE"
);
}
);
width = 258;
}
);
leftKerningGroup = I;
rightKerningGroup = I;
unicode = 00CC;
},
{
glyphname = Imacron;
lastChange = "2018-03-01 09:51:33 +0000";
layers = (
{
anchors = (
{
name = ogonek;
position = "{126, 21}";
},
{
name = top;
position = "{126, 667}";
}
);
layerId = "9540212F-C873-4039-900D-544C1C7D2862";
paths = (
{
closed = 1;
nodes = (
"275 842 LINE",
"-18 842 LINE",
"-18 751 LINE",
"275 751 LINE"
);
},
{
closed = 1;
nodes = (
"3 772 LINE",
"3 821 LINE",
"254 821 LINE",
"254 772 LINE"
);
},
{
closed = 1;
nodes = (
"198 700 LINE",
"60 700 LINE",
"60 0 LINE",
"198 0 LINE"
);
},
{
closed = 1;
nodes = (
"81 21 LINE",
"81 679 LINE",
"177 679 LINE",
"177 21 LINE"
);
}
);
width = 258;
},
{
anchors = (
{
name = ogonek;
position = "{126, 21}";
},
{
name = top;
position = "{126, 667}";
}
);
associatedMasterId = "9540212F-C873-4039-900D-544C1C7D2862";
layerId = "8A6EA3AA-E1C3-4792-8F80-7787C2446294";
paths = (
{
closed = 1;
nodes = (
"275 842 LINE",
"-18 842 LINE",
"-18 751 LINE",
"275 751 LINE"
);
},
{
closed = 1;
nodes = (
"3 772 LINE",
"3 821 LINE",
"254 821 LINE",
"254 772 LINE"
);
},
{
closed = 1;
nodes = (
"198 700 LINE",
"60 700 LINE",
"60 0 LINE",
"198 0 LINE"
);
},
{
closed = 1;
nodes = (
"81 21 LINE",
"81 679 LINE",
"177 679 LINE",
"177 21 LINE"
);
}
);
width = 258;
}
);
leftKerningGroup = I;
rightKerningGroup = I;
unicode = 012A;
},
{
glyphname = Iogonek;
lastChange = "2018-03-01 09:51:33 +0000";
layers = (
{
anchors = (
{
name = ogonek;
position = "{126, 21}";
},
{
name = top;
position = "{126, 667}";
}
);
layerId = "9540212F-C873-4039-900D-544C1C7D2862";
paths = (
{
closed = 1;
nodes = (
"196 -70 LINE",
"160 -92 OFFCURVE",
"138 -102 OFFCURVE",
"120 -99 CURVE",
"107 -97 OFFCURVE",
"103 -95 OFFCURVE",
"103 -84 CURVE",
"103 -67 OFFCURVE",
"157 -24 OFFCURVE",
"198 5 CURVE",
"198 700 LINE",
"60 700 LINE",
"60 16 LINE",
"27 -9 OFFCURVE",
"-9 -55 OFFCURVE",
"-9 -103 CURVE",
"-9 -136 OFFCURVE",
"4 -162 OFFCURVE",
"25 -177 CURVE",
"45 -190 OFFCURVE",
"70 -197 OFFCURVE",
"98 -197 CURVE",
"131 -197 OFFCURVE",
"184 -185 OFFCURVE",
"241 -137 CURVE"
);
},
{
closed = 1;
nodes = (
"166 -168 OFFCURVE",
"125 -176 OFFCURVE",
"98 -176 CURVE",
"73 -176 OFFCURVE",
"54 -171 OFFCURVE",
"37 -159 CURVE",
"21 -148 OFFCURVE",
"13 -131 OFFCURVE",
"13 -103 CURVE",
"13 -58 OFFCURVE",
"48 -17 OFFCURVE",
"81 5 CURVE",
"81 679 LINE",
"177 679 LINE",
"177 16 LINE",
"135 -14 OFFCURVE",
"81 -56 OFFCURVE",
"81 -84 CURVE",
"81 -110 OFFCURVE",
"101 -118 OFFCURVE",
"117 -120 CURVE",
"137 -123 OFFCURVE",
"161 -114 OFFCURVE",
"190 -99 CURVE",
"213 -132 LINE"
);
}
);
width = 258;
},
{
anchors = (
{
name = ogonek;
position = "{126, 21}";
},
{
name = top;
position = "{126, 667}";
}
);
associatedMasterId = "9540212F-C873-4039-900D-544C1C7D2862";
layerId = "8A6EA3AA-E1C3-4792-8F80-7787C2446294";
paths = (
{
closed = 1;
nodes = (
"196 -70 LINE",
"160 -92 OFFCURVE",
"138 -102 OFFCURVE",
"120 -99 CURVE",
"107 -97 OFFCURVE",
"103 -95 OFFCURVE",
"103 -84 CURVE",
"103 -67 OFFCURVE",
"157 -24 OFFCURVE",
"198 5 CURVE",
"198 700 LINE",
"60 700 LINE",
"60 16 LINE",
"27 -9 OFFCURVE",
"-9 -55 OFFCURVE",
"-9 -103 CURVE",
"-9 -136 OFFCURVE",
"4 -162 OFFCURVE",
"25 -177 CURVE",
"45 -190 OFFCURVE",
"70 -197 OFFCURVE",
"98 -197 CURVE",
"131 -197 OFFCURVE",
"184 -185 OFFCURVE",
"241 -137 CURVE"
);
},
{
closed = 1;
nodes = (
"166 -168 OFFCURVE",
"125 -176 OFFCURVE",
"98 -176 CURVE",
"73 -176 OFFCURVE",
"54 -171 OFFCURVE",
"37 -159 CURVE",
"21 -148 OFFCURVE",
"13 -131 OFFCURVE",
"13 -103 CURVE",
"13 -58 OFFCURVE",
"48 -17 OFFCURVE",
"81 5 CURVE",
"81 679 LINE",
"177 679 LINE",
"177 16 LINE",
"135 -14 OFFCURVE",
"81 -56 OFFCURVE",
"81 -84 CURVE",
"81 -110 OFFCURVE",
"101 -118 OFFCURVE",
"117 -120 CURVE",
"137 -123 OFFCURVE",
"161 -114 OFFCURVE",
"190 -99 CURVE",
"213 -132 LINE"
);
}
);
width = 258;
}
);
leftKerningGroup = I;
rightKerningGroup = I;
unicode = 012E;
},
{
glyphname = Itilde;
lastChange = "2018-03-01 09:51:33 +0000";
layers = (
{
anchors = (
{
name = ogonek;
position = "{126, 21}";
},
{
name = top;
position = "{126, 667}";
}
);
layerId = "9540212F-C873-4039-900D-544C1C7D2862";
paths = (
{
closed = 1;
nodes = (
"228 882 LINE",
"200 838 OFFCURVE",
"197 835 OFFCURVE",
"181 835 CURVE",
"174 835 OFFCURVE",
"170 836 OFFCURVE",
"154 846 CURVE",
"110 869 OFFCURVE",
"95 871 OFFCURVE",
"78 871 CURVE",
"41 871 OFFCURVE",
"-24 832 OFFCURVE",
"-38 774 CURVE",
"36 730 LINE",
"57 769 OFFCURVE",
"62 774 OFFCURVE",
"78 774 CURVE",
"88 774 OFFCURVE",
"92 773 OFFCURVE",
"122 758 CURVE",
"122 758 LINE",
"146 744 OFFCURVE",
"164 738 OFFCURVE",
"182 738 CURVE",
"219 738 OFFCURVE",
"270 767 OFFCURVE",
"296 826 CURVE"
);
},
{
closed = 1;
nodes = (
"245 778 OFFCURVE",
"210 760 OFFCURVE",
"182 760 CURVE",
"167 760 OFFCURVE",
"155 764 OFFCURVE",
"132 776 CURVE",
"132 777 LINE",
"100 793 OFFCURVE",
"92 795 OFFCURVE",
"78 795 CURVE",
"58 795 OFFCURVE",
"44 786 OFFCURVE",
"28 760 CURVE",
"-12 783 LINE",
"6 823 OFFCURVE",
"52 850 OFFCURVE",
"78 850 CURVE",
"93 850 OFFCURVE",
"103 848 OFFCURVE",
"143 828 CURVE",
"162 815 OFFCURVE",
"173 814 OFFCURVE",
"181 814 CURVE",
"200 814 OFFCURVE",
"212 820 OFFCURVE",
"233 851 CURVE",
"270 821 LINE"
);
},
{
closed = 1;
nodes = (
"198 700 LINE",
"60 700 LINE",
"60 0 LINE",
"198 0 LINE"
);
},
{
closed = 1;
nodes = (
"81 21 LINE",
"81 679 LINE",
"177 679 LINE",
"177 21 LINE"
);
}
);
width = 258;
},
{
anchors = (
{
name = ogonek;
position = "{126, 21}";
},
{
name = top;
position = "{126, 667}";
}
);
associatedMasterId = "9540212F-C873-4039-900D-544C1C7D2862";
layerId = "8A6EA3AA-E1C3-4792-8F80-7787C2446294";
paths = (
{
closed = 1;
nodes = (
"228 882 LINE",
"200 838 OFFCURVE",
"197 835 OFFCURVE",
"181 835 CURVE",
"174 835 OFFCURVE",
"170 836 OFFCURVE",
"154 846 CURVE",
"110 869 OFFCURVE",
"95 871 OFFCURVE",
"78 871 CURVE",
"41 871 OFFCURVE",
"-24 832 OFFCURVE",
"-38 774 CURVE",
"36 730 LINE",
"57 769 OFFCURVE",
"62 774 OFFCURVE",
"78 774 CURVE",
"88 774 OFFCURVE",
"92 773 OFFCURVE",
"122 758 CURVE",
"122 758 LINE",
"146 744 OFFCURVE",
"164 738 OFFCURVE",
"182 738 CURVE",
"219 738 OFFCURVE",
"270 767 OFFCURVE",
"296 826 CURVE"
);
},
{
closed = 1;
nodes = (
"245 778 OFFCURVE",
"210 760 OFFCURVE",
"182 760 CURVE",
"167 760 OFFCURVE",
"155 764 OFFCURVE",
"132 776 CURVE",
"132 777 LINE",
"100 793 OFFCURVE",
"92 795 OFFCURVE",
"78 795 CURVE",
"58 795 OFFCURVE",
"44 786 OFFCURVE",
"28 760 CURVE",
"-12 783 LINE",
"6 823 OFFCURVE",
"52 850 OFFCURVE",
"78 850 CURVE",
"93 850 OFFCURVE",
"103 848 OFFCURVE",
"143 828 CURVE",
"162 815 OFFCURVE",
"173 814 OFFCURVE",
"181 814 CURVE",
"200 814 OFFCURVE",
"212 820 OFFCURVE",
"233 851 CURVE",
"270 821 LINE"
);
},
{
closed = 1;
nodes = (
"198 700 LINE",
"60 700 LINE",
"60 0 LINE",
"198 0 LINE"
);
},
{
closed = 1;
nodes = (
"81 21 LINE",
"81 679 LINE",
"177 679 LINE",
"177 21 LINE"
);
}
);
width = 258;
}
);
leftKerningGroup = I;
rightKerningGroup = I;
unicode = 0128;
},
{
color = 5;
glyphname = J;
lastChange = "2018-03-01 09:51:33 +0000";
layers = (
{
anchors = (
{
name = top;
position = "{328, 680}";
}
);
layerId = "9540212F-C873-4039-900D-544C1C7D2862";
paths = (
{
closed = 1;
nodes = (
"393 700 LINE",
"255 700 LINE",
"255 236 LINE",
"255 140 OFFCURVE",
"248 114 OFFCURVE",
"193 114 CURVE",
"159 114 OFFCURVE",
"142 141 OFFCURVE",
"135 189 CURVE",
"-3 169 LINE",
"13 57 OFFCURVE",
"88 -16 OFFCURVE",
"193 -16 CURVE",
"311 -16 OFFCURVE",
"393 47 OFFCURVE",
"393 219 CURVE"
);
},
{
closed = 1;
nodes = (
"372 59 OFFCURVE",
"302 5 OFFCURVE",
"193 5 CURVE",
"106 5 OFFCURVE",
"43 61 OFFCURVE",
"22 151 CURVE",
"118 165 LINE",
"128 123 OFFCURVE",
"151 93 OFFCURVE",
"193 93 CURVE",
"266 93 OFFCURVE",
"277 135 OFFCURVE",
"277 236 CURVE",
"277 679 LINE",
"372 679 LINE",
"372 219 LINE"
);
}
);
width = 456;
},
{
anchors = (
{
name = top;
position = "{328, 680}";
}
);
associatedMasterId = "9540212F-C873-4039-900D-544C1C7D2862";
layerId = "8A6EA3AA-E1C3-4792-8F80-7787C2446294";
paths = (
{
closed = 1;
nodes = (
"393 700 LINE",
"255 700 LINE",
"255 236 LINE",
"255 140 OFFCURVE",
"248 114 OFFCURVE",
"193 114 CURVE",
"159 114 OFFCURVE",
"142 141 OFFCURVE",
"135 189 CURVE",
"-3 169 LINE",
"13 57 OFFCURVE",
"88 -16 OFFCURVE",
"193 -16 CURVE",
"311 -16 OFFCURVE",
"393 47 OFFCURVE",
"393 219 CURVE"
);
},
{
closed = 1;
nodes = (
"372 59 OFFCURVE",
"302 5 OFFCURVE",
"193 5 CURVE",
"106 5 OFFCURVE",
"43 61 OFFCURVE",
"22 151 CURVE",
"118 165 LINE",
"128 123 OFFCURVE",
"151 93 OFFCURVE",
"193 93 CURVE",
"266 93 OFFCURVE",
"277 135 OFFCURVE",
"277 236 CURVE",
"277 679 LINE",
"372 679 LINE",
"372 219 LINE"
);
}
);
width = 456;
}
);
leftKerningGroup = J;
rightKerningGroup = U;
unicode = 004A;
},
{
glyphname = Jcircumflex;
lastChange = "2018-03-01 09:51:33 +0000";
layers = (
{
anchors = (
{
name = top;
position = "{311, 667}";
}
);
layerId = "9540212F-C873-4039-900D-544C1C7D2862";
paths = (
{
closed = 1;
nodes = (
"472 748 LINE",
"371 878 LINE",
"264 878 LINE",
"163 748 LINE",
"172 730 LINE",
"275 730 LINE",
"317 790 LINE",
"359 730 LINE",
"464 730 LINE"
);
},
{
closed = 1;
nodes = (
"464 752 LINE",
"370 752 LINE",
"317 828 LINE",
"264 752 LINE",
"172 752 LINE",
"180 735 LINE",
"275 857 LINE",
"360 857 LINE",
"455 735 LINE"
);
},
{
closed = 1;
nodes = (
"387 700 LINE",
"249 700 LINE",
"249 237 LINE",
"249 140 OFFCURVE",
"242 114 OFFCURVE",
"187 114 CURVE",
"153 114 OFFCURVE",
"136 142 OFFCURVE",
"129 190 CURVE",
"-8 169 LINE",
"7 58 OFFCURVE",
"83 -16 OFFCURVE",
"187 -16 CURVE",
"305 -16 OFFCURVE",
"387 47 OFFCURVE",
"387 219 CURVE"
);
},
{
closed = 1;
nodes = (
"366 60 OFFCURVE",
"296 6 OFFCURVE",
"187 6 CURVE",
"100 6 OFFCURVE",
"37 61 OFFCURVE",
"17 151 CURVE",
"112 165 LINE",
"122 123 OFFCURVE",
"145 93 OFFCURVE",
"187 93 CURVE",
"260 93 OFFCURVE",
"271 135 OFFCURVE",
"271 237 CURVE",
"271 679 LINE",
"366 679 LINE",
"366 219 LINE"
);
}
);
width = 442;
},
{
anchors = (
{
name = top;
position = "{311, 667}";
}
);
associatedMasterId = "9540212F-C873-4039-900D-544C1C7D2862";
layerId = "8A6EA3AA-E1C3-4792-8F80-7787C2446294";
paths = (
{
closed = 1;
nodes = (
"472 748 LINE",
"371 878 LINE",
"264 878 LINE",
"163 748 LINE",
"172 730 LINE",
"275 730 LINE",
"317 790 LINE",
"359 730 LINE",
"464 730 LINE"
);
},
{
closed = 1;
nodes = (
"464 752 LINE",
"370 752 LINE",
"317 828 LINE",
"264 752 LINE",
"172 752 LINE",
"180 735 LINE",
"275 857 LINE",
"360 857 LINE",
"455 735 LINE"
);
},
{
closed = 1;
nodes = (
"387 700 LINE",
"249 700 LINE",
"249 237 LINE",
"249 140 OFFCURVE",
"242 114 OFFCURVE",
"187 114 CURVE",
"153 114 OFFCURVE",
"136 142 OFFCURVE",
"129 190 CURVE",
"-8 169 LINE",
"7 58 OFFCURVE",
"83 -16 OFFCURVE",
"187 -16 CURVE",
"305 -16 OFFCURVE",
"387 47 OFFCURVE",
"387 219 CURVE"
);
},
{
closed = 1;
nodes = (
"366 60 OFFCURVE",
"296 6 OFFCURVE",
"187 6 CURVE",
"100 6 OFFCURVE",
"37 61 OFFCURVE",
"17 151 CURVE",
"112 165 LINE",
"122 123 OFFCURVE",
"145 93 OFFCURVE",
"187 93 CURVE",
"260 93 OFFCURVE",
"271 135 OFFCURVE",
"271 237 CURVE",
"271 679 LINE",
"366 679 LINE",
"366 219 LINE"
);
}
);
width = 442;
}
);
leftKerningGroup = J;
rightKerningGroup = U;
unicode = 0134;
},
{
color = 5;
glyphname = K;
lastChange = "2018-03-01 09:51:33 +0000";
layers = (
{
anchors = (
{
name = bottom;
position = "{316, 0}";
},
{
name = top;
position = "{316, 680}";
}
);
layerId = "9540212F-C873-4039-900D-544C1C7D2862";
paths = (
{
closed = 1;
nodes = (
"583 683 LINE",
"574 700 LINE",
"431 700 LINE",
"189 396 LINE",
"208 390 LINE",
"208 700 LINE",
"70 700 LINE",
"70 0 LINE",
"208 0 LINE",
"208 212 LINE",
"278 300 LINE",
"458 0 LINE",
"590 0 LINE",
"599 16 LINE",
"363 408 LINE"
);
},
{
closed = 1;
nodes = (
"581 5 LINE",
"590 21 LINE",
"470 21 LINE",
"280 338 LINE",
"187 220 LINE",
"187 21 LINE",
"92 21 LINE",
"92 679 LINE",
"187 679 LINE",
"187 390 LINE",
"206 383 LINE",
"441 679 LINE",
"574 679 LINE",
"566 696 LINE",
"338 410 LINE"
);
}
);
width = 598;
},
{
anchors = (
{
name = bottom;
position = "{316, 0}";
},
{
name = top;
position = "{316, 680}";
}
);
associatedMasterId = "9540212F-C873-4039-900D-544C1C7D2862";
layerId = "8A6EA3AA-E1C3-4792-8F80-7787C2446294";
paths = (
{
closed = 1;
nodes = (
"583 683 LINE",
"574 700 LINE",
"431 700 LINE",
"189 396 LINE",
"208 390 LINE",
"208 700 LINE",
"70 700 LINE",
"70 0 LINE",
"208 0 LINE",
"208 212 LINE",
"278 300 LINE",
"458 0 LINE",
"590 0 LINE",
"599 16 LINE",
"363 408 LINE"
);
},
{
closed = 1;
nodes = (
"581 5 LINE",
"590 21 LINE",
"470 21 LINE",
"280 338 LINE",
"187 220 LINE",
"187 21 LINE",
"92 21 LINE",
"92 679 LINE",
"187 679 LINE",
"187 390 LINE",
"206 383 LINE",
"441 679 LINE",
"574 679 LINE",
"566 696 LINE",
"338 410 LINE"
);
}
);
width = 598;
}
);
leftKerningGroup = I;
rightKerningGroup = K;
unicode = 004B;
},
{
glyphname = Kcommaaccent;
lastChange = "2018-03-01 09:51:33 +0000";
layers = (
{
anchors = (
{
name = bottom;
position = "{301, 21}";
},
{
name = top;
position = "{301, 667}";
}
);
layerId = "9540212F-C873-4039-900D-544C1C7D2862";
paths = (
{
closed = 1;
nodes = (
"589 16 LINE",
"353 408 LINE",
"573 683 LINE",
"565 700 LINE",
"421 700 LINE",
"179 397 LINE",
"198 390 LINE",
"198 700 LINE",
"60 700 LINE",
"60 0 LINE",
"198 0 LINE",
"198 213 LINE",
"267 300 LINE",
"448 0 LINE",
"580 0 LINE"
);
},
{
closed = 1;
nodes = (
"580 21 LINE",
"460 21 LINE",
"270 338 LINE",
"177 220 LINE",
"177 21 LINE",
"81 21 LINE",
"81 679 LINE",
"177 679 LINE",
"177 390 LINE",
"196 383 LINE",
"431 679 LINE",
"565 679 LINE",
"556 696 LINE",
"328 410 LINE",
"571 5 LINE"
);
},
{
closed = 1;
nodes = (
"237 -171 LINE",
"290 -171 LINE",
"259 -260 LINE",
"342 -260 LINE",
"376 -162 LINE",
"376 -35 LINE",
"237 -35 LINE"
);
},
{
closed = 1;
nodes = (
"355 -56 LINE",
"355 -158 LINE",
"327 -239 LINE",
"289 -239 LINE",
"320 -149 LINE",
"258 -149 LINE",
"258 -56 LINE"
);
}
);
width = 580;
},
{
anchors = (
{
name = bottom;
position = "{301, 21}";
},
{
name = top;
position = "{301, 667}";
}
);
associatedMasterId = "9540212F-C873-4039-900D-544C1C7D2862";
layerId = "8A6EA3AA-E1C3-4792-8F80-7787C2446294";
paths = (
{
closed = 1;
nodes = (
"589 16 LINE",
"353 408 LINE",
"573 683 LINE",
"565 700 LINE",
"421 700 LINE",
"179 397 LINE",
"198 390 LINE",
"198 700 LINE",
"60 700 LINE",
"60 0 LINE",
"198 0 LINE",
"198 213 LINE",
"267 300 LINE",
"448 0 LINE",
"580 0 LINE"
);
},
{
closed = 1;
nodes = (
"580 21 LINE",
"460 21 LINE",
"270 338 LINE",
"177 220 LINE",
"177 21 LINE",
"81 21 LINE",
"81 679 LINE",
"177 679 LINE",
"177 390 LINE",
"196 383 LINE",
"431 679 LINE",
"565 679 LINE",
"556 696 LINE",
"328 410 LINE",
"571 5 LINE"
);
},
{
closed = 1;
nodes = (
"237 -171 LINE",
"290 -171 LINE",
"259 -260 LINE",
"342 -260 LINE",
"376 -162 LINE",
"376 -35 LINE",
"237 -35 LINE"
);
},
{
closed = 1;
nodes = (
"355 -56 LINE",
"355 -158 LINE",
"327 -239 LINE",
"289 -239 LINE",
"320 -149 LINE",
"258 -149 LINE",
"258 -56 LINE"
);
}
);
width = 580;
}
);
leftKerningGroup = I;
rightKerningGroup = K;
unicode = 0136;
},
{
color = 5;
glyphname = L;
lastChange = "2018-03-01 09:51:33 +0000";
layers = (
{
anchors = (
{
name = bottom;
position = "{253, 0}";
},
{
name = top;
position = "{133, 700}";
}
);
guideLines = (
{
angle = 90;
position = "{493, 112}";
}
);
layerId = "9540212F-C873-4039-900D-544C1C7D2862";
paths = (
{
closed = 1;
nodes = (
"205 700 LINE",
"68 700 LINE",
"68 0 LINE",
"438 0 LINE",
"438 130 LINE",
"205 130 LINE"
);
},
{
closed = 1;
nodes = (
"417 109 LINE",
"417 21 LINE",
"89 21 LINE",
"89 679 LINE",
"184 679 LINE",
"184 109 LINE"
);
}
);
width = 458;
},
{
anchors = (
{
name = bottom;
position = "{253, 0}";
},
{
name = top;
position = "{133, 700}";
}
);
associatedMasterId = "9540212F-C873-4039-900D-544C1C7D2862";
guideLines = (
{
angle = 90;
position = "{493, 112}";
}
);
layerId = "8A6EA3AA-E1C3-4792-8F80-7787C2446294";
paths = (
{
closed = 1;
nodes = (
"205 700 LINE",
"68 700 LINE",
"68 0 LINE",
"438 0 LINE",
"438 130 LINE",
"205 130 LINE"
);
},
{
closed = 1;
nodes = (
"417 109 LINE",
"417 21 LINE",
"89 21 LINE",
"89 679 LINE",
"184 679 LINE",
"184 109 LINE"
);
}
);
width = 458;
}
);
leftKerningGroup = I;
rightKerningGroup = L;
unicode = 004C;
},
{
glyphname = Lacute;
lastChange = "2018-03-01 09:51:33 +0000";
layers = (
{
anchors = (
{
name = bottom;
position = "{241, 21}";
},
{
name = top;
position = "{126, 687}";
}
);
layerId = "9540212F-C873-4039-900D-544C1C7D2862";
paths = (
{
closed = 1;
nodes = (
"294 880 LINE",
"286 897 LINE",
"154 897 LINE",
"71 766 LINE",
"81 750 LINE",
"181 750 LINE"
);
},
{
closed = 1;
nodes = (
"81 771 LINE",
"90 755 LINE",
"166 876 LINE",
"286 876 LINE",
"278 894 LINE",
"172 771 LINE"
);
},
{
closed = 1;
nodes = (
"198 700 LINE",
"60 700 LINE",
"60 0 LINE",
"431 0 LINE",
"431 130 LINE",
"198 130 LINE"
);
},
{
closed = 1;
nodes = (
"409 109 LINE",
"409 21 LINE",
"81 21 LINE",
"81 679 LINE",
"177 679 LINE",
"177 109 LINE"
);
}
);
width = 444;
},
{
anchors = (
{
name = bottom;
position = "{241, 21}";
},
{
name = top;
position = "{126, 687}";
}
);
associatedMasterId = "9540212F-C873-4039-900D-544C1C7D2862";
layerId = "8A6EA3AA-E1C3-4792-8F80-7787C2446294";
paths = (
{
closed = 1;
nodes = (
"294 880 LINE",
"286 897 LINE",
"154 897 LINE",
"71 766 LINE",
"81 750 LINE",
"181 750 LINE"
);
},
{
closed = 1;
nodes = (
"81 771 LINE",
"90 755 LINE",
"166 876 LINE",
"286 876 LINE",
"278 894 LINE",
"172 771 LINE"
);
},
{
closed = 1;
nodes = (
"198 700 LINE",
"60 700 LINE",
"60 0 LINE",
"431 0 LINE",
"431 130 LINE",
"198 130 LINE"
);
},
{
closed = 1;
nodes = (
"409 109 LINE",
"409 21 LINE",
"81 21 LINE",
"81 679 LINE",
"177 679 LINE",
"177 109 LINE"
);
}
);
width = 444;
}
);
leftKerningGroup = I;
rightKerningGroup = L;
unicode = 0139;
},
{
glyphname = Lcaron;
lastChange = "2018-03-01 09:51:33 +0000";
layers = (
{
anchors = (
{
name = bottom;
position = "{244, 21}";
},
{
name = top;
position = "{129, 687}";
}
);
layerId = "9540212F-C873-4039-900D-544C1C7D2862";
leftMetricsKey = "=I";
rightMetricsKey = "=L";
paths = (
{
closed = 1;
nodes = (
"201 700 LINE",
"63 700 LINE",
"63 0 LINE",
"434 0 LINE",
"434 130 LINE",
"201 130 LINE"
);
},
{
closed = 1;
nodes = (
"412 109 LINE",
"412 21 LINE",
"84 21 LINE",
"84 679 LINE",
"180 679 LINE",
"180 109 LINE"
);
},
{
closed = 1;
nodes = (
"383 700 LINE",
"251 700 LINE",
"226 529 LINE",
"316 529 LINE"
);
},
{
closed = 1;
nodes = (
"251 550 LINE",
"269 679 LINE",
"352 679 LINE",
"301 550 LINE"
);
}
);
width = 454;
},
{
anchors = (
{
name = bottom;
position = "{244, 21}";
},
{
name = top;
position = "{129, 687}";
}
);
associatedMasterId = "9540212F-C873-4039-900D-544C1C7D2862";
layerId = "8A6EA3AA-E1C3-4792-8F80-7787C2446294";
leftMetricsKey = "=I";
rightMetricsKey = "=L";
paths = (
{
closed = 1;
nodes = (
"201 700 LINE",
"63 700 LINE",
"63 0 LINE",
"434 0 LINE",
"434 130 LINE",
"201 130 LINE"
);
},
{
closed = 1;
nodes = (
"412 109 LINE",
"412 21 LINE",
"84 21 LINE",
"84 679 LINE",
"180 679 LINE",
"180 109 LINE"
);
},
{
closed = 1;
nodes = (
"383 700 LINE",
"251 700 LINE",
"226 529 LINE",
"316 529 LINE"
);
},
{
closed = 1;
nodes = (
"251 550 LINE",
"269 679 LINE",
"352 679 LINE",
"301 550 LINE"
);
}
);
width = 454;
}
);
leftKerningGroup = I;
leftMetricsKey = L;
rightKerningGroup = L;
rightMetricsKey = L;
unicode = 013D;
},
{
glyphname = Lcommaaccent;
lastChange = "2018-03-01 09:51:33 +0000";
layers = (
{
anchors = (
{
name = bottom;
position = "{241, 21}";
},
{
name = top;
position = "{126, 687}";
}
);
layerId = "9540212F-C873-4039-900D-544C1C7D2862";
paths = (
{
closed = 1;
nodes = (
"198 130 LINE",
"198 700 LINE",
"60 700 LINE",
"60 0 LINE",
"431 0 LINE",
"431 130 LINE"
);
},
{
closed = 1;
nodes = (
"409 21 LINE",
"81 21 LINE",
"81 679 LINE",
"177 679 LINE",
"177 109 LINE",
"409 109 LINE"
);
},
{
closed = 1;
nodes = (
"176 -171 LINE",
"228 -171 LINE",
"197 -260 LINE",
"281 -260 LINE",
"315 -162 LINE",
"315 -35 LINE",
"176 -35 LINE"
);
},
{
closed = 1;
nodes = (
"294 -56 LINE",
"294 -158 LINE",
"266 -239 LINE",
"227 -239 LINE",
"258 -149 LINE",
"197 -149 LINE",
"197 -56 LINE"
);
}
);
width = 444;
},
{
anchors = (
{
name = bottom;
position = "{241, 21}";
},
{
name = top;
position = "{126, 687}";
}
);
associatedMasterId = "9540212F-C873-4039-900D-544C1C7D2862";
layerId = "8A6EA3AA-E1C3-4792-8F80-7787C2446294";
paths = (
{
closed = 1;
nodes = (
"198 130 LINE",
"198 700 LINE",
"60 700 LINE",
"60 0 LINE",
"431 0 LINE",
"431 130 LINE"
);
},
{
closed = 1;
nodes = (
"409 21 LINE",
"81 21 LINE",
"81 679 LINE",
"177 679 LINE",
"177 109 LINE",
"409 109 LINE"
);
},
{
closed = 1;
nodes = (
"176 -171 LINE",
"228 -171 LINE",
"197 -260 LINE",
"281 -260 LINE",
"315 -162 LINE",
"315 -35 LINE",
"176 -35 LINE"
);
},
{
closed = 1;
nodes = (
"294 -56 LINE",
"294 -158 LINE",
"266 -239 LINE",
"227 -239 LINE",
"258 -149 LINE",
"197 -149 LINE",
"197 -56 LINE"
);
}
);
width = 444;
}
);
leftKerningGroup = I;
rightKerningGroup = L;
unicode = 013B;
},
{
glyphname = Ldot;
lastChange = "2018-03-01 09:51:33 +0000";
layers = (
{
anchors = (
{
name = bottom;
position = "{249, 21}";
},
{
name = top;
position = "{134, 687}";
}
);
layerId = "9540212F-C873-4039-900D-544C1C7D2862";
leftMetricsKey = "=L";
rightMetricsKey = "=L";
paths = (
{
closed = 1;
nodes = (
"206 700 LINE",
"68 700 LINE",
"68 0 LINE",
"439 0 LINE",
"439 130 LINE",
"206 130 LINE"
);
},
{
closed = 1;
nodes = (
"417 109 LINE",
"417 21 LINE",
"89 21 LINE",
"89 679 LINE",
"185 679 LINE",
"185 109 LINE"
);
},
{
closed = 1;
nodes = (
"378 394 LINE",
"248 394 LINE",
"248 264 LINE",
"378 264 LINE"
);
},
{
closed = 1;
nodes = (
"269 285 LINE",
"269 372 LINE",
"356 372 LINE",
"356 285 LINE"
);
}
);
width = 459;
},
{
anchors = (
{
name = bottom;
position = "{249, 21}";
},
{
name = top;
position = "{134, 687}";
}
);
associatedMasterId = "9540212F-C873-4039-900D-544C1C7D2862";
layerId = "8A6EA3AA-E1C3-4792-8F80-7787C2446294";
leftMetricsKey = "=L";
rightMetricsKey = "=L";
paths = (
{
closed = 1;
nodes = (
"206 700 LINE",
"68 700 LINE",
"68 0 LINE",
"439 0 LINE",
"439 130 LINE",
"206 130 LINE"
);
},
{
closed = 1;
nodes = (
"417 109 LINE",
"417 21 LINE",
"89 21 LINE",
"89 679 LINE",
"185 679 LINE",
"185 109 LINE"
);
},
{
closed = 1;
nodes = (
"378 394 LINE",
"248 394 LINE",
"248 264 LINE",
"378 264 LINE"
);
},
{
closed = 1;
nodes = (
"269 285 LINE",
"269 372 LINE",
"356 372 LINE",
"356 285 LINE"
);
}
);
width = 459;
}
);
leftKerningGroup = I;
leftMetricsKey = L;
rightKerningGroup = L;
rightMetricsKey = L;
unicode = 013F;
},
{
glyphname = Lslash;
lastChange = "2018-03-01 09:51:33 +0000";
layers = (
{
anchors = (
{
name = bottom;
position = "{252, 21}";
},
{
name = top;
position = "{138, 687}";
}
);
guideLines = (
{
angle = 90;
position = "{47, 0}";
},
{
angle = 90;
position = "{154, 105}";
}
);
layerId = "9540212F-C873-4039-900D-544C1C7D2862";
rightMetricsKey = "=L";
paths = (
{
closed = 1;
nodes = (
"210 130 LINE",
"210 326 LINE",
"327 394 LINE",
"279 475 LINE",
"194 426 LINE",
"210 417 LINE",
"210 700 LINE",
"72 700 LINE",
"72 356 LINE",
"-44 290 LINE",
"6 209 LINE",
"88 256 LINE",
"72 265 LINE",
"72 0 LINE",
"442 0 LINE",
"442 130 LINE"
);
},
{
closed = 1;
nodes = (
"421 21 LINE",
"93 21 LINE",
"93 265 LINE",
"77 274 LINE",
"13 238 LINE",
"-14 282 LINE",
"93 344 LINE",
"93 679 LINE",
"188 679 LINE",
"188 417 LINE",
"204 408 LINE",
"272 446 LINE",
"298 402 LINE",
"188 338 LINE",
"188 109 LINE",
"421 109 LINE"
);
}
);
width = 462;
},
{
anchors = (
{
name = bottom;
position = "{252, 21}";
},
{
name = top;
position = "{138, 687}";
}
);
associatedMasterId = "9540212F-C873-4039-900D-544C1C7D2862";
guideLines = (
{
angle = 90;
position = "{47, 0}";
},
{
angle = 90;
position = "{154, 105}";
}
);
layerId = "8A6EA3AA-E1C3-4792-8F80-7787C2446294";
rightMetricsKey = "=L";
paths = (
{
closed = 1;
nodes = (
"210 130 LINE",
"210 326 LINE",
"327 394 LINE",
"279 475 LINE",
"194 426 LINE",
"210 417 LINE",
"210 700 LINE",
"72 700 LINE",
"72 356 LINE",
"-44 290 LINE",
"6 209 LINE",
"88 256 LINE",
"72 265 LINE",
"72 0 LINE",
"442 0 LINE",
"442 130 LINE"
);
},
{
closed = 1;
nodes = (
"421 21 LINE",
"93 21 LINE",
"93 265 LINE",
"77 274 LINE",
"13 238 LINE",
"-14 282 LINE",
"93 344 LINE",
"93 679 LINE",
"188 679 LINE",
"188 417 LINE",
"204 408 LINE",
"272 446 LINE",
"298 402 LINE",
"188 338 LINE",
"188 109 LINE",
"421 109 LINE"
);
}
);
width = 462;
}
);
leftKerningGroup = I;
rightKerningGroup = L;
rightMetricsKey = L;
unicode = 0141;
},
{
color = 5;
glyphname = M;
lastChange = "2018-03-01 09:51:33 +0000";
layers = (
{
layerId = "9540212F-C873-4039-900D-544C1C7D2862";
paths = (
{
closed = 1;
nodes = (
"737 700 LINE",
"555 700 LINE",
"395 184 LINE",
"415 184 LINE",
"254 700 LINE",
"72 700 LINE",
"72 0 LINE",
"207 0 LINE",
"207 505 LINE",
"186 502 LINE",
"347 0 LINE",
"462 0 LINE",
"623 502 LINE",
"602 505 LINE",
"602 0 LINE",
"737 0 LINE"
);
},
{
closed = 1;
nodes = (
"623 21 LINE",
"623 505 LINE",
"602 508 LINE",
"447 21 LINE",
"362 21 LINE",
"207 508 LINE",
"186 505 LINE",
"186 21 LINE",
"94 21 LINE",
"94 679 LINE",
"238 679 LINE",
"395 178 LINE",
"415 178 LINE",
"571 679 LINE",
"715 679 LINE",
"715 21 LINE"
);
}
);
width = 809;
},
{
associatedMasterId = "9540212F-C873-4039-900D-544C1C7D2862";
layerId = "A458963F-749F-45B3-877B-9130F0EE97AF";
leftMetricsKey = "=I";
rightMetricsKey = "=I";
name = Orginal;
paths = (
{
closed = 1;
nodes = (
"582 700 LINE",
"403 150 LINE",
"223 700 LINE",
"73 700 LINE",
"73 0 LINE",
"193 0 LINE",
"193 483 LINE",
"351 0 LINE",
"454 0 LINE",
"612 483 LINE",
"612 0 LINE",
"732 0 LINE",
"732 700 LINE"
);
}
);
width = 805;
},
{
associatedMasterId = "9540212F-C873-4039-900D-544C1C7D2862";
layerId = "8709A18D-923F-4A80-8F78-04F9E35329BB";
leftMetricsKey = "=I";
rightMetricsKey = "=I";
name = "Regular Mar 15 14, 20:38";
paths = (
{
closed = 1;
nodes = (
"582 700 LINE",
"403 150 LINE",
"223 700 LINE",
"73 700 LINE",
"73 0 LINE",
"193 0 LINE",
"193 483 LINE",
"351 0 LINE",
"454 0 LINE",
"612 483 LINE",
"612 0 LINE",
"732 0 LINE",
"732 700 LINE"
);
}
);
width = 805;
},
{
associatedMasterId = "9540212F-C873-4039-900D-544C1C7D2862";
layerId = "3C0805A8-B0DE-4619-9C01-C33DE9436168";
leftMetricsKey = "=I";
rightMetricsKey = "=I";
name = "Regular Mar 15 14, 20:41";
paths = (
{
closed = 1;
nodes = (
"561 700 LINE",
"403 178 LINE",
"244 700 LINE",
"73 700 LINE",
"73 0 LINE",
"193 0 LINE",
"193 503 LINE",
"351 0 LINE",
"454 0 LINE",
"612 503 LINE",
"612 0 LINE",
"732 0 LINE",
"732 700 LINE"
);
}
);
width = 805;
},
{
associatedMasterId = "9540212F-C873-4039-900D-544C1C7D2862";
layerId = "6ADDD4C0-2DAB-445D-B1DF-83A7BD7DF220";
leftMetricsKey = "=I";
rightMetricsKey = "=I";
name = orginal;
paths = (
{
closed = 1;
nodes = (
"561 700 LINE",
"403 178 LINE",
"244 700 LINE",
"73 700 LINE",
"73 0 LINE",
"193 0 LINE",
"193 503 LINE",
"351 0 LINE",
"454 0 LINE",
"612 503 LINE",
"612 0 LINE",
"732 0 LINE",
"732 700 LINE"
);
}
);
width = 805;
},
{
associatedMasterId = "9540212F-C873-4039-900D-544C1C7D2862";
layerId = "8A6EA3AA-E1C3-4792-8F80-7787C2446294";
paths = (
{
closed = 1;
nodes = (
"737 700 LINE",
"555 700 LINE",
"395 184 LINE",
"415 184 LINE",
"254 700 LINE",
"72 700 LINE",
"72 0 LINE",
"207 0 LINE",
"207 505 LINE",
"186 502 LINE",
"347 0 LINE",
"462 0 LINE",
"623 502 LINE",
"602 505 LINE",
"602 0 LINE",
"737 0 LINE"
);
},
{
closed = 1;
nodes = (
"623 21 LINE",
"623 505 LINE",
"602 508 LINE",
"447 21 LINE",
"362 21 LINE",
"207 508 LINE",
"186 505 LINE",
"186 21 LINE",
"94 21 LINE",
"94 679 LINE",
"238 679 LINE",
"395 178 LINE",
"415 178 LINE",
"571 679 LINE",
"715 679 LINE",
"715 21 LINE"
);
}
);
width = 809;
},
{
associatedMasterId = "9540212F-C873-4039-900D-544C1C7D2862";
layerId = "BA8F7A1E-9E3F-41BA-B1BE-E13534E45DFC";
leftMetricsKey = "=I";
rightMetricsKey = "=I";
name = Orginal;
paths = (
{
closed = 1;
nodes = (
"582 700 LINE",
"403 150 LINE",
"223 700 LINE",
"73 700 LINE",
"73 0 LINE",
"193 0 LINE",
"193 483 LINE",
"351 0 LINE",
"454 0 LINE",
"612 483 LINE",
"612 0 LINE",
"732 0 LINE",
"732 700 LINE"
);
}
);
width = 805;
},
{
associatedMasterId = "9540212F-C873-4039-900D-544C1C7D2862";
layerId = "44B0A684-13BC-4BFD-94E7-95808F412867";
leftMetricsKey = "=I";
rightMetricsKey = "=I";
name = "Regular Mar 15 14, 20:38";
paths = (
{
closed = 1;
nodes = (
"582 700 LINE",
"403 150 LINE",
"223 700 LINE",
"73 700 LINE",
"73 0 LINE",
"193 0 LINE",
"193 483 LINE",
"351 0 LINE",
"454 0 LINE",
"612 483 LINE",
"612 0 LINE",
"732 0 LINE",
"732 700 LINE"
);
}
);
width = 805;
},
{
associatedMasterId = "9540212F-C873-4039-900D-544C1C7D2862";
layerId = "2E0C9308-9CD3-4627-9F70-E971EAD85986";
leftMetricsKey = "=I";
rightMetricsKey = "=I";
name = "Regular Mar 15 14, 20:41";
paths = (
{
closed = 1;
nodes = (
"561 700 LINE",
"403 178 LINE",
"244 700 LINE",
"73 700 LINE",
"73 0 LINE",
"193 0 LINE",
"193 503 LINE",
"351 0 LINE",
"454 0 LINE",
"612 503 LINE",
"612 0 LINE",
"732 0 LINE",
"732 700 LINE"
);
}
);
width = 805;
},
{
associatedMasterId = "9540212F-C873-4039-900D-544C1C7D2862";
layerId = "3F05F156-4F6B-4B0A-99D6-58CB3182F853";
leftMetricsKey = "=I";
rightMetricsKey = "=I";
name = orginal;
paths = (
{
closed = 1;
nodes = (
"561 700 LINE",
"403 178 LINE",
"244 700 LINE",
"73 700 LINE",
"73 0 LINE",
"193 0 LINE",
"193 503 LINE",
"351 0 LINE",
"454 0 LINE",
"612 503 LINE",
"612 0 LINE",
"732 0 LINE",
"732 700 LINE"
);
}
);
width = 805;
}
);
leftKerningGroup = I;
rightKerningGroup = I;
unicode = 004D;
},
{
color = 5;
glyphname = N;
lastChange = "2018-03-01 09:51:33 +0000";
layers = (
{
anchors = (
{
name = bottom;
position = "{303, 0}";
},
{
name = top;
position = "{341, 680}";
}
);
layerId = "9540212F-C873-4039-900D-544C1C7D2862";
paths = (
{
closed = 1;
nodes = (
"585 700 LINE",
"451 700 LINE",
"451 195 LINE",
"471 200 LINE",
"230 700 LINE",
"70 700 LINE",
"70 0 LINE",
"203 0 LINE",
"203 506 LINE",
"183 501 LINE",
"425 0 LINE",
"585 0 LINE"
);
},
{
closed = 1;
nodes = (
"438 21 LINE",
"202 511 LINE",
"182 506 LINE",
"182 21 LINE",
"91 21 LINE",
"91 679 LINE",
"217 679 LINE",
"452 190 LINE",
"472 195 LINE",
"472 679 LINE",
"564 679 LINE",
"564 21 LINE"
);
}
);
width = 655;
},
{
anchors = (
{
name = bottom;
position = "{303, 0}";
},
{
name = top;
position = "{341, 680}";
}
);
associatedMasterId = "9540212F-C873-4039-900D-544C1C7D2862";
layerId = "3E74BE5F-290D-4A23-9ED5-B3355EC55A60";
leftMetricsKey = "=I";
rightMetricsKey = "=I";
name = Orginal;
paths = (
{
closed = 1;
nodes = (
"462 700 LINE",
"462 198 LINE",
"223 700 LINE",
"73 700 LINE",
"73 0 LINE",
"193 0 LINE",
"193 503 LINE",
"432 0 LINE",
"582 0 LINE",
"582 700 LINE"
);
}
);
width = 655;
},
{
anchors = (
{
name = bottom;
position = "{303, 0}";
},
{
name = top;
position = "{341, 680}";
}
);
associatedMasterId = "9540212F-C873-4039-900D-544C1C7D2862";
layerId = "8A6EA3AA-E1C3-4792-8F80-7787C2446294";
paths = (
{
closed = 1;
nodes = (
"585 700 LINE",
"451 700 LINE",
"451 195 LINE",
"471 200 LINE",
"230 700 LINE",
"70 700 LINE",
"70 0 LINE",
"203 0 LINE",
"203 506 LINE",
"183 501 LINE",
"425 0 LINE",
"585 0 LINE"
);
},
{
closed = 1;
nodes = (
"438 21 LINE",
"202 511 LINE",
"182 506 LINE",
"182 21 LINE",
"91 21 LINE",
"91 679 LINE",
"217 679 LINE",
"452 190 LINE",
"472 195 LINE",
"472 679 LINE",
"564 679 LINE",
"564 21 LINE"
);
}
);
width = 655;
},
{
anchors = (
{
name = bottom;
position = "{303, 0}";
},
{
name = top;
position = "{341, 680}";
}
);
associatedMasterId = "9540212F-C873-4039-900D-544C1C7D2862";
layerId = "12A055B5-9140-46C5-8A0E-D04E4E643475";
leftMetricsKey = "=I";
rightMetricsKey = "=I";
name = Orginal;
paths = (
{
closed = 1;
nodes = (
"462 700 LINE",
"462 198 LINE",
"223 700 LINE",
"73 700 LINE",
"73 0 LINE",
"193 0 LINE",
"193 503 LINE",
"432 0 LINE",
"582 0 LINE",
"582 700 LINE"
);
}
);
width = 655;
}
);
leftKerningGroup = I;
rightKerningGroup = I;
unicode = 004E;
},
{
glyphname = Nacute;
lastChange = "2018-03-01 09:51:33 +0000";
layers = (
{
anchors = (
{
name = bottom;
position = "{288, 21}";
},
{
name = top;
position = "{324, 667}";
}
);
layerId = "9540212F-C873-4039-900D-544C1C7D2862";
paths = (
{
closed = 1;
nodes = (
"496 860 LINE",
"488 878 LINE",
"356 878 LINE",
"273 747 LINE",
"282 730 LINE",
"383 730 LINE"
);
},
{
closed = 1;
nodes = (
"282 752 LINE",
"291 735 LINE",
"368 857 LINE",
"488 857 LINE",
"480 874 LINE",
"373 752 LINE"
);
},
{
closed = 1;
nodes = (
"575 700 LINE",
"441 700 LINE",
"441 195 LINE",
"462 200 LINE",
"220 700 LINE",
"60 700 LINE",
"60 0 LINE",
"193 0 LINE",
"193 506 LINE",
"173 502 LINE",
"415 0 LINE",
"575 0 LINE"
);
},
{
closed = 1;
nodes = (
"429 21 LINE",
"192 511 LINE",
"172 506 LINE",
"172 21 LINE",
"81 21 LINE",
"81 679 LINE",
"207 679 LINE",
"442 190 LINE",
"463 195 LINE",
"463 679 LINE",
"554 679 LINE",
"554 21 LINE"
);
}
);
width = 635;
},
{
anchors = (
{
name = bottom;
position = "{288, 21}";
},
{
name = top;
position = "{324, 667}";
}
);
associatedMasterId = "9540212F-C873-4039-900D-544C1C7D2862";
layerId = "8A6EA3AA-E1C3-4792-8F80-7787C2446294";
paths = (
{
closed = 1;
nodes = (
"496 860 LINE",
"488 878 LINE",
"356 878 LINE",
"273 747 LINE",
"282 730 LINE",
"383 730 LINE"
);
},
{
closed = 1;
nodes = (
"282 752 LINE",
"291 735 LINE",
"368 857 LINE",
"488 857 LINE",
"480 874 LINE",
"373 752 LINE"
);
},
{
closed = 1;
nodes = (
"575 700 LINE",
"441 700 LINE",
"441 195 LINE",
"462 200 LINE",
"220 700 LINE",
"60 700 LINE",
"60 0 LINE",
"193 0 LINE",
"193 506 LINE",
"173 502 LINE",
"415 0 LINE",
"575 0 LINE"
);
},
{
closed = 1;
nodes = (
"429 21 LINE",
"192 511 LINE",
"172 506 LINE",
"172 21 LINE",
"81 21 LINE",
"81 679 LINE",
"207 679 LINE",
"442 190 LINE",
"463 195 LINE",
"463 679 LINE",
"554 679 LINE",
"554 21 LINE"
);
}
);
width = 635;
}
);
leftKerningGroup = I;
rightKerningGroup = I;
unicode = 0143;
},
{
glyphname = Ncaron;
lastChange = "2018-03-01 09:51:33 +0000";
layers = (
{
anchors = (
{
name = bottom;
position = "{288, 21}";
},
{
name = top;
position = "{324, 667}";
}
);
layerId = "9540212F-C873-4039-900D-544C1C7D2862";
paths = (
{
closed = 1;
nodes = (
"485 861 LINE",
"476 878 LINE",
"372 878 LINE",
"330 818 LINE",
"288 878 LINE",
"184 878 LINE",
"176 861 LINE",
"277 730 LINE",
"384 730 LINE"
);
},
{
closed = 1;
nodes = (
"287 752 LINE",
"193 874 LINE",
"184 857 LINE",
"277 857 LINE",
"330 781 LINE",
"383 857 LINE",
"476 857 LINE",
"468 874 LINE",
"373 752 LINE"
);
},
{
closed = 1;
nodes = (
"575 700 LINE",
"441 700 LINE",
"441 195 LINE",
"462 200 LINE",
"220 700 LINE",
"60 700 LINE",
"60 0 LINE",
"193 0 LINE",
"193 506 LINE",
"173 502 LINE",
"415 0 LINE",
"575 0 LINE"
);
},
{
closed = 1;
nodes = (
"429 21 LINE",
"192 511 LINE",
"172 506 LINE",
"172 21 LINE",
"81 21 LINE",
"81 679 LINE",
"207 679 LINE",
"442 190 LINE",
"463 195 LINE",
"463 679 LINE",
"554 679 LINE",
"554 21 LINE"
);
}
);
width = 635;
},
{
anchors = (
{
name = bottom;
position = "{288, 21}";
},
{
name = top;
position = "{324, 667}";
}
);
associatedMasterId = "9540212F-C873-4039-900D-544C1C7D2862";
layerId = "8A6EA3AA-E1C3-4792-8F80-7787C2446294";
paths = (
{
closed = 1;
nodes = (
"485 861 LINE",
"476 878 LINE",
"372 878 LINE",
"330 818 LINE",
"288 878 LINE",
"184 878 LINE",
"176 861 LINE",
"277 730 LINE",
"384 730 LINE"
);
},
{
closed = 1;
nodes = (
"287 752 LINE",
"193 874 LINE",
"184 857 LINE",
"277 857 LINE",
"330 781 LINE",
"383 857 LINE",
"476 857 LINE",
"468 874 LINE",
"373 752 LINE"
);
},
{
closed = 1;
nodes = (
"575 700 LINE",
"441 700 LINE",
"441 195 LINE",
"462 200 LINE",
"220 700 LINE",
"60 700 LINE",
"60 0 LINE",
"193 0 LINE",
"193 506 LINE",
"173 502 LINE",
"415 0 LINE",
"575 0 LINE"
);
},
{
closed = 1;
nodes = (
"429 21 LINE",
"192 511 LINE",
"172 506 LINE",
"172 21 LINE",
"81 21 LINE",
"81 679 LINE",
"207 679 LINE",
"442 190 LINE",
"463 195 LINE",
"463 679 LINE",
"554 679 LINE",
"554 21 LINE"
);
}
);
width = 635;
}
);
leftKerningGroup = I;
rightKerningGroup = I;
unicode = 0147;
},
{
glyphname = Ncommaaccent;
lastChange = "2018-03-01 09:51:33 +0000";
layers = (
{
anchors = (
{
name = bottom;
position = "{288, 21}";
},
{
name = top;
position = "{324, 667}";
}
);
layerId = "9540212F-C873-4039-900D-544C1C7D2862";
paths = (
{
closed = 1;
nodes = (
"441 700 LINE",
"441 195 LINE",
"462 200 LINE",
"220 700 LINE",
"60 700 LINE",
"60 0 LINE",
"193 0 LINE",
"193 506 LINE",
"173 502 LINE",
"415 0 LINE",
"575 0 LINE",
"575 700 LINE"
);
},
{
closed = 1;
nodes = (
"554 21 LINE",
"429 21 LINE",
"192 511 LINE",
"172 506 LINE",
"172 21 LINE",
"81 21 LINE",
"81 679 LINE",
"207 679 LINE",
"442 190 LINE",
"463 195 LINE",
"463 679 LINE",
"554 679 LINE"
);
},
{
closed = 1;
nodes = (
"224 -171 LINE",
"277 -171 LINE",
"246 -260 LINE",
"330 -260 LINE",
"364 -162 LINE",
"364 -35 LINE",
"224 -35 LINE"
);
},
{
closed = 1;
nodes = (
"342 -56 LINE",
"342 -158 LINE",
"314 -239 LINE",
"276 -239 LINE",
"307 -149 LINE",
"245 -149 LINE",
"245 -56 LINE"
);
}
);
width = 635;
},
{
anchors = (
{
name = bottom;
position = "{288, 21}";
},
{
name = top;
position = "{324, 667}";
}
);
associatedMasterId = "9540212F-C873-4039-900D-544C1C7D2862";
layerId = "8A6EA3AA-E1C3-4792-8F80-7787C2446294";
paths = (
{
closed = 1;
nodes = (
"441 700 LINE",
"441 195 LINE",
"462 200 LINE",
"220 700 LINE",
"60 700 LINE",
"60 0 LINE",
"193 0 LINE",
"193 506 LINE",
"173 502 LINE",
"415 0 LINE",
"575 0 LINE",
"575 700 LINE"
);
},
{
closed = 1;
nodes = (
"554 21 LINE",
"429 21 LINE",
"192 511 LINE",
"172 506 LINE",
"172 21 LINE",
"81 21 LINE",
"81 679 LINE",
"207 679 LINE",
"442 190 LINE",
"463 195 LINE",
"463 679 LINE",
"554 679 LINE"
);
},
{
closed = 1;
nodes = (
"224 -171 LINE",
"277 -171 LINE",
"246 -260 LINE",
"330 -260 LINE",
"364 -162 LINE",
"364 -35 LINE",
"224 -35 LINE"
);
},
{
closed = 1;
nodes = (
"342 -56 LINE",
"342 -158 LINE",
"314 -239 LINE",
"276 -239 LINE",
"307 -149 LINE",
"245 -149 LINE",
"245 -56 LINE"
);
}
);
width = 635;
}
);
leftKerningGroup = I;
rightKerningGroup = I;
unicode = 0145;
},
{
glyphname = Eng;
lastChange = "2018-03-01 09:51:33 +0000";
layers = (
{
layerId = "9540212F-C873-4039-900D-544C1C7D2862";
leftMetricsKey = "=I";
rightMetricsKey = "=I";
paths = (
{
closed = 1;
nodes = (
"431 700 LINE",
"431 223 LINE",
"451 228 LINE",
"226 700 LINE",
"63 700 LINE",
"63 0 LINE",
"201 0 LINE",
"201 499 LINE",
"181 494 LINE",
"431 8 LINE",
"431 -16 LINE",
"431 -64 OFFCURVE",
"423 -76 OFFCURVE",
"357 -75 CURVE",
"357 -197 LINE",
"397 -197 LINE",
"526 -197 OFFCURVE",
"569 -118 OFFCURVE",
"569 -17 CURVE",
"569 700 LINE"
);
},
{
closed = 1;
nodes = (
"547 -17 LINE",
"547 -111 OFFCURVE",
"512 -176 OFFCURVE",
"397 -176 CURVE",
"378 -176 LINE",
"378 -96 LINE",
"441 -93 OFFCURVE",
"452 -66 OFFCURVE",
"452 -16 CURVE",
"452 13 LINE",
"200 503 LINE",
"180 499 LINE",
"180 21 LINE",
"84 21 LINE",
"84 679 LINE",
"213 679 LINE",
"432 219 LINE",
"452 223 LINE",
"452 679 LINE",
"547 679 LINE"
);
}
);
width = 632;
},
{
associatedMasterId = "9540212F-C873-4039-900D-544C1C7D2862";
layerId = "8A6EA3AA-E1C3-4792-8F80-7787C2446294";
leftMetricsKey = "=I";
rightMetricsKey = "=I";
paths = (
{
closed = 1;
nodes = (
"431 700 LINE",
"431 223 LINE",
"451 228 LINE",
"226 700 LINE",
"63 700 LINE",
"63 0 LINE",
"201 0 LINE",
"201 499 LINE",
"181 494 LINE",
"431 8 LINE",
"431 -16 LINE",
"431 -64 OFFCURVE",
"423 -76 OFFCURVE",
"357 -75 CURVE",
"357 -197 LINE",
"397 -197 LINE",
"526 -197 OFFCURVE",
"569 -118 OFFCURVE",
"569 -17 CURVE",
"569 700 LINE"
);
},
{
closed = 1;
nodes = (
"547 -17 LINE",
"547 -111 OFFCURVE",
"512 -176 OFFCURVE",
"397 -176 CURVE",
"378 -176 LINE",
"378 -96 LINE",
"441 -93 OFFCURVE",
"452 -66 OFFCURVE",
"452 -16 CURVE",
"452 13 LINE",
"200 503 LINE",
"180 499 LINE",
"180 21 LINE",
"84 21 LINE",
"84 679 LINE",
"213 679 LINE",
"432 219 LINE",
"452 223 LINE",
"452 679 LINE",
"547 679 LINE"
);
}
);
width = 632;
}
);
leftKerningGroup = I;
leftMetricsKey = I;
rightKerningGroup = I;
rightMetricsKey = I;
unicode = 014A;
},
{
glyphname = Ntilde;
lastChange = "2018-03-01 09:51:33 +0000";
layers = (
{
anchors = (
{
name = bottom;
position = "{288, 21}";
},
{
name = top;
position = "{324, 667}";
}
);
layerId = "9540212F-C873-4039-900D-544C1C7D2862";
paths = (
{
closed = 1;
nodes = (
"430 882 LINE",
"401 838 OFFCURVE",
"399 835 OFFCURVE",
"383 835 CURVE",
"376 835 OFFCURVE",
"371 836 OFFCURVE",
"356 846 CURVE",
"312 869 OFFCURVE",
"297 871 OFFCURVE",
"279 871 CURVE",
"243 871 OFFCURVE",
"178 832 OFFCURVE",
"164 774 CURVE",
"238 730 LINE",
"259 769 OFFCURVE",
"263 774 OFFCURVE",
"279 774 CURVE",
"290 774 OFFCURVE",
"294 773 OFFCURVE",
"324 758 CURVE",
"323 758 LINE",
"348 744 OFFCURVE",
"366 738 OFFCURVE",
"384 738 CURVE",
"420 738 OFFCURVE",
"471 767 OFFCURVE",
"498 826 CURVE"
);
},
{
closed = 1;
nodes = (
"447 778 OFFCURVE",
"412 760 OFFCURVE",
"384 760 CURVE",
"369 760 OFFCURVE",
"356 764 OFFCURVE",
"334 776 CURVE",
"334 777 LINE",
"302 793 OFFCURVE",
"294 795 OFFCURVE",
"279 795 CURVE",
"259 795 OFFCURVE",
"246 786 OFFCURVE",
"230 760 CURVE",
"190 783 LINE",
"207 823 OFFCURVE",
"254 850 OFFCURVE",
"279 850 CURVE",
"295 850 OFFCURVE",
"305 848 OFFCURVE",
"345 828 CURVE",
"364 815 OFFCURVE",
"375 814 OFFCURVE",
"383 814 CURVE",
"402 814 OFFCURVE",
"414 820 OFFCURVE",
"435 851 CURVE",
"471 821 LINE"
);
},
{
closed = 1;
nodes = (
"575 700 LINE",
"441 700 LINE",
"441 195 LINE",
"462 200 LINE",
"220 700 LINE",
"60 700 LINE",
"60 0 LINE",
"193 0 LINE",
"193 506 LINE",
"173 502 LINE",
"415 0 LINE",
"575 0 LINE"
);
},
{
closed = 1;
nodes = (
"429 21 LINE",
"192 511 LINE",
"172 506 LINE",
"172 21 LINE",
"81 21 LINE",
"81 679 LINE",
"207 679 LINE",
"442 190 LINE",
"463 195 LINE",
"463 679 LINE",
"554 679 LINE",
"554 21 LINE"
);
}
);
width = 635;
},
{
anchors = (
{
name = bottom;
position = "{288, 21}";
},
{
name = top;
position = "{324, 667}";
}
);
associatedMasterId = "9540212F-C873-4039-900D-544C1C7D2862";
layerId = "8A6EA3AA-E1C3-4792-8F80-7787C2446294";
paths = (
{
closed = 1;
nodes = (
"430 882 LINE",
"401 838 OFFCURVE",
"399 835 OFFCURVE",
"383 835 CURVE",
"376 835 OFFCURVE",
"371 836 OFFCURVE",
"356 846 CURVE",
"312 869 OFFCURVE",
"297 871 OFFCURVE",
"279 871 CURVE",
"243 871 OFFCURVE",
"178 832 OFFCURVE",
"164 774 CURVE",
"238 730 LINE",
"259 769 OFFCURVE",
"263 774 OFFCURVE",
"279 774 CURVE",
"290 774 OFFCURVE",
"294 773 OFFCURVE",
"324 758 CURVE",
"323 758 LINE",
"348 744 OFFCURVE",
"366 738 OFFCURVE",
"384 738 CURVE",
"420 738 OFFCURVE",
"471 767 OFFCURVE",
"498 826 CURVE"
);
},
{
closed = 1;
nodes = (
"447 778 OFFCURVE",
"412 760 OFFCURVE",
"384 760 CURVE",
"369 760 OFFCURVE",
"356 764 OFFCURVE",
"334 776 CURVE",
"334 777 LINE",
"302 793 OFFCURVE",
"294 795 OFFCURVE",
"279 795 CURVE",
"259 795 OFFCURVE",
"246 786 OFFCURVE",
"230 760 CURVE",
"190 783 LINE",
"207 823 OFFCURVE",
"254 850 OFFCURVE",
"279 850 CURVE",
"295 850 OFFCURVE",
"305 848 OFFCURVE",
"345 828 CURVE",
"364 815 OFFCURVE",
"375 814 OFFCURVE",
"383 814 CURVE",
"402 814 OFFCURVE",
"414 820 OFFCURVE",
"435 851 CURVE",
"471 821 LINE"
);
},
{
closed = 1;
nodes = (
"575 700 LINE",
"441 700 LINE",
"441 195 LINE",
"462 200 LINE",
"220 700 LINE",
"60 700 LINE",
"60 0 LINE",
"193 0 LINE",
"193 506 LINE",
"173 502 LINE",
"415 0 LINE",
"575 0 LINE"
);
},
{
closed = 1;
nodes = (
"429 21 LINE",
"192 511 LINE",
"172 506 LINE",
"172 21 LINE",
"81 21 LINE",
"81 679 LINE",
"207 679 LINE",
"442 190 LINE",
"463 195 LINE",
"463 679 LINE",
"554 679 LINE",
"554 21 LINE"
);
}
);
width = 635;
}
);
leftKerningGroup = I;
rightKerningGroup = I;
unicode = 00D1;
},
{
color = 5;
glyphname = O;
lastChange = "2018-03-01 09:51:33 +0000";
layers = (
{
anchors = (
{
name = "new anchor";
position = "{-153, 368}";
},
{
name = top;
position = "{342, 687}";
}
);
guideLines = (
{
position = "{892, 716}";
},
{
position = "{878, -16}";
},
{
position = "{901, 604}";
},
{
position = "{840, 96}";
}
);
hints = (
{
place = "{531, 0}";
}
);
layerId = "9540212F-C873-4039-900D-544C1C7D2862";
paths = (
{
closed = 1;
nodes = (
"176 712 OFFCURVE",
"46 585 OFFCURVE",
"46 388 CURVE",
"46 320 LINE",
"46 123 OFFCURVE",
"176 -5 OFFCURVE",
"342 -5 CURVE",
"507 -5 OFFCURVE",
"638 123 OFFCURVE",
"638 320 CURVE",
"638 388 LINE",
"638 585 OFFCURVE",
"507 712 OFFCURVE",
"342 712 CURVE"
);
},
{
closed = 1;
nodes = (
"497 692 OFFCURVE",
"617 574 OFFCURVE",
"617 388 CURVE",
"617 320 LINE",
"617 134 OFFCURVE",
"497 16 OFFCURVE",
"342 16 CURVE",
"186 16 OFFCURVE",
"67 134 OFFCURVE",
"67 320 CURVE",
"67 388 LINE",
"67 574 OFFCURVE",
"186 692 OFFCURVE",
"342 692 CURVE"
);
},
{
closed = 1;
nodes = (
"448 585 OFFCURVE",
"503 496 OFFCURVE",
"503 368 CURVE",
"503 337 LINE",
"503 209 OFFCURVE",
"448 123 OFFCURVE",
"341 123 CURVE",
"234 123 OFFCURVE",
"181 209 OFFCURVE",
"181 337 CURVE",
"181 368 LINE",
"181 497 OFFCURVE",
"235 585 OFFCURVE",
"341 585 CURVE"
);
},
{
closed = 1;
nodes = (
"221 606 OFFCURVE",
"161 504 OFFCURVE",
"161 368 CURVE",
"161 337 LINE",
"161 201 OFFCURVE",
"221 102 OFFCURVE",
"341 102 CURVE",
"461 102 OFFCURVE",
"523 201 OFFCURVE",
"523 337 CURVE",
"523 368 LINE",
"523 505 OFFCURVE",
"461 606 OFFCURVE",
"341 606 CURVE"
);
}
);
width = 684;
},
{
anchors = (
{
name = "new anchor";
position = "{-153, 368}";
},
{
name = top;
position = "{342, 687}";
}
);
associatedMasterId = "9540212F-C873-4039-900D-544C1C7D2862";
guideLines = (
{
position = "{892, 716}";
},
{
position = "{878, -16}";
},
{
position = "{901, 604}";
},
{
position = "{840, 96}";
}
);
hints = (
{
place = "{531, 0}";
}
);
layerId = "8A6EA3AA-E1C3-4792-8F80-7787C2446294";
paths = (
{
closed = 1;
nodes = (
"176 712 OFFCURVE",
"46 585 OFFCURVE",
"46 388 CURVE",
"46 320 LINE",
"46 123 OFFCURVE",
"176 -5 OFFCURVE",
"342 -5 CURVE",
"507 -5 OFFCURVE",
"638 123 OFFCURVE",
"638 320 CURVE",
"638 388 LINE",
"638 585 OFFCURVE",
"507 712 OFFCURVE",
"342 712 CURVE"
);
},
{
closed = 1;
nodes = (
"497 692 OFFCURVE",
"617 574 OFFCURVE",
"617 388 CURVE",
"617 320 LINE",
"617 134 OFFCURVE",
"497 16 OFFCURVE",
"342 16 CURVE",
"186 16 OFFCURVE",
"67 134 OFFCURVE",
"67 320 CURVE",
"67 388 LINE",
"67 574 OFFCURVE",
"186 692 OFFCURVE",
"342 692 CURVE"
);
},
{
closed = 1;
nodes = (
"448 585 OFFCURVE",
"503 496 OFFCURVE",
"503 368 CURVE",
"503 337 LINE",
"503 209 OFFCURVE",
"448 123 OFFCURVE",
"341 123 CURVE",
"234 123 OFFCURVE",
"181 209 OFFCURVE",
"181 337 CURVE",
"181 368 LINE",
"181 497 OFFCURVE",
"235 585 OFFCURVE",
"341 585 CURVE"
);
},
{
closed = 1;
nodes = (
"221 606 OFFCURVE",
"161 504 OFFCURVE",
"161 368 CURVE",
"161 337 LINE",
"161 201 OFFCURVE",
"221 102 OFFCURVE",
"341 102 CURVE",
"461 102 OFFCURVE",
"523 201 OFFCURVE",
"523 337 CURVE",
"523 368 LINE",
"523 505 OFFCURVE",
"461 606 OFFCURVE",
"341 606 CURVE"
);
}
);
width = 684;
}
);
leftKerningGroup = O;
rightKerningGroup = O;
unicode = 004F;
},
{
glyphname = Oacute;
lastChange = "2018-03-01 09:51:33 +0000";
layers = (
{
anchors = (
{
name = "new anchor";
position = "{-148, 368}";
},
{
name = top;
position = "{332, 677}";
}
);
hints = (
{
place = "{531, 0}";
}
);
layerId = "9540212F-C873-4039-900D-544C1C7D2862";
paths = (
{
closed = 1;
nodes = (
"504 870 LINE",
"496 888 LINE",
"364 888 LINE",
"281 756 LINE",
"290 740 LINE",
"391 740 LINE"
);
},
{
closed = 1;
nodes = (
"290 761 LINE",
"299 745 LINE",
"375 866 LINE",
"496 866 LINE",
"488 884 LINE",
"381 761 LINE"
);
},
{
closed = 1;
nodes = (
"169 716 OFFCURVE",
"37 585 OFFCURVE",
"37 385 CURVE",
"37 316 LINE",
"37 116 OFFCURVE",
"169 -16 OFFCURVE",
"339 -16 CURVE",
"507 -16 OFFCURVE",
"640 116 OFFCURVE",
"640 316 CURVE",
"640 385 LINE",
"640 586 OFFCURVE",
"507 716 OFFCURVE",
"339 716 CURVE"
);
},
{
closed = 1;
nodes = (
"496 695 OFFCURVE",
"619 575 OFFCURVE",
"619 385 CURVE",
"619 316 LINE",
"619 127 OFFCURVE",
"496 6 OFFCURVE",
"339 6 CURVE",
"180 6 OFFCURVE",
"58 127 OFFCURVE",
"58 316 CURVE",
"58 385 LINE",
"58 575 OFFCURVE",
"180 695 OFFCURVE",
"339 695 CURVE"
);
},
{
closed = 1;
nodes = (
"446 586 OFFCURVE",
"502 496 OFFCURVE",
"502 365 CURVE",
"502 334 LINE",
"502 202 OFFCURVE",
"446 114 OFFCURVE",
"338 114 CURVE",
"229 114 OFFCURVE",
"175 202 OFFCURVE",
"175 334 CURVE",
"175 365 LINE",
"175 496 OFFCURVE",
"229 586 OFFCURVE",
"338 586 CURVE"
);
},
{
closed = 1;
nodes = (
"215 607 OFFCURVE",
"153 503 OFFCURVE",
"153 365 CURVE",
"153 334 LINE",
"153 194 OFFCURVE",
"215 93 OFFCURVE",
"338 93 CURVE",
"460 93 OFFCURVE",
"524 194 OFFCURVE",
"524 334 CURVE",
"524 365 LINE",
"524 504 OFFCURVE",
"460 607 OFFCURVE",
"338 607 CURVE"
);
}
);
width = 677;
},
{
anchors = (
{
name = "new anchor";
position = "{-148, 368}";
},
{
name = top;
position = "{332, 677}";
}
);
associatedMasterId = "9540212F-C873-4039-900D-544C1C7D2862";
hints = (
{
place = "{531, 0}";
}
);
layerId = "8A6EA3AA-E1C3-4792-8F80-7787C2446294";
paths = (
{
closed = 1;
nodes = (
"504 870 LINE",
"496 888 LINE",
"364 888 LINE",
"281 756 LINE",
"290 740 LINE",
"391 740 LINE"
);
},
{
closed = 1;
nodes = (
"290 761 LINE",
"299 745 LINE",
"375 866 LINE",
"496 866 LINE",
"488 884 LINE",
"381 761 LINE"
);
},
{
closed = 1;
nodes = (
"169 716 OFFCURVE",
"37 585 OFFCURVE",
"37 385 CURVE",
"37 316 LINE",
"37 116 OFFCURVE",
"169 -16 OFFCURVE",
"339 -16 CURVE",
"507 -16 OFFCURVE",
"640 116 OFFCURVE",
"640 316 CURVE",
"640 385 LINE",
"640 586 OFFCURVE",
"507 716 OFFCURVE",
"339 716 CURVE"
);
},
{
closed = 1;
nodes = (
"496 695 OFFCURVE",
"619 575 OFFCURVE",
"619 385 CURVE",
"619 316 LINE",
"619 127 OFFCURVE",
"496 6 OFFCURVE",
"339 6 CURVE",
"180 6 OFFCURVE",
"58 127 OFFCURVE",
"58 316 CURVE",
"58 385 LINE",
"58 575 OFFCURVE",
"180 695 OFFCURVE",
"339 695 CURVE"
);
},
{
closed = 1;
nodes = (
"446 586 OFFCURVE",
"502 496 OFFCURVE",
"502 365 CURVE",
"502 334 LINE",
"502 202 OFFCURVE",
"446 114 OFFCURVE",
"338 114 CURVE",
"229 114 OFFCURVE",
"175 202 OFFCURVE",
"175 334 CURVE",
"175 365 LINE",
"175 496 OFFCURVE",
"229 586 OFFCURVE",
"338 586 CURVE"
);
},
{
closed = 1;
nodes = (
"215 607 OFFCURVE",
"153 503 OFFCURVE",
"153 365 CURVE",
"153 334 LINE",
"153 194 OFFCURVE",
"215 93 OFFCURVE",
"338 93 CURVE",
"460 93 OFFCURVE",
"524 194 OFFCURVE",
"524 334 CURVE",
"524 365 LINE",
"524 504 OFFCURVE",
"460 607 OFFCURVE",
"338 607 CURVE"
);
}
);
width = 677;
}
);
leftKerningGroup = O;
rightKerningGroup = O;
unicode = 00D3;
},
